<?xml version="1.0" encoding="UTF-8" standalone="no"?>
<!DOCTYPE svg PUBLIC "-//W3C//DTD SVG 20010904//EN"
              "http://www.w3.org/TR/2001/REC-SVG-20010904/DTD/svg10.dtd">

<svg xmlns="http://www.w3.org/2000/svg"

     viewBox="0 0 765 547">
  <path id="Selection"
       fill="#06b5ef"   stroke="none" stroke-width="0"
        d="M 1.03,542.00
           C 1.03,542.00 764.00,542.00 764.00,542.00
             764.00,542.00 764.00,0.54 764.00,0.54
             764.00,0.54 753.00,0.54 753.00,0.54
             753.00,0.54 743.00,0.54 743.00,0.54
             743.00,0.54 730.00,0.54 730.00,0.54
             730.00,0.54 665.00,0.54 665.00,0.54
             665.00,0.54 656.00,0.54 656.00,0.54
             656.00,0.54 646.00,0.54 646.00,0.54
             646.00,0.54 604.00,0.54 604.00,0.54
             604.00,0.54 482.67,0.54 482.67,0.54
             482.67,0.54 443.04,0.54 443.04,0.54
             443.04,0.54 431.00,0.54 431.00,0.54
             431.00,0.54 418.84,0.54 418.84,0.54
             418.84,0.54 410.66,0.54 410.66,0.54
             410.66,0.54 398.00,0.54 398.00,0.54
             398.00,0.54 391.00,0.54 391.00,0.54
             391.00,0.54 367.00,0.54 367.00,0.54
             367.00,0.54 306.00,0.54 306.00,0.54
             306.00,0.54 121.00,0.54 121.00,0.54
             121.00,0.54 111.00,0.54 111.00,0.54
             111.00,0.54 99.00,0.54 99.00,0.54
             99.00,0.54 42.00,0.54 42.00,0.54
             42.00,0.54 14.82,0.54 14.82,0.54
             6.74,0.93 1.95,-2.26 1.03,5.02
             1.03,5.02 1.03,10.00 1.03,10.00
             1.03,10.00 1.03,131.00 1.03,131.00
             1.03,131.00 1.03,542.00 1.03,542.00 Z
           M 263.84,62.00
           C 265.89,58.80 269.64,50.20 272.44,59.02
             272.44,59.02 273.00,62.00 273.00,62.00
             273.00,62.00 277.00,54.00 277.00,54.00
             277.00,54.00 279.00,54.00 279.00,54.00
             280.53,59.86 278.58,69.93 273.00,73.00
             273.00,73.00 270.00,64.00 270.00,64.00
             269.00,65.73 266.87,71.11 265.54,71.83
             263.77,72.80 262.55,71.25 261.80,69.85
             260.84,68.06 258.48,59.00 258.92,57.19
             259.52,54.72 262.57,54.09 263.84,59.04
             263.84,59.04 263.84,62.00 263.84,62.00 Z
           M 289.04,54.45
           C 302.27,53.13 300.89,70.52 292.96,72.55
             282.78,75.17 278.73,58.86 289.04,54.45 Z
           M 317.00,73.00
           C 311.46,72.07 312.22,70.11 308.00,66.00
             308.00,66.00 307.00,73.00 307.00,73.00
             305.77,72.57 304.95,72.62 304.02,71.41
             302.32,69.18 302.33,56.81 304.60,55.02
             306.42,53.58 315.02,52.81 316.14,59.04
             316.60,61.59 315.23,63.49 315.19,65.58
             315.19,65.58 317.00,73.00 317.00,73.00 Z
           M 325.00,59.00
           C 325.00,59.00 333.00,54.00 333.00,54.00
             333.00,54.00 334.00,55.00 334.00,55.00
             334.00,55.00 330.55,62.58 330.55,62.58
             330.55,62.58 335.00,73.00 335.00,73.00
             329.38,72.08 329.28,70.47 325.00,67.00
             324.67,70.91 324.83,71.66 321.00,73.00
             320.14,69.45 319.35,61.54 320.31,58.07
             321.19,54.91 324.03,53.42 325.00,59.00 Z
           M 359.00,55.00
           C 359.00,55.00 359.00,57.00 359.00,57.00
             359.00,57.00 351.00,58.00 351.00,58.00
             351.00,58.00 358.00,62.00 358.00,62.00
             358.00,62.00 358.00,64.00 358.00,64.00
             356.30,64.63 353.87,65.29 352.59,66.58
             349.67,69.54 352.37,71.12 347.00,73.00
             345.65,65.45 342.83,53.57 354.00,54.05
             356.09,54.14 357.04,54.44 359.00,55.00 Z
           M 376.00,73.00
           C 376.00,73.00 367.00,66.00 367.00,66.00
             366.85,70.17 367.21,71.52 363.01,73.00
             362.14,69.45 360.99,59.36 363.01,56.31
             365.44,52.69 372.91,53.54 375.07,57.15
             376.59,59.97 375.05,63.01 375.07,66.00
             375.07,66.00 376.00,73.00 376.00,73.00 Z
           M 385.02,54.60
           C 399.80,51.94 398.08,75.12 386.00,72.53
             378.73,70.96 377.18,59.03 385.02,54.60 Z
           M 409.00,65.00
           C 409.00,65.00 411.15,60.00 411.15,60.00
             412.69,56.61 416.77,51.07 418.69,58.06
             419.64,61.55 418.87,69.43 418.00,73.00
             418.00,73.00 415.00,73.00 415.00,73.00
             415.00,73.00 414.00,66.00 414.00,66.00
             411.74,70.10 411.66,71.53 407.00,73.00
             407.00,73.00 405.00,66.00 405.00,66.00
             405.00,66.00 403.00,73.00 403.00,73.00
             403.00,73.00 400.00,73.00 400.00,73.00
             399.09,69.25 398.53,62.81 399.15,59.02
             399.49,56.86 400.85,53.84 403.60,55.17
             405.66,56.16 407.95,62.73 409.00,65.00 Z
           M 435.00,54.00
           C 436.91,59.18 436.98,60.99 443.00,60.00
             442.17,53.57 446.56,54.43 447.07,58.11
             447.07,58.11 447.07,73.00 447.07,73.00
             447.07,73.00 443.00,73.00 443.00,73.00
             442.91,70.45 441.99,63.06 437.59,66.79
             436.27,67.91 435.54,71.31 435.00,73.00
             435.00,73.00 433.00,73.00 433.00,73.00
             431.49,67.69 431.49,59.31 433.00,54.00
             433.00,54.00 435.00,54.00 435.00,54.00 Z
           M 457.02,54.45
           C 470.32,53.14 468.86,70.52 460.96,72.55
             451.13,75.08 446.47,58.82 457.02,54.45 Z
           M 480.00,65.00
           C 481.27,62.76 484.19,56.14 486.21,55.17
             489.91,53.40 489.96,58.93 490.00,61.00
             490.08,65.54 490.26,68.58 489.00,73.00
             489.00,73.00 487.00,73.00 487.00,73.00
             487.00,73.00 486.00,67.00 486.00,67.00
             482.66,70.65 480.02,76.13 477.00,68.00
             477.00,68.00 475.00,73.00 475.00,73.00
             469.69,71.14 470.97,66.92 471.00,62.00
             471.01,60.19 470.76,56.22 472.58,55.17
             475.36,53.57 477.57,58.12 478.38,60.00
             478.38,60.00 480.00,65.00 480.00,65.00 Z
           M 507.00,55.21
           C 507.00,55.21 507.00,57.00 507.00,57.00
             507.00,57.00 499.00,58.00 499.00,58.00
             499.00,58.00 506.00,65.00 506.00,65.00
             506.00,65.00 499.00,66.00 499.00,66.00
             502.08,69.04 502.78,68.85 507.00,69.00
             507.00,69.00 507.00,73.00 507.00,73.00
             504.52,73.00 497.53,73.45 495.71,72.01
             493.41,70.12 493.40,57.44 495.71,55.21
             498.35,53.06 503.92,54.13 507.00,55.21 Z
           M 289.58,59.08
           C 286.19,63.72 288.86,70.06 292.44,67.72
             294.36,66.47 295.63,57.48 289.58,59.08 Z
           M 308.00,58.00
           C 308.00,58.00 308.00,62.00 308.00,62.00
             308.00,62.00 312.00,61.00 312.00,61.00
             312.00,61.00 312.00,59.00 312.00,59.00
             312.00,59.00 308.00,58.00 308.00,58.00 Z
           M 367.00,58.00
           C 367.00,58.00 367.00,62.00 367.00,62.00
             367.00,62.00 372.00,61.00 372.00,61.00
             372.00,61.00 372.00,59.00 372.00,59.00
             372.00,59.00 367.00,58.00 367.00,58.00 Z
           M 386.27,59.17
           C 381.82,63.65 385.30,69.14 388.59,67.60
             391.35,66.31 392.24,58.51 386.27,59.17 Z
           M 457.58,59.08
           C 454.19,63.72 456.86,70.06 460.44,67.72
             462.36,66.47 463.63,57.48 457.58,59.08 Z
           M 558.00,108.00
           C 569.02,109.51 574.00,118.54 573.00,129.00
             573.00,129.00 559.00,129.00 559.00,129.00
             558.30,125.72 557.48,121.76 553.94,120.36
             549.87,118.75 544.72,123.02 547.19,127.90
             549.26,131.96 556.07,133.83 560.00,135.81
             569.75,140.73 576.71,149.82 572.44,161.00
             568.73,170.72 560.34,170.60 557.60,173.56
             555.41,175.91 556.29,182.22 550.22,180.69
             546.24,179.68 548.09,175.61 544.69,172.92
             541.06,170.04 528.14,166.79 529.22,154.11
             529.64,149.16 538.48,148.93 541.69,151.02
             543.81,152.40 544.07,154.98 545.58,156.86
             546.79,158.35 548.11,159.27 550.00,159.67
             555.30,160.79 559.75,155.88 557.05,151.10
             554.88,147.26 548.83,145.70 545.00,143.88
             536.65,139.91 530.35,133.92 531.19,124.00
             532.30,110.78 542.25,109.66 545.69,106.93
             548.95,104.33 547.34,100.90 549.74,98.99
             550.63,98.29 551.93,98.11 553.02,98.20
             558.56,98.65 557.98,103.90 558.00,108.00 Z
           M 384.00,149.00
           C 384.00,149.00 373.09,149.00 373.09,149.00
             372.50,146.20 371.40,142.01 373.09,139.48
             374.50,137.61 376.89,137.27 379.00,137.09
             382.83,136.76 395.64,136.30 398.26,138.82
             400.83,141.30 400.01,151.33 400.00,155.00
             400.00,157.84 400.21,161.36 398.83,163.91
             393.81,173.12 372.97,174.66 364.00,171.45
             351.39,166.95 346.15,154.56 346.00,142.00
             345.87,130.76 347.89,117.89 358.01,111.11
             370.37,102.83 395.02,106.08 398.45,124.00
             400.17,132.96 387.57,129.78 386.27,128.98
             383.24,127.11 383.01,122.71 377.98,120.58
             376.05,119.98 373.01,119.89 371.00,120.58
             361.40,123.02 361.99,134.27 362.00,142.00
             362.01,148.02 362.38,153.14 367.33,157.50
             370.59,160.25 380.16,161.66 382.98,157.50
             384.29,155.66 384.00,151.32 384.00,149.00 Z
           M 496.00,107.33
           C 503.07,106.54 510.39,107.10 515.79,112.33
             521.15,117.52 522.91,126.81 523.00,134.00
             523.16,148.01 524.52,168.27 507.00,172.32
             504.39,172.92 501.67,173.08 499.00,172.96
             486.69,172.42 481.26,164.09 479.00,153.00
             476.98,143.06 477.26,123.36 483.50,115.02
             486.83,110.55 490.73,108.59 496.00,107.33 Z
           M 154.00,133.00
           C 154.00,133.00 154.00,117.00 154.00,117.00
             154.00,114.70 153.62,110.59 155.60,109.02
             157.12,107.82 161.09,107.94 163.00,108.02
             169.20,108.28 168.96,110.53 169.00,116.00
             169.00,116.00 169.00,163.00 169.00,163.00
             169.00,164.99 169.23,168.81 167.98,170.40
             166.18,172.68 156.82,172.68 155.02,170.40
             153.85,168.92 154.01,165.82 154.00,164.00
             154.00,164.00 154.00,146.00 154.00,146.00
             154.00,146.00 131.00,146.00 131.00,146.00
             131.00,146.00 131.00,163.00 131.00,163.00
             131.00,165.30 131.38,169.41 129.40,170.98
             127.88,172.18 123.91,172.06 122.00,171.98
             115.80,171.72 116.04,169.47 116.00,164.00
             116.00,164.00 116.00,117.00 116.00,117.00
             116.00,114.70 115.62,110.59 117.60,109.02
             119.62,107.42 128.29,107.47 129.98,109.60
             131.04,110.94 130.97,113.38 131.00,115.00
             131.06,118.37 130.40,128.25 132.02,130.69
             134.41,134.27 149.53,133.00 154.00,133.00 Z
           M 181.31,108.60
           C 188.28,106.91 193.84,106.61 194.00,115.00
             194.00,115.00 194.00,163.00 194.00,163.00
             194.00,164.99 194.23,168.81 192.98,170.33
             191.11,172.76 181.87,172.58 179.99,170.33
             178.75,168.72 179.00,164.94 179.00,163.00
             179.00,163.00 179.00,123.00 179.00,123.00
             179.00,118.49 177.60,111.73 181.31,108.60 Z
           M 254.00,171.00
           C 249.38,172.12 242.41,173.07 238.61,169.49
             233.97,165.12 230.40,151.38 224.91,149.66
             219.77,148.04 219.07,153.45 219.00,157.00
             218.79,168.58 221.10,172.60 210.00,171.96
             203.33,171.57 204.01,168.64 204.00,163.00
             204.00,163.00 204.00,108.07 204.00,108.07
             204.00,108.07 223.00,108.07 223.00,108.07
             223.00,108.07 236.00,108.07 236.00,108.07
             245.47,109.58 251.72,116.49 251.98,126.00
             252.12,131.04 251.92,134.61 249.03,138.96
             246.32,143.05 242.99,144.09 243.71,148.01
             244.52,152.34 252.36,162.26 254.00,171.00 Z
           M 263.31,108.60
           C 270.28,106.91 275.84,106.61 276.00,115.00
             276.00,115.00 276.00,163.00 276.00,163.00
             275.98,171.04 275.78,172.34 267.00,171.98
             260.29,171.70 261.01,168.71 261.00,163.00
             261.00,163.00 261.00,116.00 261.00,116.00
             261.02,112.43 260.49,110.98 263.31,108.60 Z
           M 322.00,144.00
           C 322.85,142.14 323.48,141.13 323.69,139.00
             323.69,139.00 323.00,118.00 323.00,118.00
             323.02,109.32 323.74,107.66 332.98,108.02
             338.97,108.25 338.92,110.66 339.00,116.00
             339.00,116.00 339.00,162.00 339.00,162.00
             338.99,164.54 339.32,168.48 337.40,170.40
             335.17,172.63 326.80,172.47 324.18,170.98
             322.22,169.85 321.00,167.85 319.81,166.00
             319.81,166.00 312.42,154.00 312.42,154.00
             308.98,148.44 304.62,141.87 302.00,136.00
             300.22,142.28 301.01,154.95 301.00,162.00
             301.00,164.19 301.21,167.84 299.98,169.69
             297.94,172.74 289.09,172.89 286.60,170.40
             284.68,168.48 285.01,164.54 285.00,162.00
             285.00,162.00 285.00,117.00 285.00,117.00
             285.01,114.92 284.84,111.26 286.17,109.57
             287.52,107.86 290.05,108.03 292.00,108.00
             299.59,107.89 300.78,108.41 304.94,115.00
             304.94,115.00 311.58,126.00 311.58,126.00
             314.47,130.67 320.23,139.36 322.00,144.00 Z
           M 446.00,125.00
           C 443.80,125.82 436.13,128.56 434.15,128.36
             429.78,127.93 430.49,119.91 432.60,117.50
             434.72,115.06 448.19,110.91 452.00,109.59
             454.02,108.89 457.23,107.54 459.21,108.97
             461.39,110.55 461.00,117.51 461.00,120.00
             461.00,120.00 461.00,162.00 461.00,162.00
             460.99,164.54 461.32,168.48 459.40,170.40
             457.33,172.48 448.92,172.80 447.02,170.40
             445.77,168.81 446.00,164.99 446.00,163.00
             446.00,163.00 446.00,125.00 446.00,125.00 Z
           M 499.09,119.73
           C 497.21,120.43 496.55,120.38 495.31,122.26
             491.90,127.41 492.87,144.73 493.72,151.00
             494.37,155.84 495.23,161.77 501.99,160.34
             508.37,158.99 507.99,152.07 508.00,147.00
             508.01,141.22 509.33,125.45 505.35,121.56
             503.40,119.65 501.59,119.70 499.09,119.73 Z
           M 219.00,120.00
           C 219.00,120.00 219.00,136.00 219.00,136.00
             222.30,136.00 230.19,136.39 232.88,135.15
             237.91,132.82 238.08,124.98 233.77,121.85
             230.40,119.40 223.14,120.00 219.00,120.00 Z
           M 604.31,138.81
           C 607.70,137.78 624.10,137.30 626.69,138.81
             629.68,141.02 629.68,146.98 626.69,148.98
             624.84,150.21 621.19,150.00 619.00,150.00
             616.27,150.01 606.22,150.34 604.31,149.40
             600.62,147.59 601.63,140.86 604.31,138.81 Z
           M 362.00,192.00
           C 368.57,192.74 373.00,195.93 375.81,202.00
             378.27,207.30 379.51,212.69 371.98,212.98
             369.52,213.08 365.73,213.31 363.92,211.40
             362.28,209.68 361.82,205.18 357.90,204.00
             354.19,202.88 350.81,206.05 350.74,209.01
             350.61,214.75 359.87,217.78 364.00,219.78
             373.29,224.30 380.16,232.14 377.24,243.00
             376.14,247.06 374.40,249.84 370.98,252.36
             367.64,254.83 365.02,255.57 361.00,256.00
             360.91,264.66 360.39,264.97 352.00,265.00
             351.93,262.47 352.08,259.57 350.26,257.56
             348.72,255.84 345.16,255.00 343.00,253.78
             338.43,251.19 331.19,241.94 333.61,236.43
             334.53,234.33 337.02,234.16 339.00,234.04
             350.37,233.41 346.20,239.68 352.11,242.98
             355.41,244.83 360.94,244.03 362.16,239.94
             363.80,234.41 356.92,231.31 353.00,229.58
             343.97,225.59 336.47,222.06 335.76,211.00
             335.33,204.27 337.39,198.67 343.02,194.65
             343.02,194.65 349.69,191.08 349.69,191.08
             352.66,188.71 351.44,185.71 353.60,183.60
             354.52,182.70 355.73,182.29 357.00,182.29
             362.49,182.29 361.99,188.17 362.00,192.00 Z
           M 250.00,191.33
           C 268.98,189.22 276.79,200.18 277.00,218.00
             277.16,231.98 278.48,252.16 261.00,256.32
             258.44,256.93 255.62,257.08 253.00,256.96
             240.69,256.42 235.26,248.09 233.00,237.00
             230.98,227.06 231.26,207.36 237.50,199.02
             240.83,194.55 244.73,192.59 250.00,191.33 Z
           M 300.00,191.18
           C 300.00,191.18 306.00,191.18 306.00,191.18
             324.47,191.79 326.71,206.08 327.26,221.00
             327.76,234.80 327.17,253.66 310.00,256.67
             288.53,260.44 282.14,243.92 282.71,226.00
             283.18,211.21 281.80,195.70 300.00,191.18 Z
           M 422.00,234.00
           C 422.00,237.56 422.69,252.23 420.98,254.33
             419.11,256.76 409.87,256.58 407.99,254.33
             406.75,252.72 407.00,248.94 407.00,247.00
             407.00,247.00 407.00,201.00 407.00,201.00
             407.02,192.08 407.87,191.05 417.00,191.00
             426.15,190.95 441.50,190.79 448.91,196.10
             461.22,204.93 460.08,225.03 446.00,231.48
             440.83,233.85 437.52,233.99 432.00,234.00
             432.00,234.00 422.00,234.00 422.00,234.00 Z
           M 200.00,209.00
           C 197.80,209.82 190.13,212.56 188.15,212.36
             183.78,211.93 184.49,203.91 186.60,201.50
             188.72,199.06 202.19,194.91 206.00,193.59
             208.03,192.89 211.30,191.51 213.26,193.01
             215.37,194.61 215.00,199.58 215.00,202.00
             215.00,202.00 215.00,246.00 215.00,246.00
             214.99,248.54 215.32,252.48 213.40,254.40
             211.33,256.48 202.92,256.80 201.02,254.40
             199.77,252.81 200.00,248.99 200.00,247.00
             200.00,247.00 200.00,209.00 200.00,209.00 Z
           M 466.31,192.60
           C 466.31,192.60 500.00,192.00 500.00,192.00
             501.82,192.01 504.92,191.85 506.40,193.02
             508.56,194.73 508.56,201.27 506.40,202.98
             504.28,204.66 492.27,203.99 489.00,204.00
             486.84,204.00 483.24,203.78 481.37,205.02
             478.40,207.11 478.18,213.89 481.37,215.98
             483.16,217.21 486.81,217.00 489.00,217.00
             491.78,217.01 500.47,216.50 502.40,218.02
             504.56,219.73 504.56,226.27 502.40,227.98
             500.81,229.23 496.99,229.00 495.00,229.00
             491.96,229.01 483.59,228.51 481.37,230.02
             478.04,232.20 478.25,240.79 481.37,242.98
             483.83,244.63 495.52,243.99 499.00,244.00
             500.99,244.00 504.81,243.77 506.40,245.02
             508.56,246.73 508.56,253.27 506.40,254.98
             505.06,256.04 502.62,255.97 501.00,256.00
             501.00,256.00 473.00,256.00 473.00,256.00
             470.70,256.00 466.59,256.38 465.02,254.40
             463.52,252.51 464.00,244.66 464.00,242.00
             464.00,242.00 464.00,210.00 464.00,210.00
             464.00,205.19 462.54,195.78 466.31,192.60 Z
           M 564.00,255.00
           C 559.27,255.84 552.35,256.95 548.39,253.48
             544.06,249.69 540.11,235.54 534.90,233.79
             529.22,231.90 529.03,238.36 529.00,242.00
             528.98,245.15 529.65,252.15 527.40,254.40
             524.91,256.90 516.22,256.75 514.17,253.69
             512.78,251.59 513.00,247.48 513.00,245.00
             513.00,245.00 513.00,210.00 513.00,210.00
             513.00,206.91 512.61,196.53 513.74,194.29
             515.10,191.59 518.43,192.02 521.00,192.00
             521.00,192.00 539.00,192.00 539.00,192.00
             542.70,192.01 545.39,191.90 549.00,193.06
             559.68,196.49 564.36,207.54 561.20,218.00
             558.87,225.70 553.46,226.89 553.29,231.01
             553.21,233.05 555.75,237.10 556.77,239.00
             559.69,244.46 562.35,248.95 564.00,255.00 Z
           M 254.04,203.66
           C 251.86,204.17 250.69,204.23 249.31,206.28
             246.37,210.63 246.60,229.51 247.43,235.00
             248.08,239.36 249.50,244.55 254.99,244.55
             261.88,244.55 261.99,235.83 262.00,231.00
             262.01,225.15 263.34,209.51 259.35,205.51
             257.56,203.71 256.34,203.81 254.04,203.66 Z
           M 304.01,203.76
           C 301.30,204.68 299.93,205.16 298.74,208.05
             297.87,210.16 298.00,213.69 298.11,216.00
             298.11,216.00 298.11,238.00 298.11,238.00
             298.92,241.79 301.79,245.17 305.99,244.46
             312.15,243.43 311.99,236.77 312.00,232.00
             312.01,226.74 313.08,209.87 310.26,206.28
             308.40,203.90 306.74,203.83 304.01,203.76 Z
           M 422.00,204.00
           C 422.00,207.07 421.37,218.26 422.99,220.26
             424.46,222.08 427.88,222.03 430.00,221.91
             433.09,221.73 438.02,221.05 440.11,218.57
             443.29,214.81 442.37,206.78 435.96,204.65
             433.87,203.96 431.19,204.01 429.00,204.00
             429.00,204.00 422.00,204.00 422.00,204.00 Z
           M 529.00,204.00
           C 529.00,204.00 529.00,220.00 529.00,220.00
             532.35,220.00 540.21,220.49 542.88,218.98
             548.03,216.09 547.97,208.39 542.88,205.45
             539.48,203.50 532.96,204.00 529.00,204.00 Z
           M 340.00,275.29
           C 346.47,274.67 352.22,275.05 358.00,278.36
             367.07,283.56 371.87,293.81 371.84,304.00
             371.84,304.00 371.84,317.00 371.84,317.00
             369.20,331.80 358.09,341.57 343.00,340.96
             312.24,339.72 309.78,296.15 326.17,281.48
             330.49,277.61 334.44,276.26 340.00,275.29 Z
           M 272.00,301.00
           C 272.00,301.00 294.00,301.00 294.00,301.00
             294.00,301.00 294.00,285.00 294.00,285.00
             294.00,283.01 293.77,279.19 295.02,277.59
             296.82,275.32 307.02,275.27 308.83,277.59
             310.25,279.38 310.00,283.74 310.00,286.00
             310.00,286.00 310.00,330.00 310.00,330.00
             310.00,332.19 310.21,335.84 308.98,337.69
             307.07,340.55 297.31,341.14 295.17,338.43
             293.96,336.88 294.03,333.89 294.00,332.00
             294.00,332.00 294.00,314.00 294.00,314.00
             294.00,314.00 272.00,314.00 272.00,314.00
             272.00,314.00 272.00,330.00 272.00,330.00
             271.99,332.54 272.32,336.48 270.40,338.40
             268.56,340.25 264.47,340.08 262.02,339.98
             256.03,339.75 256.08,337.34 256.00,332.00
             256.00,332.00 256.00,285.00 256.00,285.00
             256.00,283.01 255.77,279.19 257.02,277.59
             258.82,275.32 269.02,275.27 270.83,277.59
             272.04,279.12 271.97,282.11 272.00,284.00
             272.00,284.00 272.00,301.00 272.00,301.00 Z
           M 381.17,276.56
           C 383.93,275.98 391.02,275.12 392.98,277.60
             394.40,279.40 394.00,285.59 394.00,288.00
             394.00,288.00 394.00,314.00 394.00,314.00
             394.01,317.40 393.74,320.99 395.74,323.94
             399.18,329.02 407.44,329.41 411.28,324.66
             414.05,321.23 413.99,315.20 414.00,311.00
             414.00,311.00 414.00,285.00 414.00,285.00
             414.00,283.29 413.87,279.79 414.60,278.31
             416.18,275.10 425.92,275.16 428.01,277.74
             429.25,279.28 429.00,283.06 429.00,285.00
             429.00,285.00 429.00,314.00 429.00,314.00
             428.99,319.73 428.75,326.12 425.35,331.00
             416.83,343.23 394.45,344.84 384.21,333.90
             375.58,324.67 377.96,299.51 378.00,287.00
             378.01,282.60 377.12,279.09 381.17,276.56 Z
           M 487.00,339.00
           C 482.80,339.75 476.02,341.13 472.39,338.26
             468.08,334.87 464.20,320.03 457.96,317.60
             456.25,316.93 453.83,317.02 452.00,317.00
             452.00,317.00 452.00,331.00 452.00,331.00
             452.00,332.94 452.25,336.72 451.01,338.26
             449.46,340.18 445.26,340.09 443.00,339.96
             436.85,339.60 437.03,337.36 437.00,332.00
             437.00,332.00 437.00,285.00 437.00,285.00
             437.00,283.01 436.77,279.19 438.02,277.60
             440.00,275.10 451.61,276.00 455.00,276.13
             455.00,276.13 470.00,276.13 470.00,276.13
             478.59,277.81 484.99,285.45 485.80,294.00
             486.19,298.06 484.57,303.63 482.30,306.99
             479.94,310.48 476.74,312.01 476.81,315.09
             476.91,319.70 486.11,331.10 487.00,339.00 Z
           M 340.00,288.74
           C 332.82,292.61 332.04,298.48 332.00,306.00
             331.98,310.29 331.68,314.91 333.11,319.00
             335.50,325.87 341.74,330.17 348.98,327.15
             355.76,324.33 356.36,316.37 356.82,310.00
             357.04,306.90 356.53,304.99 356.15,302.00
             354.90,291.90 351.18,286.04 340.00,288.74 Z
           M 452.00,288.00
           C 452.00,288.00 452.00,304.00 452.00,304.00
             455.37,304.00 464.25,304.52 466.85,302.98
             471.28,300.36 470.83,292.65 466.85,289.85
             463.38,287.41 456.21,288.00 452.00,288.00 Z
           M 499.02,325.43
           C 511.38,323.97 511.85,337.70 503.00,339.67
             494.44,341.58 488.17,329.92 499.02,325.43 Z
           M 69.23,371.60
           C 74.15,370.45 85.38,371.00 91.00,371.00
             91.00,371.00 133.00,371.00 133.00,371.00
             133.00,371.00 266.00,371.00 266.00,371.00
             266.00,371.00 689.00,371.00 689.00,371.00
             691.45,371.00 695.52,370.76 697.63,372.17
             700.38,374.11 700.60,379.03 697.63,380.98
             695.84,382.21 692.18,382.00 690.00,382.00
             690.00,382.00 223.00,382.00 223.00,382.00
             223.00,382.00 102.00,382.00 102.00,382.00
             102.00,382.00 73.00,382.00 73.00,382.00
             63.81,381.84 64.86,374.76 69.23,371.60 Z
           M 149.00,417.00
           C 149.00,417.00 156.00,416.00 156.00,416.00
             151.43,425.78 156.03,422.07 155.00,430.00
             155.00,430.00 149.00,426.00 149.00,426.00
             147.92,429.01 147.96,428.81 145.00,430.00
             143.49,424.68 143.49,415.32 145.00,410.00
             149.19,411.68 148.86,412.72 149.00,417.00 Z
           M 297.82,411.45
           C 300.76,414.12 300.48,421.13 299.85,424.98
             299.62,426.45 298.66,429.49 296.52,428.51
             294.72,427.69 295.01,423.63 295.00,422.00
             294.98,418.81 293.64,411.84 297.82,411.45 Z
           M 573.82,411.45
           C 576.76,414.12 576.48,421.13 575.85,424.98
             575.62,426.45 574.66,429.49 572.52,428.51
             570.72,427.69 571.01,423.63 571.00,422.00
             570.98,418.81 569.64,411.84 573.82,411.45 Z
           M 117.00,421.00
           C 117.00,421.00 119.00,421.00 119.00,421.00
             119.56,418.60 122.09,409.11 126.28,412.05
             128.44,413.57 128.01,419.56 128.00,422.00
             127.95,431.43 123.54,430.80 123.00,424.00
             119.53,429.34 116.69,431.60 114.00,424.00
             108.80,437.57 106.74,419.38 108.43,414.13
             110.19,408.65 114.01,412.89 115.38,416.02
             115.38,416.02 117.00,421.00 117.00,421.00 Z
           M 188.00,422.00
           C 189.27,419.70 192.11,412.40 194.33,411.72
             197.90,410.63 197.96,415.91 198.00,418.00
             198.08,422.54 198.26,425.58 197.00,430.00
             197.00,430.00 195.00,430.00 195.00,430.00
             195.00,430.00 194.00,424.00 194.00,424.00
             194.00,424.00 187.00,430.00 187.00,430.00
             187.00,430.00 185.00,425.00 185.00,425.00
             176.95,437.52 178.23,413.52 180.58,412.17
             182.33,411.16 184.00,412.85 184.93,414.15
             184.93,414.15 186.38,417.00 186.38,417.00
             186.38,417.00 188.00,422.00 188.00,422.00 Z
           M 269.02,411.47
           C 282.29,410.72 280.71,427.97 272.00,429.64
             262.73,431.42 258.55,415.63 269.02,411.47 Z
           M 305.00,411.00
           C 306.51,416.31 306.51,424.69 305.00,430.00
             305.00,430.00 303.00,430.00 303.00,430.00
             301.36,424.22 301.73,416.87 303.00,411.00
             303.00,411.00 305.00,411.00 305.00,411.00 Z
           M 346.43,411.57
           C 349.54,410.82 353.99,410.42 356.22,413.31
             357.27,414.66 361.13,428.58 352.00,429.85
             340.44,431.46 343.97,414.82 344.74,413.29
             345.51,411.77 345.71,412.19 346.43,411.57 Z
           M 391.00,411.00
           C 392.04,415.30 393.03,423.08 390.26,426.85
             387.02,431.28 380.36,431.29 379.00,423.00
             379.00,423.00 386.00,426.00 386.00,426.00
             388.39,416.18 384.75,413.19 391.00,411.00 Z
           M 440.31,411.60
           C 453.85,408.48 454.83,425.06 447.94,428.83
             446.52,429.60 444.63,429.94 443.02,429.90
             437.25,429.75 438.01,425.36 438.00,421.00
             438.00,419.14 437.83,414.88 438.60,413.31
             439.34,411.79 439.56,412.24 440.31,411.60 Z
           M 473.00,411.00
           C 473.91,417.30 474.76,423.79 473.00,430.00
             466.54,426.36 469.19,416.93 471.00,411.00
             471.00,411.00 473.00,411.00 473.00,411.00 Z
           M 526.00,417.00
           C 526.00,417.00 525.00,418.00 525.00,418.00
             525.00,418.00 517.00,416.00 517.00,416.00
             519.60,417.80 524.41,420.01 525.34,423.03
             527.74,430.87 511.69,433.47 513.00,423.03
             513.00,423.03 521.00,426.00 521.00,426.00
             517.22,421.43 513.80,421.01 512.84,417.90
             511.49,413.47 516.14,410.79 519.99,411.27
             523.79,411.74 524.83,413.76 526.00,417.00 Z
           M 531.00,411.00
           C 532.40,416.42 532.52,424.65 531.00,430.00
             531.00,430.00 529.00,430.00 529.00,430.00
             527.49,424.69 527.49,416.31 529.00,411.00
             529.00,411.00 531.00,411.00 531.00,411.00 Z
           M 601.43,411.57
           C 614.31,408.58 617.86,424.25 608.96,428.98
             597.18,435.23 596.77,415.59 601.43,411.57 Z
           M 429.00,428.89
           C 427.33,429.29 426.12,429.81 424.48,428.89
             421.95,427.19 420.64,417.64 422.06,415.19
             423.92,411.98 428.04,413.15 428.31,417.04
             428.63,421.65 425.82,418.69 429.00,428.89 Z
           M 637.00,428.93
           C 635.63,429.17 634.76,429.65 633.31,428.93
             631.13,427.69 628.97,417.41 630.12,415.32
             631.59,412.67 636.03,413.03 636.31,417.06
             636.64,421.62 633.82,418.69 637.00,428.93 Z
           M 134.15,415.62
           C 144.53,414.11 142.96,427.82 139.69,429.64
             138.70,429.88 137.08,429.95 136.00,429.64
             128.00,429.31 129.12,419.05 134.15,415.62 Z
           M 162.00,424.00
           C 162.00,424.00 162.00,426.00 162.00,426.00
             162.00,426.00 169.00,425.00 169.00,425.00
             168.57,426.35 168.55,427.29 167.41,428.40
             166.23,429.53 164.62,429.88 163.04,429.72
             154.87,428.88 155.83,415.14 163.99,415.37
             165.27,415.41 166.59,415.91 167.57,416.74
             168.53,417.56 169.25,418.72 169.42,419.99
             170.03,424.37 164.83,423.96 162.00,424.00 Z
           M 205.06,415.64
           C 217.82,414.25 215.04,431.83 205.06,429.53
             199.93,428.33 197.17,419.93 205.06,415.64 Z
           M 222.00,419.00
           C 219.10,424.49 220.52,427.42 218.48,428.60
             215.54,430.29 215.08,425.65 215.02,423.98
             214.87,420.20 214.35,415.85 219.06,415.15
             224.19,414.38 227.41,416.86 227.89,422.00
             228.07,423.90 227.99,427.73 225.82,428.55
             222.69,429.73 222.48,420.97 222.00,419.00 Z
           M 234.00,424.00
           C 234.00,424.00 234.00,426.00 234.00,426.00
             234.00,426.00 241.00,425.00 241.00,425.00
             240.57,426.35 240.55,427.29 239.41,428.40
             238.23,429.53 236.62,429.88 235.04,429.72
             226.87,428.88 227.83,415.14 235.99,415.37
             237.27,415.41 238.59,415.91 239.57,416.74
             240.53,417.56 241.25,418.72 241.42,419.99
             242.03,424.37 236.83,423.96 234.00,424.00 Z
           M 249.00,420.00
           C 249.00,420.00 251.00,415.00 251.00,415.00
             251.00,415.00 255.00,416.00 255.00,416.00
             253.86,419.91 250.94,431.83 247.59,433.89
             245.85,434.79 244.75,434.30 243.00,433.89
             243.00,433.89 245.33,427.00 245.33,427.00
             245.33,427.00 243.00,415.00 243.00,415.00
             246.75,416.23 246.81,416.78 249.00,420.00 Z
           M 288.00,419.00
           C 283.26,423.81 286.03,426.09 284.03,428.12
             282.67,429.48 281.20,428.16 280.59,426.81
             280.04,425.57 280.00,423.36 280.02,422.00
             280.08,416.91 281.33,414.33 286.99,415.15
             291.95,415.87 293.01,419.54 292.97,423.98
             292.96,425.31 292.93,427.85 291.48,428.51
             287.48,430.34 288.00,420.70 288.00,419.00 Z
           M 316.01,419.00
           C 312.69,422.59 313.05,424.33 313.00,429.00
             313.00,429.00 309.00,429.00 309.00,429.00
             309.00,429.00 309.00,415.00 309.00,415.00
             311.96,415.00 316.31,414.60 318.69,416.60
             320.91,418.47 322.15,425.96 320.03,428.12
             317.11,431.08 316.08,424.48 316.01,423.00
             316.01,423.00 316.01,419.00 316.01,419.00 Z
           M 328.00,426.00
           C 328.00,426.00 335.00,426.00 335.00,426.00
             328.78,435.13 318.84,425.48 324.01,418.23
             328.55,411.86 336.52,417.51 334.75,421.69
             333.95,423.59 330.86,423.84 328.00,426.00 Z
           M 364.00,420.00
           C 364.00,420.00 371.00,415.00 371.00,415.00
             370.64,419.27 368.68,427.30 366.56,430.97
             364.30,434.84 361.65,435.65 360.00,430.97
             364.36,425.93 359.89,424.75 359.00,415.00
             362.96,415.68 363.11,416.12 364.00,420.00 Z
           M 397.00,415.00
           C 397.00,415.00 398.00,426.00 398.00,426.00
             402.89,423.06 401.41,420.53 403.00,415.00
             403.00,415.00 404.99,415.00 404.99,415.00
             405.84,417.96 407.00,425.84 404.99,428.40
             402.66,431.32 396.23,429.98 394.87,426.77
             393.26,423.60 394.08,418.23 394.87,415.00
             394.87,415.00 397.00,415.00 397.00,415.00 Z
           M 408.00,425.00
           C 408.00,425.00 409.00,424.00 409.00,424.00
             409.00,424.00 415.00,426.00 415.00,426.00
             412.91,424.62 408.82,422.74 408.74,419.91
             408.63,415.88 414.50,413.74 417.39,416.60
             418.72,417.90 418.78,419.86 419.07,421.58
             420.86,432.21 410.76,432.15 408.00,425.00 Z
           M 459.02,415.64
           C 469.41,414.51 470.09,426.81 462.96,429.39
             455.65,432.03 449.39,420.91 459.02,415.64 Z
           M 486.99,430.00
           C 486.99,430.00 485.00,430.00 485.00,430.00
             485.00,430.00 484.00,419.00 484.00,419.00
             477.99,425.09 484.10,427.15 477.09,430.00
             476.11,426.86 475.01,419.32 477.09,416.57
             479.18,414.02 485.26,414.73 486.99,417.31
             488.92,420.22 487.90,426.83 486.99,430.00 Z
           M 491.00,433.00
           C 492.80,425.50 489.41,426.61 490.24,421.02
             491.31,413.85 500.07,414.19 501.98,416.60
             503.28,418.24 503.02,422.89 503.00,425.00
             502.88,433.79 499.39,436.86 491.00,433.00 Z
           M 551.00,430.00
           C 551.00,430.00 549.00,419.00 549.00,419.00
             545.06,426.48 549.08,427.56 543.00,430.00
             543.00,430.00 542.00,419.00 542.00,419.00
             537.11,423.96 540.14,427.30 537.48,428.51
             535.75,429.30 534.68,427.26 534.31,425.93
             533.47,422.87 533.49,416.39 537.23,415.29
             539.05,414.76 550.22,415.12 551.70,416.04
             554.64,417.86 557.49,426.34 551.00,430.00 Z
           M 561.00,430.00
           C 560.38,433.54 560.42,433.80 557.00,435.00
             556.19,431.69 556.04,430.41 556.00,427.00
             556.00,427.00 556.00,423.00 556.00,423.00
             556.03,421.37 556.00,418.75 556.74,417.29
             558.23,414.34 563.38,414.59 565.87,416.02
             570.67,418.78 570.67,426.21 565.87,428.98
             564.27,429.90 562.75,429.86 561.00,430.00 Z
           M 582.00,424.00
           C 582.00,424.00 590.00,426.00 590.00,426.00
             589.19,427.18 588.91,427.99 587.59,428.83
             579.10,434.21 573.89,418.79 582.06,415.76
             586.82,413.99 590.57,418.46 589.34,421.69
             588.33,424.35 584.29,423.97 582.00,424.00 Z
           M 620.11,415.45
           C 621.95,415.30 623.01,414.97 624.77,416.03
             628.40,418.18 631.44,431.34 621.02,429.85
             614.13,428.86 614.54,418.08 620.11,415.45 Z
           M 638.88,417.00
           C 640.61,416.32 642.22,415.51 644.00,415.37
             652.41,414.76 651.59,426.31 650.01,428.26
             648.12,430.59 639.62,431.32 638.88,424.98
             638.88,424.98 638.88,417.00 638.88,417.00 Z
           M 270.22,416.05
           C 265.45,419.09 268.26,426.63 271.74,424.83
             274.24,423.54 275.50,417.03 270.22,416.05 Z
           M 349.00,418.00
           C 349.00,418.00 353.00,418.00 353.00,418.00
             353.00,418.00 352.00,415.00 352.00,415.00
             352.00,415.00 349.00,418.00 349.00,418.00 Z
           M 443.00,415.00
           C 443.00,415.00 442.00,426.00 442.00,426.00
             449.65,424.72 450.06,417.62 443.00,415.00 Z
           M 604.00,415.00
           C 604.00,415.00 604.00,426.00 604.00,426.00
             610.78,423.83 610.57,417.44 604.00,415.00 Z
           M 135.00,419.00
           C 135.00,419.00 135.00,420.00 135.00,420.00
             135.00,420.00 136.00,419.00 136.00,419.00
             136.00,419.00 135.00,419.00 135.00,419.00 Z
           M 163.00,419.00
           C 163.00,419.00 163.00,420.00 163.00,420.00
             163.00,420.00 164.00,419.00 164.00,419.00
             164.00,419.00 163.00,419.00 163.00,419.00 Z
           M 206.00,419.00
           C 206.00,419.00 206.00,426.00 206.00,426.00
             206.00,426.00 208.00,426.00 208.00,426.00
             208.00,426.00 208.00,419.00 208.00,419.00
             208.00,419.00 206.00,419.00 206.00,419.00 Z
           M 235.00,419.00
           C 235.00,419.00 235.00,420.00 235.00,420.00
             235.00,420.00 236.00,419.00 236.00,419.00
             236.00,419.00 235.00,419.00 235.00,419.00 Z
           M 460.00,419.00
           C 460.00,419.00 460.00,426.00 460.00,426.00
             460.00,426.00 462.00,426.00 462.00,426.00
             462.00,426.00 462.00,419.00 462.00,419.00
             462.00,419.00 460.00,419.00 460.00,419.00 Z
           M 496.00,419.00
           C 494.65,422.84 494.39,423.76 498.00,426.00
             498.00,426.00 498.00,419.00 498.00,419.00
             498.00,419.00 496.00,419.00 496.00,419.00 Z
           M 562.00,419.00
           C 562.00,419.00 562.00,426.00 562.00,426.00
             562.00,426.00 564.00,426.00 564.00,426.00
             564.00,426.00 564.00,419.00 564.00,419.00
             564.00,419.00 562.00,419.00 562.00,419.00 Z
           M 584.00,419.00
           C 584.00,419.00 584.00,420.00 584.00,420.00
             584.00,420.00 585.00,419.00 585.00,419.00
             585.00,419.00 584.00,419.00 584.00,419.00 Z
           M 349.00,422.00
           C 349.00,422.00 349.00,426.00 349.00,426.00
             349.00,426.00 353.00,426.00 353.00,426.00
             353.00,426.00 353.00,422.00 353.00,422.00
             353.00,422.00 349.00,422.00 349.00,422.00 Z
           M 344.91,439.33
           C 347.79,440.44 354.00,445.02 355.09,448.02
             357.25,453.91 351.99,459.18 346.06,457.68
             344.74,457.35 343.79,456.85 343.01,455.69
             341.59,453.54 341.49,442.49 343.01,440.42
             343.91,439.18 344.71,439.42 344.91,439.33 Z
           M 259.00,439.00
           C 259.00,439.00 259.00,443.00 259.00,443.00
             259.00,443.00 252.00,443.00 252.00,443.00
             252.00,443.00 252.00,446.00 252.00,446.00
             252.00,446.00 259.00,447.00 259.00,447.00
             259.00,447.00 259.00,449.00 259.00,449.00
             259.00,449.00 251.00,450.00 251.00,450.00
             251.00,450.00 252.00,454.00 252.00,454.00
             252.00,454.00 260.00,455.00 260.00,455.00
             260.00,455.00 260.00,457.00 260.00,457.00
             258.01,457.57 257.12,457.84 255.00,457.95
             245.13,458.50 247.00,454.84 247.00,439.00
             247.00,439.00 259.00,439.00 259.00,439.00 Z
           M 325.00,439.00
           C 325.00,442.48 325.54,452.22 323.98,454.85
             321.97,458.25 313.82,460.99 313.00,451.00
             313.00,451.00 320.00,454.00 320.00,454.00
             320.00,454.00 321.00,439.00 321.00,439.00
             321.00,439.00 325.00,439.00 325.00,439.00 Z
           M 390.00,439.00
           C 390.00,439.00 390.00,443.00 390.00,443.00
             385.78,443.15 385.08,442.96 382.00,446.00
             382.00,446.00 389.00,447.00 389.00,447.00
             389.00,447.00 389.00,449.00 389.00,449.00
             389.00,449.00 382.00,450.00 382.00,450.00
             382.00,450.00 381.00,458.00 381.00,458.00
             381.00,458.00 379.00,458.00 379.00,458.00
             378.06,454.69 376.73,442.29 379.60,440.02
             381.40,438.60 387.59,439.00 390.00,439.00 Z
           M 449.00,439.00
           C 449.00,439.00 450.00,446.00 450.00,446.00
             450.00,446.00 456.00,446.00 456.00,446.00
             456.00,446.00 457.00,439.00 457.00,439.00
             458.23,439.43 459.05,439.38 460.00,440.59
             461.35,442.40 461.59,454.53 460.00,456.12
             456.72,459.47 456.05,451.36 456.00,450.00
             456.00,450.00 450.00,450.00 450.00,450.00
             450.00,450.00 449.00,458.00 449.00,458.00
             449.00,458.00 447.00,458.00 447.00,458.00
             445.49,452.69 445.49,444.31 447.00,439.00
             447.00,439.00 449.00,439.00 449.00,439.00 Z
           M 283.00,456.89
           C 281.33,457.29 280.12,457.81 278.48,456.89
             275.95,455.19 274.64,445.64 276.06,443.19
             277.92,439.98 282.04,441.15 282.31,445.04
             282.63,449.65 279.82,446.69 283.00,456.89 Z
           M 268.00,447.00
           C 265.10,452.49 266.52,455.42 264.48,456.60
             262.90,457.51 261.72,456.18 261.29,454.76
             259.61,449.21 260.86,442.12 267.99,443.15
             276.00,444.31 274.64,455.48 271.82,456.55
             268.69,457.73 268.48,448.97 268.00,447.00 Z
           M 299.00,448.00
           C 300.94,444.38 300.85,443.71 305.00,443.00
             304.60,447.40 301.85,458.40 298.50,461.26
             297.01,462.54 295.79,462.61 294.00,463.00
             295.54,450.94 296.10,460.63 294.00,447.00
             291.32,447.86 290.19,448.07 289.31,451.05
             288.87,452.56 289.16,455.75 287.48,456.51
             284.95,457.67 284.19,453.56 284.06,451.99
             283.49,445.18 284.78,442.47 292.00,443.06
             293.34,443.17 294.55,443.30 295.73,444.02
             297.38,445.03 298.03,446.45 299.00,448.00 Z
           M 332.05,443.62
           C 342.39,442.17 343.06,454.91 335.96,457.38
             329.11,459.76 322.76,449.09 332.05,443.62 Z
           M 359.00,452.00
           C 358.43,450.68 357.71,449.55 357.73,448.02
             357.78,444.04 362.54,442.14 365.68,444.18
             369.08,446.38 369.40,455.71 364.94,457.39
             361.34,458.74 355.11,455.84 359.00,452.00 Z
           M 400.00,444.00
           C 400.00,444.00 396.97,449.28 396.97,449.28
             396.97,449.28 395.00,458.00 395.00,458.00
             395.00,458.00 393.00,458.00 393.00,458.00
             391.08,451.24 389.79,441.19 400.00,444.00 Z
           M 406.04,443.47
           C 416.59,442.97 415.79,456.02 408.98,457.53
             401.09,459.28 397.26,447.16 406.04,443.47 Z
           M 435.00,458.00
           C 435.00,458.00 433.00,458.00 433.00,458.00
             433.00,458.00 432.00,448.00 432.00,448.00
             432.00,448.00 428.00,448.00 428.00,448.00
             428.00,448.00 427.00,458.00 427.00,458.00
             427.00,458.00 425.00,458.00 425.00,458.00
             425.00,458.00 424.00,448.00 424.00,448.00
             424.00,448.00 420.00,448.00 420.00,448.00
             420.00,448.00 419.00,458.00 419.00,458.00
             419.00,458.00 417.09,458.00 417.09,458.00
             416.11,454.87 415.01,447.31 417.09,444.57
             419.01,442.25 424.28,443.28 427.00,443.30
             437.11,443.35 437.37,449.65 435.00,458.00 Z
           M 468.04,443.47
           C 478.59,442.97 477.79,456.02 470.98,457.53
             463.09,459.28 459.26,447.16 468.04,443.47 Z
           M 497.00,458.00
           C 497.00,458.00 495.00,458.00 495.00,458.00
             495.00,458.00 493.00,447.00 493.00,447.00
             493.00,447.00 489.00,458.00 489.00,458.00
             489.00,458.00 487.00,458.00 487.00,458.00
             487.00,458.00 485.00,447.00 485.00,447.00
             481.06,454.48 485.08,455.56 479.00,458.00
             477.84,453.93 476.11,444.00 482.11,443.15
             484.51,442.81 494.80,443.20 496.40,444.74
             499.11,447.35 497.92,454.77 497.00,458.00 Z
           M 513.00,451.00
           C 513.00,451.00 505.00,452.00 505.00,452.00
             505.00,452.00 505.00,454.00 505.00,454.00
             505.00,454.00 512.00,454.00 512.00,454.00
             507.78,460.20 501.19,458.07 500.24,451.98
             499.42,446.70 504.09,440.62 509.58,444.18
             511.87,445.66 512.41,448.56 513.00,451.00 Z
           M 333.00,447.00
           C 331.96,451.11 331.72,452.50 336.00,454.00
             336.00,454.00 335.00,447.00 335.00,447.00
             335.00,447.00 333.00,447.00 333.00,447.00 Z
           M 348.00,447.00
           C 348.00,447.00 348.00,454.00 348.00,454.00
             348.00,454.00 350.00,454.00 350.00,454.00
             350.00,454.00 350.00,447.00 350.00,447.00
             350.00,447.00 348.00,447.00 348.00,447.00 Z
           M 406.00,447.00
           C 406.00,447.00 406.00,454.00 406.00,454.00
             411.08,452.22 410.83,448.94 406.00,447.00 Z
           M 468.00,447.00
           C 468.00,447.00 468.00,454.00 468.00,454.00
             473.08,452.22 472.83,448.94 468.00,447.00 Z
           M 506.00,447.00
           C 506.00,447.00 506.00,448.00 506.00,448.00
             506.00,448.00 507.00,447.00 507.00,447.00
             507.00,447.00 506.00,447.00 506.00,447.00 Z
           M 360.00,452.00
           C 360.00,452.00 364.00,454.00 364.00,454.00
             364.00,454.00 360.00,452.00 360.00,452.00 Z
           M 519.00,455.00
           C 519.00,455.00 519.00,457.00 519.00,457.00
             519.00,457.00 514.00,457.00 514.00,457.00
             514.00,457.00 514.00,455.00 514.00,455.00
             514.00,455.00 519.00,455.00 519.00,455.00 Z" />
</svg>
