<?xml version="1.0" encoding="UTF-8" standalone="no"?>
<!DOCTYPE svg PUBLIC "-//W3C//DTD SVG 20010904//EN"
              "http://www.w3.org/TR/2001/REC-SVG-20010904/DTD/svg10.dtd">

<svg xmlns="http://www.w3.org/2000/svg"

					viewBox="0 0 767 551">
  <path id="Selection"
        fill="#00A591" stroke="none" stroke-width="0"
        d="M 0.00,0.00
           C 0.00,0.00 0.00,551.00 0.00,551.00
             0.00,551.00 767.00,551.00 767.00,551.00
             767.00,551.00 767.00,0.00 767.00,0.00
             767.00,0.00 0.00,0.00 0.00,0.00 Z
           M 130.00,37.00
           C 130.00,37.00 134.00,20.00 134.00,20.00
             134.00,20.00 140.00,20.00 140.00,20.00
             140.00,20.00 143.00,37.00 143.00,37.00
             143.00,37.00 147.00,20.00 147.00,20.00
             147.00,20.00 153.00,20.00 153.00,20.00
             153.00,20.00 149.12,38.00 149.12,38.00
             149.12,38.00 146.42,44.98 146.42,44.98
             146.42,44.98 141.00,46.00 141.00,46.00
             141.00,46.00 138.00,31.00 138.00,31.00
             134.70,36.75 134.57,43.24 132.28,45.00
             129.32,47.28 126.93,44.74 126.05,41.95
             126.05,41.95 121.00,20.00 121.00,20.00
             122.67,20.05 124.87,19.89 126.27,20.99
             128.66,22.89 129.85,33.80 130.00,37.00 Z
           M 163.00,20.43
           C 166.43,19.92 169.87,19.64 172.89,21.74
             180.92,27.29 180.14,47.36 165.00,45.89
             152.86,44.71 150.75,25.31 163.00,20.43 Z
           M 202.00,46.00
           C 190.03,45.58 196.98,38.71 187.00,37.00
             187.00,37.00 187.00,46.00 187.00,46.00
             187.00,46.00 181.00,46.00 181.00,46.00
             181.00,46.00 181.00,20.00 181.00,20.00
             186.24,20.00 195.96,18.76 199.40,23.23
             203.39,28.40 198.39,33.85 198.46,36.42
             198.46,36.42 202.00,46.00 202.00,46.00 Z
           M 211.00,20.00
           C 211.00,20.00 211.00,31.00 211.00,31.00
             216.74,22.92 217.05,20.03 227.00,20.00
             227.00,20.00 219.51,31.00 219.51,31.00
             219.51,31.00 227.00,46.00 227.00,46.00
             218.58,45.89 217.63,43.43 214.00,36.00
             210.96,40.30 211.07,40.87 211.00,46.00
             211.00,46.00 205.00,46.00 205.00,46.00
             205.00,46.00 205.00,20.00 205.00,20.00
             205.00,20.00 211.00,20.00 211.00,20.00 Z
           M 256.00,20.00
           C 256.00,20.00 256.00,25.00 256.00,25.00
             256.00,25.00 244.00,25.00 244.00,25.00
             244.00,25.00 244.00,31.00 244.00,31.00
             244.00,31.00 255.00,31.00 255.00,31.00
             253.86,37.47 249.67,36.00 244.00,36.00
             244.00,36.00 244.00,46.00 244.00,46.00
             244.00,46.00 238.00,46.00 238.00,46.00
             238.00,46.00 238.00,20.00 238.00,20.00
             238.00,20.00 256.00,20.00 256.00,20.00 Z
           M 273.97,35.00
           C 273.97,35.00 280.00,46.00 280.00,46.00
             278.03,45.98 275.32,46.18 273.63,45.01
             269.89,42.40 272.08,39.20 265.00,37.00
             265.00,37.00 265.00,46.00 265.00,46.00
             265.00,46.00 259.00,46.00 259.00,46.00
             259.00,46.00 259.00,20.00 259.00,20.00
             262.34,20.00 271.28,19.64 273.97,20.74
             279.92,23.20 280.46,30.72 273.97,35.00 Z
           M 290.00,20.43
           C 294.28,19.82 298.24,20.00 301.43,23.39
             307.24,29.56 305.58,42.60 296.99,45.35
             281.32,50.37 275.55,26.17 290.00,20.43 Z
           M 322.00,38.00
           C 322.00,38.00 329.51,21.02 329.51,21.02
             329.51,21.02 337.00,20.00 337.00,20.00
             337.00,20.00 337.00,46.00 337.00,46.00
             337.00,46.00 331.00,46.00 331.00,46.00
             331.00,46.00 331.00,30.00 331.00,30.00
             331.00,30.00 325.00,46.00 325.00,46.00
             323.49,45.88 322.00,45.98 320.70,45.01
             318.24,43.18 315.71,34.12 315.00,31.00
             315.00,31.00 314.00,46.00 314.00,46.00
             314.00,46.00 308.00,46.00 308.00,46.00
             308.00,46.00 308.00,20.00 308.00,20.00
             310.05,20.01 313.63,19.74 315.30,20.99
             317.58,22.70 321.27,34.82 322.00,38.00 Z
           M 356.00,20.00
           C 356.00,20.00 356.00,30.00 356.00,30.00
             356.00,30.00 366.00,30.00 366.00,30.00
             366.00,30.00 366.00,20.00 366.00,20.00
             366.00,20.00 372.00,20.00 372.00,20.00
             372.00,20.00 372.00,46.00 372.00,46.00
             372.00,46.00 366.00,46.00 366.00,46.00
             366.00,46.00 366.00,35.00 366.00,35.00
             366.00,35.00 356.00,35.00 356.00,35.00
             356.00,35.00 356.00,46.00 356.00,46.00
             356.00,46.00 350.00,46.00 350.00,46.00
             350.00,46.00 350.00,20.00 350.00,20.00
             350.00,20.00 356.00,20.00 356.00,20.00 Z
           M 384.00,20.43
           C 387.43,19.92 390.87,19.64 393.89,21.74
             401.92,27.29 401.14,47.36 386.00,45.89
             373.86,44.71 371.75,25.31 384.00,20.43 Z
           M 416.00,38.00
           C 416.00,38.00 423.65,20.99 423.65,20.99
             423.65,20.99 431.00,20.00 431.00,20.00
             431.00,20.00 431.00,46.00 431.00,46.00
             431.00,46.00 425.00,46.00 425.00,46.00
             425.00,46.00 425.00,30.00 425.00,30.00
             425.00,30.00 418.30,45.01 418.30,45.01
             418.30,45.01 414.00,46.00 414.00,46.00
             414.00,46.00 409.00,30.00 409.00,30.00
             409.00,30.00 408.00,46.00 408.00,46.00
             408.00,46.00 402.00,46.00 402.00,46.00
             402.00,46.00 402.00,20.00 402.00,20.00
             404.15,20.01 407.70,19.77 409.49,21.02
             412.08,22.84 415.47,34.64 416.00,38.00 Z
           M 453.00,20.00
           C 453.00,20.00 453.00,25.00 453.00,25.00
             453.00,25.00 441.00,25.00 441.00,25.00
             441.00,25.00 441.00,30.00 441.00,30.00
             441.00,30.00 452.00,30.00 452.00,30.00
             450.86,36.47 446.67,35.00 441.00,35.00
             441.00,35.00 441.00,41.00 441.00,41.00
             441.00,41.00 453.00,41.00 453.00,41.00
             453.00,41.00 453.00,46.00 453.00,46.00
             453.00,46.00 435.00,46.00 435.00,46.00
             435.00,46.00 435.00,20.00 435.00,20.00
             435.00,20.00 453.00,20.00 453.00,20.00 Z
           M 483.00,20.00
           C 483.00,20.00 483.00,25.00 483.00,25.00
             483.00,25.00 471.00,25.00 471.00,25.00
             471.00,25.00 471.00,31.00 471.00,31.00
             471.00,31.00 482.00,31.00 482.00,31.00
             480.86,37.47 476.67,36.00 471.00,36.00
             471.00,36.00 471.00,46.00 471.00,46.00
             471.00,46.00 465.00,46.00 465.00,46.00
             465.00,46.00 465.00,20.00 465.00,20.00
             465.00,20.00 483.00,20.00 483.00,20.00 Z
           M 493.00,20.43
           C 496.50,19.91 499.84,19.66 502.95,21.74
             511.18,27.24 510.32,47.38 495.00,45.89
             483.06,44.73 481.03,25.26 493.00,20.43 Z
           M 526.97,35.00
           C 526.97,35.00 533.00,46.00 533.00,46.00
             531.03,45.98 528.32,46.18 526.63,45.01
             522.89,42.40 525.08,39.20 518.00,37.00
             518.00,37.00 518.00,46.00 518.00,46.00
             518.00,46.00 512.00,46.00 512.00,46.00
             512.00,46.00 512.00,20.00 512.00,20.00
             515.34,20.00 524.28,19.64 526.97,20.74
             532.92,23.20 533.46,30.72 526.97,35.00 Z
           M 562.00,20.00
           C 562.00,20.00 562.00,25.00 562.00,25.00
             562.00,25.00 551.00,25.00 551.00,25.00
             551.00,25.00 551.00,31.00 551.00,31.00
             551.00,31.00 561.00,31.00 561.00,31.00
             561.00,31.00 561.00,36.00 561.00,36.00
             561.00,36.00 551.00,36.00 551.00,36.00
             551.00,36.00 551.00,46.00 551.00,46.00
             551.00,46.00 545.00,46.00 545.00,46.00
             545.00,46.00 545.00,20.00 545.00,20.00
             545.00,20.00 562.00,20.00 562.00,20.00 Z
           M 586.00,46.00
           C 574.03,45.58 580.98,38.71 571.00,37.00
             571.00,37.00 571.00,46.00 571.00,46.00
             571.00,46.00 565.00,46.00 565.00,46.00
             565.00,46.00 565.00,20.00 565.00,20.00
             570.58,20.00 580.87,18.53 583.98,24.11
             586.54,28.72 582.84,33.24 582.55,36.00
             582.26,38.75 584.85,43.34 586.00,46.00 Z
           M 607.00,20.00
           C 607.00,20.00 607.00,25.00 607.00,25.00
             607.00,25.00 595.00,25.00 595.00,25.00
             595.00,25.00 595.00,30.00 595.00,30.00
             595.00,30.00 605.00,30.00 605.00,30.00
             605.00,30.00 605.00,35.00 605.00,35.00
             605.00,35.00 595.00,35.00 595.00,35.00
             595.00,35.00 595.00,41.00 595.00,41.00
             595.00,41.00 607.00,41.00 607.00,41.00
             607.00,41.00 607.00,46.00 607.00,46.00
             607.00,46.00 589.00,46.00 589.00,46.00
             589.00,46.00 589.00,20.00 589.00,20.00
             589.00,20.00 607.00,20.00 607.00,20.00 Z
           M 628.00,20.00
           C 628.00,20.00 628.00,25.00 628.00,25.00
             628.00,25.00 616.00,25.00 616.00,25.00
             616.00,25.00 616.00,30.00 616.00,30.00
             616.00,30.00 626.00,30.00 626.00,30.00
             626.00,30.00 626.00,35.00 626.00,35.00
             626.00,35.00 616.00,35.00 616.00,35.00
             616.00,35.00 616.00,41.00 616.00,41.00
             616.00,41.00 628.00,41.00 628.00,41.00
             628.00,41.00 628.00,46.00 628.00,46.00
             628.00,46.00 610.00,46.00 610.00,46.00
             610.00,46.00 610.00,20.00 610.00,20.00
             610.00,20.00 628.00,20.00 628.00,20.00 Z
           M 164.22,25.76
           C 158.36,29.92 160.52,42.94 167.90,40.36
             173.52,38.39 174.34,23.91 164.22,25.76 Z
           M 187.00,25.00
           C 187.00,25.00 187.00,32.00 187.00,32.00
             197.70,31.72 198.00,25.14 187.00,25.00 Z
           M 265.00,25.00
           C 265.00,25.00 265.00,32.00 265.00,32.00
             267.52,31.85 272.37,31.68 272.26,28.03
             272.22,26.87 271.56,26.08 270.57,25.57
             269.26,24.91 266.49,25.02 265.00,25.00 Z
           M 290.43,26.03
           C 285.26,31.67 288.53,44.37 295.73,39.97
             300.76,36.90 300.16,22.57 290.43,26.03 Z
           M 385.22,25.76
           C 379.36,29.92 381.52,42.94 388.90,40.36
             394.52,38.39 395.34,23.91 385.22,25.76 Z
           M 494.22,26.04
           C 491.13,28.86 490.06,32.90 491.74,36.94
             492.99,39.96 496.57,41.96 499.57,39.97
             502.82,37.82 504.65,22.81 494.22,26.04 Z
           M 518.00,25.00
           C 518.00,25.00 518.00,32.00 518.00,32.00
             520.52,31.85 525.37,31.68 525.26,28.03
             525.22,26.87 524.56,26.08 523.57,25.57
             522.26,24.91 519.49,25.02 518.00,25.00 Z
           M 571.00,25.00
           C 571.00,25.00 571.00,32.00 571.00,32.00
             573.57,31.93 579.11,32.10 578.55,28.04
             578.39,26.86 577.73,26.11 576.69,25.60
             575.30,24.92 572.56,25.02 571.00,25.00 Z
           M 634.00,40.86
           C 638.42,42.38 635.90,45.37 634.00,45.37
             632.10,45.37 629.58,42.38 634.00,40.86 Z
           M 151.00,66.30
           C 175.20,63.89 185.24,81.15 185.00,103.00
             184.83,117.79 178.30,133.82 162.00,136.67
             123.54,143.41 117.87,92.09 135.30,74.18
             139.56,69.80 145.10,67.45 151.00,66.30 Z
           M 270.00,66.30
           C 290.12,64.31 302.77,78.56 303.00,98.00
             303.19,114.63 299.82,133.34 280.00,136.68
             260.30,139.99 245.24,126.81 245.00,107.00
             244.83,92.44 245.01,77.25 260.00,69.40
             263.14,67.76 266.55,66.95 270.00,66.30 Z
           M 662.00,66.30
           C 686.20,63.89 696.24,81.15 696.00,103.00
             695.83,117.79 689.30,133.82 673.00,136.67
             634.54,143.41 628.87,92.09 646.30,74.18
             650.56,69.80 656.10,67.45 662.00,66.30 Z
           M 82.00,67.00
           C 82.00,67.00 82.00,97.00 82.00,97.00
             82.00,97.00 97.13,77.00 97.13,77.00
             97.13,77.00 106.09,67.60 106.09,67.60
             106.09,67.60 122.00,67.00 122.00,67.00
             119.42,73.04 111.18,82.53 106.80,88.00
             105.18,90.02 101.11,94.68 100.58,97.00
             99.81,100.37 103.81,105.17 105.58,108.00
             105.58,108.00 123.00,136.00 123.00,136.00
             123.00,136.00 107.18,135.40 107.18,135.40
             107.18,135.40 100.19,127.00 100.19,127.00
             100.19,127.00 89.00,109.00 89.00,109.00
             79.57,119.30 82.00,122.61 82.00,136.00
             82.00,136.00 67.00,136.00 67.00,136.00
             67.00,136.00 67.00,67.00 67.00,67.00
             67.00,67.00 82.00,67.00 82.00,67.00 Z
           M 209.00,67.00
           C 209.00,67.00 209.00,124.00 209.00,124.00
             209.00,124.00 239.00,124.00 239.00,124.00
             239.00,124.00 239.00,136.00 239.00,136.00
             239.00,136.00 195.00,136.00 195.00,136.00
             195.00,136.00 195.00,67.00 195.00,67.00
             195.00,67.00 209.00,67.00 209.00,67.00 Z
           M 365.00,79.00
           C 365.00,79.00 344.00,79.00 344.00,79.00
             344.00,79.00 344.00,136.00 344.00,136.00
             344.00,136.00 329.00,136.00 329.00,136.00
             329.00,136.00 329.00,79.00 329.00,79.00
             329.00,79.00 309.00,79.00 309.00,79.00
             309.00,79.00 309.00,67.00 309.00,67.00
             309.00,67.00 349.00,67.00 349.00,67.00
             351.90,67.00 361.42,66.46 363.40,68.02
             365.63,69.78 365.00,76.29 365.00,79.00 Z
           M 388.00,67.00
           C 388.00,67.00 388.00,136.00 388.00,136.00
             388.00,136.00 373.00,136.00 373.00,136.00
             373.00,136.00 373.00,67.00 373.00,67.00
             373.00,67.00 388.00,67.00 388.00,67.00 Z
           M 441.00,100.00
           C 443.90,101.82 446.28,103.20 448.35,106.04
             454.86,114.97 451.06,129.04 441.00,133.65
             432.63,137.48 410.11,136.00 400.00,136.00
             400.00,136.00 400.00,76.00 400.00,76.00
             400.02,67.36 400.36,67.02 409.00,67.00
             418.27,66.98 434.10,66.12 441.99,71.14
             452.73,77.99 452.98,94.28 441.00,100.00 Z
           M 520.00,136.00
           C 516.93,136.00 507.72,136.53 505.51,134.98
             502.48,132.86 502.50,126.27 499.49,123.60
             497.33,121.68 493.72,122.01 491.00,122.00
             486.87,121.99 478.64,120.93 475.84,124.31
             473.56,127.07 473.28,133.02 470.49,134.98
             468.28,136.53 459.07,136.00 456.00,136.00
             456.00,136.00 474.95,84.00 474.95,84.00
             476.37,80.20 479.44,68.41 483.22,67.29
             485.71,66.56 493.09,66.57 494.92,68.57
             494.92,68.57 502.58,88.00 502.58,88.00
             502.58,88.00 520.00,136.00 520.00,136.00 Z
           M 567.00,100.00
           C 570.28,102.06 572.90,103.59 574.99,107.02
             580.32,115.70 576.18,129.13 567.00,133.60
             559.04,137.47 535.83,136.00 526.00,136.00
             526.00,136.00 526.00,67.00 526.00,67.00
             537.23,67.00 558.65,65.51 567.98,71.22
             578.29,77.52 578.99,94.27 567.00,100.00 Z
           M 602.00,67.00
           C 602.00,67.00 602.00,124.00 602.00,124.00
             602.00,124.00 623.00,124.00 623.00,124.00
             623.00,124.00 630.98,125.60 630.98,125.60
             630.98,125.60 632.00,136.00 632.00,136.00
             632.00,136.00 587.00,136.00 587.00,136.00
             587.00,136.00 587.00,75.00 587.00,75.00
             587.06,65.91 588.15,67.00 602.00,67.00 Z
           M 153.00,78.55
           C 149.70,79.58 147.75,80.34 145.42,83.11
             140.44,89.02 140.11,103.71 141.67,111.00
             143.14,117.87 146.19,124.16 154.00,124.89
             166.40,126.04 169.88,115.19 170.00,105.00
             170.13,93.26 169.71,76.51 153.00,78.55 Z
           M 271.00,78.53
           C 268.18,79.44 266.51,79.95 264.39,82.22
             257.97,89.10 258.03,106.48 260.80,115.00
             263.21,122.41 270.39,126.61 278.00,124.43
             285.70,122.23 287.91,114.08 288.00,107.00
             288.14,94.88 289.08,75.96 271.00,78.53 Z
           M 664.00,78.55
           C 660.70,79.58 658.75,80.34 656.42,83.11
             651.44,89.02 651.11,103.71 652.67,111.00
             654.14,117.87 657.19,124.16 665.00,124.89
             677.40,126.04 680.88,115.19 681.00,105.00
             681.13,93.26 680.71,76.51 664.00,78.55 Z
           M 415.00,79.00
           C 415.00,79.00 415.00,96.00 415.00,96.00
             419.54,96.00 428.11,96.58 431.85,94.07
             436.06,91.24 436.06,83.76 431.85,80.93
             428.11,78.42 419.54,79.00 415.00,79.00 Z
           M 541.00,79.00
           C 541.00,79.00 541.00,96.00 541.00,96.00
             545.50,96.00 552.99,96.52 556.89,94.43
             561.93,91.73 562.28,84.22 557.77,81.09
             553.84,78.35 545.75,79.00 541.00,79.00 Z
           M 487.00,87.00
           C 487.00,87.00 480.00,110.00 480.00,110.00
             480.00,110.00 496.00,110.00 496.00,110.00
             494.80,104.74 490.97,90.04 487.00,87.00 Z
           M 415.00,106.00
           C 415.00,106.00 415.00,124.00 415.00,124.00
             419.10,124.00 429.70,124.62 432.89,122.83
             438.33,119.77 438.13,111.28 432.89,107.93
             428.87,105.36 419.86,106.00 415.00,106.00 Z
           M 541.00,106.00
           C 541.00,106.00 541.00,124.00 541.00,124.00
             544.96,124.00 555.77,124.62 558.83,122.83
             564.02,119.72 563.95,111.16 558.83,107.98
             554.93,105.52 545.71,106.00 541.00,106.00 Z
           M 59.00,200.30
           C 78.57,198.37 91.77,211.75 91.85,231.00
             91.85,231.00 91.85,246.00 91.85,246.00
             89.92,258.11 81.39,268.61 69.00,270.68
             47.84,274.21 34.24,259.38 34.00,239.00
             33.78,220.14 37.73,204.32 59.00,200.30 Z
           M 726.00,224.00
           C 723.12,224.00 715.69,224.48 713.49,222.98
             710.69,221.06 709.21,211.99 699.00,212.47
             681.27,213.31 681.70,247.18 691.19,255.69
             695.59,259.52 706.39,260.97 710.40,255.69
             712.48,253.08 712.00,248.29 712.00,245.00
             712.00,245.00 699.00,245.00 699.00,245.00
             699.00,245.00 699.00,234.00 699.00,234.00
             699.00,234.00 726.00,234.00 726.00,234.00
             726.00,234.00 726.00,254.00 726.00,254.00
             725.99,256.54 726.19,259.67 724.98,261.96
             719.80,271.72 697.18,272.77 688.00,269.07
             672.89,262.98 669.83,248.63 670.00,234.00
             670.15,221.84 673.78,209.89 685.00,203.53
             688.69,201.44 690.97,201.30 695.00,200.73
             711.45,198.38 725.18,206.34 726.00,224.00 Z
           M 143.00,245.00
           C 143.00,245.00 144.00,228.00 144.00,228.00
             144.00,228.00 144.00,201.00 144.00,201.00
             144.00,201.00 158.00,201.00 158.00,201.00
             158.00,201.00 158.00,270.00 158.00,270.00
             158.00,270.00 143.53,269.01 143.53,269.01
             143.53,269.01 135.40,257.00 135.40,257.00
             135.40,257.00 118.00,227.00 118.00,227.00
             116.08,233.76 117.00,261.13 117.00,270.00
             117.00,270.00 102.00,270.00 102.00,270.00
             102.00,270.00 102.00,201.00 102.00,201.00
             102.00,201.00 116.47,201.99 116.47,201.99
             116.47,201.99 125.20,215.00 125.20,215.00
             125.20,215.00 143.00,245.00 143.00,245.00 Z
           M 184.00,201.00
           C 184.00,201.00 184.00,258.00 184.00,258.00
             184.00,258.00 214.00,258.00 214.00,258.00
             214.00,258.00 214.00,270.00 214.00,270.00
             214.00,270.00 170.00,270.00 170.00,270.00
             170.00,270.00 170.00,201.00 170.00,201.00
             170.00,201.00 184.00,201.00 184.00,201.00 Z
           M 237.00,201.00
           C 237.00,201.00 237.00,270.00 237.00,270.00
             237.00,270.00 223.00,270.00 223.00,270.00
             223.00,270.00 223.00,201.00 223.00,201.00
             223.00,201.00 237.00,201.00 237.00,201.00 Z
           M 290.00,244.00
           C 291.92,237.24 291.00,209.87 291.00,201.00
             291.00,201.00 306.00,201.00 306.00,201.00
             306.00,201.00 306.00,270.00 306.00,270.00
             306.00,270.00 291.38,268.98 291.38,268.98
             291.38,268.98 283.19,257.00 283.19,257.00
             283.19,257.00 265.00,226.00 265.00,226.00
             265.00,226.00 264.00,243.00 264.00,243.00
             264.00,243.00 264.00,270.00 264.00,270.00
             264.00,270.00 250.00,270.00 250.00,270.00
             250.00,270.00 250.00,201.00 250.00,201.00
             250.00,201.00 264.39,201.99 264.39,201.99
             264.39,201.99 272.40,214.00 272.40,214.00
             272.40,214.00 290.00,244.00 290.00,244.00 Z
           M 364.00,213.00
           C 364.00,213.00 332.00,213.00 332.00,213.00
             332.00,213.00 332.00,229.00 332.00,229.00
             332.00,229.00 359.00,229.00 359.00,229.00
             359.00,229.00 359.00,240.00 359.00,240.00
             359.00,240.00 332.00,240.00 332.00,240.00
             332.00,240.00 332.00,258.00 332.00,258.00
             332.00,258.00 355.00,258.00 355.00,258.00
             355.00,258.00 362.98,259.60 362.98,259.60
             362.98,259.60 364.00,270.00 364.00,270.00
             364.00,270.00 318.00,270.00 318.00,270.00
             318.00,270.00 318.00,201.00 318.00,201.00
             318.00,201.00 350.00,201.00 350.00,201.00
             352.66,201.00 360.51,200.52 362.40,202.02
             364.63,203.78 364.00,210.29 364.00,213.00 Z
           M 447.00,201.00
           C 447.00,201.00 447.00,213.00 447.00,213.00
             447.00,213.00 427.00,213.00 427.00,213.00
             427.00,213.00 427.00,270.00 427.00,270.00
             427.00,270.00 412.00,270.00 412.00,270.00
             412.00,270.00 412.00,213.00 412.00,213.00
             412.00,213.00 391.00,213.00 391.00,213.00
             391.00,203.21 390.12,201.15 398.00,201.00
             398.00,201.00 447.00,201.00 447.00,201.00 Z
           M 478.00,232.00
           C 478.00,232.00 487.58,212.00 487.58,212.00
             487.58,212.00 493.39,202.02 493.39,202.02
             493.39,202.02 508.00,201.00 508.00,201.00
             506.31,206.93 496.59,225.61 493.22,232.00
             488.86,240.26 486.05,242.19 486.00,252.00
             486.00,252.00 486.00,270.00 486.00,270.00
             486.00,270.00 471.00,270.00 471.00,270.00
             471.00,270.00 471.00,251.00 471.00,251.00
             470.90,243.45 468.53,240.56 465.25,234.00
             465.25,234.00 449.00,201.00 449.00,201.00
             449.00,201.00 463.61,201.57 463.61,201.57
             463.61,201.57 468.31,209.00 468.31,209.00
             468.31,209.00 478.00,232.00 478.00,232.00 Z
           M 529.00,246.00
           C 529.00,246.00 529.00,270.00 529.00,270.00
             529.00,270.00 514.00,270.00 514.00,270.00
             514.00,270.00 514.00,210.00 514.00,210.00
             514.00,208.01 513.77,204.19 515.02,202.60
             516.37,200.90 519.05,201.04 521.00,201.00
             521.00,201.00 539.00,201.00 539.00,201.00
             546.36,201.09 555.38,202.90 560.81,208.21
             569.61,216.81 570.17,235.90 556.00,243.17
             550.77,245.85 546.68,245.99 541.00,246.00
             541.00,246.00 529.00,246.00 529.00,246.00 Z
           M 592.00,270.00
           C 592.00,270.00 577.00,270.00 577.00,270.00
             577.00,270.00 577.00,201.00 577.00,201.00
             577.00,201.00 585.00,201.00 585.00,201.00
             593.30,201.16 592.00,203.02 592.00,218.00
             592.00,218.00 592.00,270.00 592.00,270.00 Z
           M 645.00,245.00
           C 645.00,245.00 646.00,228.00 646.00,228.00
             646.00,228.00 646.00,201.00 646.00,201.00
             646.00,201.00 660.00,201.00 660.00,201.00
             660.00,201.00 660.00,270.00 660.00,270.00
             660.00,270.00 645.53,269.01 645.53,269.01
             645.53,269.01 637.40,257.00 637.40,257.00
             637.40,257.00 620.00,227.00 620.00,227.00
             618.08,233.76 619.00,261.13 619.00,270.00
             619.00,270.00 604.00,270.00 604.00,270.00
             604.00,270.00 604.00,201.00 604.00,201.00
             604.00,201.00 618.47,201.99 618.47,201.99
             618.47,201.99 627.20,215.00 627.20,215.00
             627.20,215.00 645.00,245.00 645.00,245.00 Z
           M 60.00,212.53
           C 49.82,215.79 49.01,223.60 49.00,233.00
             48.99,237.82 48.56,244.56 50.11,249.00
             52.66,256.33 59.19,260.69 67.00,258.57
             74.51,256.53 76.31,249.65 77.27,243.00
             79.08,230.47 77.61,210.02 60.00,212.53 Z
           M 529.00,213.00
           C 529.00,213.00 529.00,234.00 529.00,234.00
             533.45,234.00 544.36,234.62 547.89,232.69
             553.78,229.47 553.29,218.54 547.89,215.09
             543.45,212.24 534.32,213.00 529.00,213.00 Z
           M 371.00,334.30
           C 391.12,332.31 403.77,346.56 404.00,366.00
             404.19,382.63 400.82,401.34 381.00,404.68
             361.30,407.99 346.24,394.81 346.00,375.00
             345.83,360.44 346.01,345.25 361.00,337.40
             364.14,335.76 367.55,334.95 371.00,334.30 Z
           M 336.00,335.00
           C 336.00,335.00 336.00,381.00 336.00,381.00
             335.99,386.82 335.89,391.00 332.35,396.00
             324.93,406.48 305.61,408.69 296.10,399.79
             291.28,395.27 290.14,390.31 290.00,384.00
             290.00,384.00 305.00,384.00 305.00,384.00
             306.13,393.75 313.78,395.22 318.70,389.85
             321.72,386.56 321.95,382.22 322.00,378.00
             322.00,378.00 322.00,335.00 322.00,335.00
             322.00,335.00 336.00,335.00 336.00,335.00 Z
           M 454.00,368.00
           C 457.11,369.81 459.89,371.07 462.03,374.10
             468.32,382.99 464.66,396.59 455.00,401.44
             446.70,405.61 424.12,404.00 414.00,404.00
             414.00,404.00 414.00,335.00 414.00,335.00
             425.62,335.00 446.30,333.35 455.96,339.48
             465.91,345.79 466.20,363.80 454.00,368.00 Z
           M 372.00,346.53
           C 369.18,347.44 367.51,347.95 365.39,350.22
             358.97,357.10 359.03,374.48 361.80,383.00
             364.21,390.41 371.39,394.61 379.00,392.43
             386.70,390.23 388.91,382.08 389.00,375.00
             389.14,362.88 390.08,343.96 372.00,346.53 Z
           M 428.00,347.00
           C 428.00,347.00 428.00,364.00 428.00,364.00
             432.65,364.00 440.91,364.57 444.89,362.43
             450.44,359.46 449.62,351.80 445.72,349.14
             441.80,346.45 432.76,347.00 428.00,347.00 Z
           M 428.00,392.00
           C 432.64,392.00 443.29,392.87 446.81,390.26
             451.03,387.21 451.17,379.06 446.81,376.14
             443.72,374.11 437.62,373.87 434.00,374.02
             432.59,374.08 430.77,374.10 429.60,375.02
             427.10,377.00 428.00,388.61 428.00,392.00 Z
           M 482.00,390.45
           C 493.29,390.89 492.88,403.50 484.00,404.76
             474.99,406.02 470.63,393.36 482.00,390.45 Z
           M 51.00,446.00
           C 57.10,434.08 53.51,431.12 64.00,431.00
             64.00,431.00 64.00,453.00 64.00,453.00
             64.00,453.00 59.00,453.00 59.00,453.00
             59.00,453.00 59.00,439.00 59.00,439.00
             59.00,439.00 54.00,453.00 54.00,453.00
             54.00,453.00 49.00,453.00 49.00,453.00
             49.00,453.00 45.00,439.00 45.00,439.00
             45.00,439.00 44.00,453.00 44.00,453.00
             44.00,453.00 39.00,453.00 39.00,453.00
             39.00,453.00 39.00,431.00 39.00,431.00
             40.57,431.02 43.20,430.91 44.61,431.57
             47.98,433.16 50.19,442.46 51.00,446.00 Z
           M 87.00,453.00
           C 87.00,453.00 76.03,449.29 76.03,449.29
             76.03,449.29 66.00,453.00 66.00,453.00
             66.67,448.75 70.20,438.95 72.10,435.06
             73.12,432.97 74.91,430.60 77.60,431.63
             79.53,432.37 80.47,435.24 81.20,437.00
             81.20,437.00 87.00,453.00 87.00,453.00 Z
           M 94.00,431.00
           C 94.00,431.00 94.00,440.00 94.00,440.00
             98.66,434.27 99.27,431.27 107.00,431.00
             107.00,431.00 101.82,440.00 101.82,440.00
             101.08,443.35 106.22,449.83 108.00,453.00
             101.02,452.76 100.03,451.15 97.00,445.00
             97.00,445.00 95.00,445.00 95.00,445.00
             95.00,445.00 94.00,453.00 94.00,453.00
             94.00,453.00 89.00,453.00 89.00,453.00
             89.00,453.00 89.00,431.00 89.00,431.00
             89.00,431.00 94.00,431.00 94.00,431.00 Z
           M 125.00,431.00
           C 125.00,431.00 125.00,435.00 125.00,435.00
             125.00,435.00 114.00,435.00 114.00,435.00
             114.00,435.00 114.00,439.00 114.00,439.00
             114.00,439.00 123.00,439.00 123.00,439.00
             123.00,439.00 123.00,443.00 123.00,443.00
             123.00,443.00 114.00,443.00 114.00,443.00
             114.00,443.00 114.00,449.00 114.00,449.00
             114.00,449.00 125.00,449.00 125.00,449.00
             125.00,449.00 125.00,453.00 125.00,453.00
             125.00,453.00 109.00,453.00 109.00,453.00
             109.00,453.00 109.00,431.00 109.00,431.00
             109.00,431.00 125.00,431.00 125.00,431.00 Z
           M 147.00,446.00
           C 153.10,434.08 149.51,431.12 160.00,431.00
             160.00,431.00 160.00,453.00 160.00,453.00
             160.00,453.00 155.00,453.00 155.00,453.00
             155.00,453.00 155.00,439.00 155.00,439.00
             155.00,439.00 150.00,453.00 150.00,453.00
             150.00,453.00 145.00,453.00 145.00,453.00
             145.00,453.00 141.00,439.00 141.00,439.00
             141.00,439.00 140.00,453.00 140.00,453.00
             140.00,453.00 135.00,453.00 135.00,453.00
             135.00,453.00 135.00,431.00 135.00,431.00
             136.57,431.02 139.20,430.91 140.61,431.57
             143.98,433.16 146.19,442.46 147.00,446.00 Z
           M 170.00,431.43
           C 187.11,429.26 185.05,454.89 171.00,452.76
             161.50,451.32 159.12,435.81 170.00,431.43 Z
           M 198.00,444.00
           C 198.00,444.00 199.00,431.00 199.00,431.00
             199.00,431.00 204.00,431.00 204.00,431.00
             204.00,431.00 204.00,453.00 204.00,453.00
             196.64,452.39 193.98,446.12 191.00,440.00
             191.00,440.00 190.00,453.00 190.00,453.00
             190.00,453.00 185.00,453.00 185.00,453.00
             185.00,453.00 185.00,431.00 185.00,431.00
             192.94,431.25 195.45,437.09 198.00,444.00 Z
           M 234.00,440.00
           C 238.34,432.17 236.94,431.23 244.00,431.00
             239.78,440.81 237.03,441.90 237.00,453.00
             237.00,453.00 232.00,453.00 232.00,453.00
             231.88,441.03 228.08,441.75 225.00,432.00
             225.00,432.00 224.00,435.00 224.00,435.00
             224.00,435.00 213.00,435.00 213.00,435.00
             213.00,435.00 213.00,439.00 213.00,439.00
             213.00,439.00 222.00,439.00 222.00,439.00
             222.00,439.00 222.00,443.00 222.00,443.00
             222.00,443.00 213.00,443.00 213.00,443.00
             213.00,443.00 213.00,449.00 213.00,449.00
             213.00,449.00 224.00,449.00 224.00,449.00
             224.00,449.00 224.00,453.00 224.00,453.00
             224.00,453.00 208.00,453.00 208.00,453.00
             208.00,453.00 208.00,431.00 208.00,431.00
             208.00,431.00 229.37,431.99 229.37,431.99
             229.37,431.99 234.00,440.00 234.00,440.00 Z
           M 260.02,431.43
           C 263.58,430.92 266.76,430.74 269.61,433.43
             275.07,438.59 273.80,450.41 265.98,452.57
             252.69,456.24 247.75,436.51 260.02,431.43 Z
           M 289.00,444.00
           C 289.00,444.00 290.00,431.00 290.00,431.00
             290.00,431.00 295.00,431.00 295.00,431.00
             295.00,431.00 295.00,453.00 295.00,453.00
             287.06,452.75 284.55,446.91 282.00,440.00
             282.00,440.00 281.00,453.00 281.00,453.00
             281.00,453.00 276.00,453.00 276.00,453.00
             276.00,453.00 276.00,431.00 276.00,431.00
             283.57,431.62 285.92,437.69 289.00,444.00 Z
           M 303.00,431.00
           C 303.00,431.00 303.00,449.00 303.00,449.00
             303.00,449.00 313.00,449.00 313.00,449.00
             313.00,449.00 313.00,453.00 313.00,453.00
             313.00,453.00 298.00,453.00 298.00,453.00
             298.00,453.00 298.00,431.00 298.00,431.00
             298.00,431.00 303.00,431.00 303.00,431.00 Z
           M 321.00,431.00
           C 321.00,431.00 321.00,453.00 321.00,453.00
             321.00,453.00 316.00,453.00 316.00,453.00
             316.00,453.00 316.00,431.00 316.00,431.00
             316.00,431.00 321.00,431.00 321.00,431.00 Z
           M 338.00,444.00
           C 338.00,444.00 339.00,431.00 339.00,431.00
             339.00,431.00 344.00,431.00 344.00,431.00
             344.00,431.00 344.00,453.00 344.00,453.00
             336.25,452.37 333.90,446.50 331.00,440.00
             331.00,440.00 330.00,453.00 330.00,453.00
             330.00,453.00 325.00,453.00 325.00,453.00
             325.00,453.00 325.00,431.00 325.00,431.00
             326.48,431.05 328.24,430.94 329.62,431.57
             332.71,432.98 336.60,440.85 338.00,444.00 Z
           M 363.00,431.00
           C 363.00,431.00 363.00,435.00 363.00,435.00
             363.00,435.00 353.00,435.00 353.00,435.00
             353.00,435.00 353.00,439.00 353.00,439.00
             353.00,439.00 362.00,439.00 362.00,439.00
             362.00,439.00 362.00,443.00 362.00,443.00
             362.00,443.00 353.00,443.00 353.00,443.00
             353.00,443.00 353.00,449.00 353.00,449.00
             353.00,449.00 363.00,449.00 363.00,449.00
             363.00,449.00 363.00,453.00 363.00,453.00
             363.00,453.00 348.00,453.00 348.00,453.00
             348.00,453.00 348.00,431.00 348.00,431.00
             348.00,431.00 363.00,431.00 363.00,431.00 Z
           M 380.00,444.00
           C 380.00,444.00 383.00,431.00 383.00,431.00
             384.47,431.12 386.03,431.03 387.28,431.99
             389.59,433.79 390.60,442.03 391.00,445.00
             391.00,445.00 394.00,431.00 394.00,431.00
             394.00,431.00 399.00,431.00 399.00,431.00
             399.00,431.00 395.00,453.00 395.00,453.00
             395.00,453.00 389.00,453.00 389.00,453.00
             389.00,453.00 386.00,440.00 386.00,440.00
             382.49,449.55 384.62,452.36 377.00,453.00
             377.00,453.00 372.00,431.00 372.00,431.00
             379.26,431.61 377.27,433.68 380.00,444.00 Z
           M 407.00,431.00
           C 407.00,431.00 407.00,453.00 407.00,453.00
             407.00,453.00 402.00,453.00 402.00,453.00
             402.00,453.00 402.00,431.00 402.00,431.00
             402.00,431.00 407.00,431.00 407.00,431.00 Z
           M 428.00,431.00
           C 428.00,431.00 428.00,435.00 428.00,435.00
             428.00,435.00 421.00,435.00 421.00,435.00
             421.00,435.00 421.00,453.00 421.00,453.00
             421.00,453.00 416.00,453.00 416.00,453.00
             416.00,453.00 416.00,435.00 416.00,435.00
             416.00,435.00 409.00,435.00 409.00,435.00
             409.00,435.00 409.00,431.00 409.00,431.00
             409.00,431.00 428.00,431.00 428.00,431.00 Z
           M 436.00,431.00
           C 436.00,431.00 436.00,440.00 436.00,440.00
             436.00,440.00 445.00,440.00 445.00,440.00
             445.00,440.00 445.00,431.00 445.00,431.00
             445.00,431.00 450.00,431.00 450.00,431.00
             450.00,431.00 450.00,453.00 450.00,453.00
             450.00,453.00 445.00,453.00 445.00,453.00
             445.00,453.00 445.00,444.00 445.00,444.00
             445.00,444.00 436.00,444.00 436.00,444.00
             436.00,444.00 436.00,453.00 436.00,453.00
             436.00,453.00 431.00,453.00 431.00,453.00
             431.00,453.00 431.00,431.00 431.00,431.00
             431.00,431.00 436.00,431.00 436.00,431.00 Z
           M 474.00,444.00
           C 474.00,444.00 475.00,431.00 475.00,431.00
             475.00,431.00 480.00,431.00 480.00,431.00
             480.00,431.00 480.00,453.00 480.00,453.00
             472.64,452.39 469.98,446.12 467.00,440.00
             467.00,440.00 466.00,453.00 466.00,453.00
             466.00,453.00 461.00,453.00 461.00,453.00
             461.00,453.00 461.00,431.00 461.00,431.00
             468.94,431.25 471.45,437.09 474.00,444.00 Z
           M 490.02,431.43
           C 493.58,430.92 496.76,430.74 499.61,433.43
             505.07,438.59 503.80,450.41 495.98,452.57
             482.69,456.24 477.75,436.51 490.02,431.43 Z
           M 520.00,431.00
           C 520.00,431.00 520.00,453.00 520.00,453.00
             520.00,453.00 514.00,453.00 514.00,453.00
             514.00,453.00 514.00,431.00 514.00,431.00
             514.00,431.00 520.00,431.00 520.00,431.00 Z
           M 536.00,444.00
           C 536.00,444.00 537.00,431.00 537.00,431.00
             537.00,431.00 542.00,431.00 542.00,431.00
             542.00,431.00 542.00,453.00 542.00,453.00
             534.64,452.39 531.98,446.12 529.00,440.00
             529.00,440.00 528.00,453.00 528.00,453.00
             528.00,453.00 523.00,453.00 523.00,453.00
             523.00,453.00 523.00,431.00 523.00,431.00
             530.94,431.25 533.45,437.09 536.00,444.00 Z
           M 550.00,431.00
           C 550.00,431.00 554.00,447.00 554.00,447.00
             554.00,447.00 559.00,431.00 559.00,431.00
             559.00,431.00 565.00,431.00 565.00,431.00
             565.00,431.00 559.42,447.00 559.42,447.00
             558.66,448.90 557.86,451.57 555.74,452.34
             552.95,453.37 551.17,451.16 550.11,448.94
             550.11,448.94 544.00,431.00 544.00,431.00
             544.00,431.00 550.00,431.00 550.00,431.00 Z
           M 582.00,431.00
           C 582.00,431.00 582.00,435.00 582.00,435.00
             582.00,435.00 572.00,435.00 572.00,435.00
             572.00,435.00 572.00,439.00 572.00,439.00
             572.00,439.00 581.00,439.00 581.00,439.00
             581.00,439.00 581.00,443.00 581.00,443.00
             581.00,443.00 572.00,443.00 572.00,443.00
             572.00,443.00 572.00,449.00 572.00,449.00
             576.93,449.00 581.13,447.66 583.00,453.00
             583.00,453.00 567.00,453.00 567.00,453.00
             567.00,453.00 567.00,431.00 567.00,431.00
             567.00,431.00 582.00,431.00 582.00,431.00 Z
           M 602.00,438.00
           C 594.68,437.44 593.19,433.58 590.00,439.00
             592.01,439.41 594.11,439.77 596.00,440.65
             609.19,446.77 595.97,457.70 587.15,451.26
             584.97,449.67 584.72,448.38 584.00,446.00
             584.00,446.00 596.00,449.00 596.00,449.00
             593.49,441.41 585.29,444.08 585.29,437.00
             585.29,431.29 592.74,430.03 596.96,431.74
             600.17,433.04 600.94,434.98 602.00,438.00 Z
           M 622.00,431.00
           C 622.00,431.00 622.00,435.00 622.00,435.00
             622.00,435.00 615.00,435.00 615.00,435.00
             615.00,435.00 615.00,453.00 615.00,453.00
             615.00,453.00 610.00,453.00 610.00,453.00
             610.00,453.00 610.00,435.00 610.00,435.00
             610.00,435.00 603.00,435.00 603.00,435.00
             603.00,435.00 603.00,431.00 603.00,431.00
             603.00,431.00 622.00,431.00 622.00,431.00 Z
           M 636.00,446.00
           C 642.10,434.08 638.51,431.12 649.00,431.00
             649.00,431.00 649.00,453.00 649.00,453.00
             649.00,453.00 644.00,453.00 644.00,453.00
             644.00,453.00 644.00,439.00 644.00,439.00
             644.00,439.00 639.00,453.00 639.00,453.00
             639.00,453.00 634.00,453.00 634.00,453.00
             634.00,453.00 630.00,439.00 630.00,439.00
             630.00,439.00 629.00,453.00 629.00,453.00
             629.00,453.00 624.00,453.00 624.00,453.00
             624.00,453.00 624.00,431.00 624.00,431.00
             625.57,431.02 628.20,430.91 629.61,431.57
             632.98,433.16 635.19,442.46 636.00,446.00 Z
           M 668.00,431.00
           C 668.00,431.00 668.00,435.00 668.00,435.00
             668.00,435.00 657.00,435.00 657.00,435.00
             657.00,435.00 657.00,439.00 657.00,439.00
             657.00,439.00 666.00,439.00 666.00,439.00
             666.00,439.00 666.00,443.00 666.00,443.00
             666.00,443.00 657.00,443.00 657.00,443.00
             657.00,443.00 657.00,449.00 657.00,449.00
             657.00,449.00 668.00,449.00 668.00,449.00
             668.00,449.00 668.00,453.00 668.00,453.00
             668.00,453.00 652.00,453.00 652.00,453.00
             652.00,453.00 652.00,431.00 652.00,431.00
             652.00,431.00 668.00,431.00 668.00,431.00 Z
           M 683.00,444.00
           C 683.00,444.00 684.00,431.00 684.00,431.00
             684.00,431.00 689.00,431.00 689.00,431.00
             689.00,431.00 689.00,453.00 689.00,453.00
             681.64,452.39 678.98,446.12 676.00,440.00
             676.00,440.00 675.00,453.00 675.00,453.00
             675.00,453.00 670.00,453.00 670.00,453.00
             670.00,453.00 670.00,431.00 670.00,431.00
             677.94,431.25 680.45,437.09 683.00,444.00 Z
           M 710.00,431.00
           C 710.00,431.00 710.00,435.00 710.00,435.00
             710.00,435.00 703.00,435.00 703.00,435.00
             703.00,435.00 703.00,453.00 703.00,453.00
             703.00,453.00 698.00,453.00 698.00,453.00
             698.00,453.00 698.00,435.00 698.00,435.00
             698.00,435.00 691.00,435.00 691.00,435.00
             691.00,435.00 691.00,431.00 691.00,431.00
             691.00,431.00 710.00,431.00 710.00,431.00 Z
           M 732.00,445.00
           C 732.00,445.00 738.00,442.00 738.00,442.00
             737.42,448.19 736.41,447.14 739.00,453.00
             733.62,452.87 721.61,454.89 720.37,447.98
             719.87,445.19 721.60,442.77 722.04,440.00
             722.37,437.87 721.76,435.31 723.03,433.43
             724.99,430.51 730.89,430.39 732.81,433.43
             735.48,437.67 730.20,438.60 732.00,445.00 Z
           M 171.21,435.79
           C 165.25,439.94 168.37,450.29 173.79,448.34
             177.74,446.93 179.36,434.90 171.21,435.79 Z
           M 261.22,436.08
           C 254.86,441.74 260.07,450.35 264.78,447.92
             269.30,445.59 269.26,434.39 261.22,436.08 Z
           M 491.22,436.08
           C 484.86,441.74 490.07,450.35 494.78,447.92
             499.30,445.59 499.26,434.39 491.22,436.08 Z
           M 726.00,435.00
           C 726.00,435.00 727.00,439.00 727.00,439.00
             727.00,439.00 730.00,435.00 730.00,435.00
             730.00,435.00 726.00,435.00 726.00,435.00 Z
           M 76.00,438.00
           C 76.00,438.00 74.00,445.00 74.00,445.00
             74.00,445.00 79.00,445.00 79.00,445.00
             79.00,445.00 76.00,438.00 76.00,438.00 Z
           M 725.00,444.00
           C 725.70,448.00 726.00,448.30 730.00,449.00
             730.00,449.00 727.00,444.00 727.00,444.00
             727.00,444.00 725.00,444.00 725.00,444.00 Z
           M 219.00,475.00
           C 218.03,481.96 212.82,487.32 209.00,493.00
             209.00,493.00 220.00,493.00 220.00,493.00
             220.00,493.00 220.00,497.00 220.00,497.00
             220.00,497.00 202.00,497.00 202.00,497.00
             202.99,490.49 208.79,483.97 213.00,479.00
             213.00,479.00 202.00,479.00 202.00,479.00
             202.00,479.00 202.00,475.00 202.00,475.00
             202.00,475.00 219.00,475.00 219.00,475.00 Z
           M 238.00,475.00
           C 238.00,475.00 238.00,479.00 238.00,479.00
             238.00,479.00 227.00,479.00 227.00,479.00
             227.00,479.00 227.00,483.00 227.00,483.00
             227.00,483.00 236.00,483.00 236.00,483.00
             236.00,483.00 236.00,487.00 236.00,487.00
             236.00,487.00 227.00,487.00 227.00,487.00
             227.00,487.00 227.00,493.00 227.00,493.00
             227.00,493.00 238.00,493.00 238.00,493.00
             238.00,493.00 238.00,497.00 238.00,497.00
             238.00,497.00 222.00,497.00 222.00,497.00
             222.00,497.00 222.00,475.00 222.00,475.00
             222.00,475.00 238.00,475.00 238.00,475.00 Z
           M 258.00,497.00
           C 247.47,496.66 253.53,491.80 245.00,489.00
             245.00,489.00 245.00,497.00 245.00,497.00
             245.00,497.00 240.00,497.00 240.00,497.00
             240.00,497.00 240.00,475.00 240.00,475.00
             244.51,475.00 253.36,473.88 255.98,478.23
             258.32,482.11 255.17,485.99 255.18,489.00
             255.18,491.19 257.09,494.88 258.00,497.00 Z
           M 267.00,475.43
           C 271.02,474.87 274.46,474.93 277.30,478.34
             281.75,483.69 280.30,494.55 272.98,496.57
             259.55,500.28 254.42,480.51 267.00,475.43 Z
           M 303.97,487.00
           C 303.97,487.00 308.00,497.00 308.00,497.00
             299.42,496.29 303.21,492.81 296.00,489.00
             296.00,489.00 296.00,497.00 296.00,497.00
             296.00,497.00 291.00,497.00 291.00,497.00
             291.00,497.00 291.00,475.00 291.00,475.00
             294.26,475.00 301.27,474.56 303.97,476.02
             309.03,478.81 308.81,484.11 303.97,487.00 Z
           M 327.00,475.00
           C 327.00,475.00 327.00,479.00 327.00,479.00
             327.00,479.00 316.00,479.00 316.00,479.00
             316.00,479.00 316.00,483.00 316.00,483.00
             316.00,483.00 325.00,483.00 325.00,483.00
             325.00,483.00 325.00,487.00 325.00,487.00
             325.00,487.00 316.00,487.00 316.00,487.00
             316.00,487.00 316.00,493.00 316.00,493.00
             316.00,493.00 327.00,493.00 327.00,493.00
             327.00,493.00 327.00,497.00 327.00,497.00
             327.00,497.00 311.00,497.00 311.00,497.00
             311.00,497.00 311.00,475.00 311.00,475.00
             311.00,475.00 327.00,475.00 327.00,475.00 Z
           M 347.00,482.00
           C 341.06,481.56 339.83,478.98 337.13,480.16
             333.53,481.75 333.31,487.97 335.60,490.69
             337.37,492.79 339.51,492.80 342.00,493.00
             342.00,493.00 342.00,489.00 342.00,489.00
             342.00,489.00 338.00,489.00 338.00,489.00
             338.00,489.00 338.00,485.00 338.00,485.00
             338.00,485.00 348.00,485.00 348.00,485.00
             348.00,487.87 348.43,492.24 346.40,494.49
             343.55,497.65 329.53,500.19 328.61,487.00
             328.37,483.50 329.28,478.96 332.23,476.74
             337.00,473.14 345.28,474.29 347.00,482.00 Z
           M 356.00,475.00
           C 356.00,475.00 356.00,497.00 356.00,497.00
             356.00,497.00 351.00,497.00 351.00,497.00
             351.00,497.00 351.00,475.00 351.00,475.00
             351.00,475.00 356.00,475.00 356.00,475.00 Z
           M 377.00,482.00
           C 377.00,482.00 365.00,480.00 365.00,480.00
             365.00,480.00 365.00,482.00 365.00,482.00
             367.23,482.89 372.10,484.69 373.85,485.99
             377.89,488.97 377.75,494.26 372.94,496.26
             366.67,498.87 361.44,495.83 359.00,490.00
             367.83,490.27 368.39,495.31 372.00,489.00
             369.97,488.53 367.91,488.09 366.00,487.20
             352.22,480.81 367.21,470.49 374.57,476.74
             376.37,478.26 376.54,479.88 377.00,482.00 Z
           M 397.00,475.00
           C 397.00,475.00 397.00,479.00 397.00,479.00
             397.00,479.00 390.00,479.00 390.00,479.00
             390.00,479.00 390.00,497.00 390.00,497.00
             390.00,497.00 385.00,497.00 385.00,497.00
             385.00,497.00 385.00,479.00 385.00,479.00
             385.00,479.00 378.00,479.00 378.00,479.00
             378.00,479.00 378.00,475.00 378.00,475.00
             378.00,475.00 397.00,475.00 397.00,475.00 Z
           M 412.97,487.00
           C 412.97,487.00 417.00,497.00 417.00,497.00
             408.42,496.29 412.21,492.81 405.00,489.00
             405.00,489.00 405.00,497.00 405.00,497.00
             405.00,497.00 400.00,497.00 400.00,497.00
             400.00,497.00 400.00,475.00 400.00,475.00
             403.26,475.00 410.27,474.56 412.97,476.02
             418.03,478.81 417.81,484.11 412.97,487.00 Z
           M 432.00,475.00
           C 432.00,475.00 440.00,497.00 440.00,497.00
             440.00,497.00 434.00,497.00 434.00,497.00
             429.74,489.44 425.92,495.14 422.63,496.45
             421.15,497.03 419.56,496.95 418.00,497.00
             418.00,497.00 426.00,475.00 426.00,475.00
             426.00,475.00 432.00,475.00 432.00,475.00 Z
           M 459.00,475.00
           C 459.00,475.00 459.00,479.00 459.00,479.00
             459.00,479.00 452.00,479.00 452.00,479.00
             452.00,479.00 452.00,497.00 452.00,497.00
             452.00,497.00 447.00,497.00 447.00,497.00
             447.00,497.00 447.00,479.00 447.00,479.00
             447.00,479.00 440.00,479.00 440.00,479.00
             440.00,479.00 440.00,475.00 440.00,475.00
             440.00,475.00 459.00,475.00 459.00,475.00 Z
           M 467.00,475.00
           C 467.00,475.00 467.00,497.00 467.00,497.00
             467.00,497.00 462.00,497.00 462.00,497.00
             462.00,497.00 462.00,475.00 462.00,475.00
             462.00,475.00 467.00,475.00 467.00,475.00 Z
           M 477.02,475.43
           C 480.58,474.92 483.76,474.74 486.61,477.43
             492.07,482.59 490.80,494.41 482.98,496.57
             469.69,500.24 464.75,480.51 477.02,475.43 Z
           M 506.00,488.00
           C 506.00,488.00 507.00,475.00 507.00,475.00
             507.00,475.00 512.00,475.00 512.00,475.00
             512.00,475.00 512.00,497.00 512.00,497.00
             504.06,496.75 501.55,490.91 499.00,484.00
             499.00,484.00 498.00,497.00 498.00,497.00
             498.00,497.00 493.00,497.00 493.00,497.00
             493.00,497.00 493.00,475.00 493.00,475.00
             500.57,475.62 502.92,481.69 506.00,488.00 Z
           M 539.00,475.00
           C 537.13,480.34 532.93,479.00 528.00,479.00
             528.00,479.00 528.00,484.00 528.00,484.00
             528.00,484.00 537.00,484.00 537.00,484.00
             537.00,484.00 537.00,488.00 537.00,488.00
             537.00,488.00 528.00,488.00 528.00,488.00
             528.00,488.00 528.00,497.00 528.00,497.00
             528.00,497.00 523.00,497.00 523.00,497.00
             523.00,497.00 523.00,475.00 523.00,475.00
             523.00,475.00 539.00,475.00 539.00,475.00 Z
           M 556.00,475.00
           C 556.00,475.00 556.00,479.00 556.00,479.00
             556.00,479.00 546.00,479.00 546.00,479.00
             546.00,479.00 546.00,483.00 546.00,483.00
             546.00,483.00 555.00,483.00 555.00,483.00
             555.00,483.00 555.00,487.00 555.00,487.00
             555.00,487.00 546.00,487.00 546.00,487.00
             546.00,487.00 546.00,493.00 546.00,493.00
             550.93,493.00 555.13,491.66 557.00,497.00
             557.00,497.00 541.00,497.00 541.00,497.00
             541.00,497.00 541.00,475.00 541.00,475.00
             541.00,475.00 556.00,475.00 556.00,475.00 Z
           M 574.00,475.00
           C 574.00,475.00 574.00,479.00 574.00,479.00
             574.00,479.00 564.00,479.00 564.00,479.00
             564.00,479.00 564.00,483.00 564.00,483.00
             564.00,483.00 573.00,483.00 573.00,483.00
             573.00,483.00 573.00,487.00 573.00,487.00
             573.00,487.00 564.00,487.00 564.00,487.00
             564.00,487.00 564.00,493.00 564.00,493.00
             568.93,493.00 573.13,491.66 575.00,497.00
             575.00,497.00 559.00,497.00 559.00,497.00
             559.00,497.00 559.00,475.00 559.00,475.00
             559.00,475.00 574.00,475.00 574.00,475.00 Z
           M 245.00,479.00
           C 245.00,479.00 245.00,485.00 245.00,485.00
             253.76,484.48 253.86,479.31 245.00,479.00 Z
           M 268.22,479.79
           C 262.27,483.90 265.30,494.05 270.87,492.29
             274.74,491.07 276.61,478.90 268.22,479.79 Z
           M 296.00,479.00
           C 296.00,479.00 296.00,485.00 296.00,485.00
             303.95,484.35 303.95,479.65 296.00,479.00 Z
           M 405.00,479.00
           C 405.00,479.00 405.00,485.00 405.00,485.00
             412.95,484.35 412.95,479.65 405.00,479.00 Z
           M 478.22,480.08
           C 471.86,485.74 477.07,494.35 481.78,491.92
             486.30,489.59 486.26,478.39 478.22,480.08 Z
           M 428.00,483.00
           C 428.00,483.00 427.00,489.00 427.00,489.00
             427.00,489.00 431.00,489.00 431.00,489.00
             431.00,489.00 428.00,483.00 428.00,483.00 Z
           M 579.18,492.91
           C 582.51,493.79 580.94,495.87 579.82,496.09
             578.69,496.32 576.45,494.99 579.18,492.91 Z
           M 351.00,539.00
           C 349.61,539.72 348.74,540.44 347.04,540.56
             340.49,541.01 340.74,529.39 346.21,526.18
             349.49,524.25 353.16,524.94 353.95,529.06
             353.95,529.06 353.95,534.00 353.95,534.00
             353.95,534.00 353.95,538.00 353.95,538.00
             361.97,533.21 357.11,520.17 348.00,521.27
             339.32,522.31 336.46,535.19 341.43,540.77
             344.94,544.73 349.38,543.51 354.00,544.00
             349.69,550.19 337.89,546.91 335.56,538.00
             333.98,531.97 335.96,524.31 341.04,520.51
             347.73,515.52 357.90,517.86 360.66,526.00
             362.92,532.70 359.83,545.38 351.00,539.00 Z
           M 38.00,519.00
           C 38.00,519.00 38.00,528.00 38.00,528.00
             42.37,522.06 43.33,519.27 51.00,519.00
             51.00,519.00 45.59,528.00 45.59,528.00
             44.67,531.83 49.69,537.27 52.00,540.00
             53.04,535.55 55.86,528.34 57.70,524.02
             58.62,521.85 59.96,519.10 62.82,519.44
             65.37,519.74 66.37,522.99 67.20,525.00
             67.20,525.00 73.00,541.00 73.00,541.00
             65.67,540.40 66.28,537.29 62.03,537.29
             58.93,537.29 57.85,539.57 55.63,540.45
             54.23,541.00 52.49,540.99 51.00,540.99
             44.55,540.99 43.23,538.81 41.00,533.00
             41.00,533.00 39.00,533.00 39.00,533.00
             39.00,533.00 38.00,541.00 38.00,541.00
             38.00,541.00 33.00,541.00 33.00,541.00
             33.00,541.00 33.00,519.00 33.00,519.00
             33.00,519.00 38.00,519.00 38.00,519.00 Z
           M 87.95,531.00
           C 87.95,531.00 93.00,541.00 93.00,541.00
             82.47,540.66 88.53,535.80 80.00,533.00
             80.00,533.00 80.00,541.00 80.00,541.00
             80.00,541.00 75.00,541.00 75.00,541.00
             75.00,541.00 75.00,519.00 75.00,519.00
             78.00,519.00 85.44,518.69 87.95,519.74
             92.86,521.87 93.36,527.98 87.95,531.00 Z
           M 100.00,519.00
           C 100.00,522.49 98.90,534.05 102.30,535.68
             104.60,536.78 106.42,534.92 107.26,532.94
             108.34,530.40 108.00,522.16 108.00,519.00
             108.00,519.00 113.00,519.00 113.00,519.00
             113.00,523.32 113.59,533.42 111.69,536.89
             108.68,542.38 99.09,542.35 96.02,536.89
             94.42,534.04 95.00,522.82 95.00,519.00
             95.00,519.00 100.00,519.00 100.00,519.00 Z
           M 129.00,532.00
           C 129.00,532.00 130.00,519.00 130.00,519.00
             130.00,519.00 135.00,519.00 135.00,519.00
             135.00,519.00 135.00,541.00 135.00,541.00
             127.64,540.39 124.98,534.12 122.00,528.00
             122.00,528.00 121.00,541.00 121.00,541.00
             121.00,541.00 116.00,541.00 116.00,541.00
             116.00,541.00 116.00,519.00 116.00,519.00
             123.94,519.25 126.45,525.09 129.00,532.00 Z
           M 158.00,541.00
           C 150.82,540.44 147.67,532.73 143.00,541.00
             143.00,541.00 137.00,541.00 137.00,541.00
             137.00,541.00 142.81,525.00 142.81,525.00
             143.52,523.24 144.48,520.37 146.40,519.63
             149.09,518.60 150.88,520.97 151.90,523.06
             153.80,526.95 157.33,536.75 158.00,541.00 Z
           M 165.00,519.00
           C 165.00,519.00 165.00,528.00 165.00,528.00
             170.61,521.52 170.37,519.10 179.00,519.00
             179.00,519.00 172.60,528.58 172.60,528.58
             172.60,528.58 179.00,540.00 179.00,540.00
             179.00,540.00 184.60,525.00 184.60,525.00
             185.37,523.18 186.36,520.41 188.35,519.62
             191.40,518.42 193.00,521.82 193.98,524.02
             196.21,529.00 198.79,535.72 200.00,541.00
             196.09,540.67 195.34,540.83 194.00,537.00
             194.00,537.00 185.00,537.00 185.00,537.00
             184.57,538.23 184.62,539.05 183.41,539.98
             181.07,541.76 174.74,541.19 172.52,539.40
             170.61,537.87 169.19,535.11 168.00,533.00
             168.00,533.00 165.00,541.00 165.00,541.00
             165.00,541.00 160.00,541.00 160.00,541.00
             160.00,541.00 160.00,519.00 160.00,519.00
             160.00,519.00 165.00,519.00 165.00,519.00 Z
           M 220.00,541.00
           C 210.45,540.21 215.69,535.70 207.00,533.00
             207.00,533.00 207.00,541.00 207.00,541.00
             207.00,541.00 202.00,541.00 202.00,541.00
             202.00,541.00 202.00,519.00 202.00,519.00
             207.07,519.00 216.12,517.72 218.78,523.11
             220.55,526.68 217.84,529.20 217.55,532.00
             217.31,534.32 219.27,538.43 220.00,541.00 Z
           M 236.00,533.00
           C 236.00,533.00 236.00,541.00 236.00,541.00
             236.00,541.00 231.00,541.00 231.00,541.00
             231.00,541.00 231.00,519.00 231.00,519.00
             234.40,519.00 242.05,518.51 244.81,520.17
             248.75,522.60 249.04,529.35 244.81,531.83
             242.51,533.21 238.68,532.99 236.00,533.00 Z
           M 271.00,541.00
           C 271.00,541.00 260.03,537.29 260.03,537.29
             260.03,537.29 250.00,541.00 250.00,541.00
             250.67,536.75 254.20,526.95 256.10,523.06
             257.12,520.97 258.91,518.60 261.60,519.63
             263.53,520.37 264.47,523.24 265.20,525.00
             265.20,525.00 271.00,541.00 271.00,541.00 Z
           M 290.00,519.00
           C 290.00,519.00 290.00,523.00 290.00,523.00
             290.00,523.00 283.00,523.00 283.00,523.00
             283.00,523.00 283.00,541.00 283.00,541.00
             283.00,541.00 278.00,541.00 278.00,541.00
             278.00,541.00 278.00,523.00 278.00,523.00
             278.00,523.00 271.00,523.00 271.00,523.00
             271.00,523.00 271.00,519.00 271.00,519.00
             271.00,519.00 290.00,519.00 290.00,519.00 Z
           M 308.00,519.00
           C 308.00,519.00 308.00,523.00 308.00,523.00
             308.00,523.00 298.00,523.00 298.00,523.00
             298.00,523.00 298.00,527.00 298.00,527.00
             298.00,527.00 307.00,527.00 307.00,527.00
             307.00,527.00 307.00,531.00 307.00,531.00
             307.00,531.00 298.00,531.00 298.00,531.00
             298.00,531.00 298.00,537.00 298.00,537.00
             298.00,537.00 308.00,537.00 308.00,537.00
             308.00,537.00 308.00,541.00 308.00,541.00
             308.00,541.00 293.00,541.00 293.00,541.00
             293.00,541.00 293.00,519.00 293.00,519.00
             293.00,519.00 308.00,519.00 308.00,519.00 Z
           M 316.00,519.00
           C 316.00,519.00 316.00,537.00 316.00,537.00
             316.00,537.00 326.00,537.00 326.00,537.00
             326.00,537.00 326.00,541.00 326.00,541.00
             326.00,541.00 311.00,541.00 311.00,541.00
             311.00,541.00 311.00,519.00 311.00,519.00
             311.00,519.00 316.00,519.00 316.00,519.00 Z
           M 384.00,541.00
           C 380.09,540.67 379.34,540.83 378.00,537.00
             378.00,537.00 369.00,537.00 369.00,537.00
             367.66,540.83 366.91,540.67 363.00,541.00
             364.03,536.61 366.82,529.28 368.60,525.00
             369.37,523.18 370.36,520.41 372.35,519.62
             375.40,518.42 377.00,521.82 377.98,524.02
             380.21,529.00 382.79,535.72 384.00,541.00 Z
           M 391.00,519.00
           C 391.00,519.00 391.00,537.00 391.00,537.00
             391.00,537.00 401.00,537.00 401.00,537.00
             401.00,537.00 401.00,541.00 401.00,541.00
             401.00,541.00 386.00,541.00 386.00,541.00
             386.00,541.00 386.00,519.00 386.00,519.00
             386.00,519.00 391.00,519.00 391.00,519.00 Z
           M 408.00,519.00
           C 408.00,519.00 408.00,537.00 408.00,537.00
             408.00,537.00 418.00,537.00 418.00,537.00
             418.00,537.00 418.00,541.00 418.00,541.00
             418.00,541.00 403.00,541.00 403.00,541.00
             403.00,541.00 403.00,519.00 403.00,519.00
             403.00,519.00 408.00,519.00 408.00,519.00 Z
           M 438.00,519.00
           C 438.00,519.00 438.00,523.00 438.00,523.00
             438.00,523.00 431.00,523.00 431.00,523.00
             431.00,523.00 431.00,541.00 431.00,541.00
             431.00,541.00 426.00,541.00 426.00,541.00
             426.00,541.00 426.00,523.00 426.00,523.00
             426.00,523.00 419.00,523.00 419.00,523.00
             419.00,523.00 419.00,519.00 419.00,519.00
             419.00,519.00 438.00,519.00 438.00,519.00 Z
           M 456.00,519.00
           C 456.00,519.00 456.00,523.00 456.00,523.00
             456.00,523.00 446.00,523.00 446.00,523.00
             446.00,523.00 446.00,527.00 446.00,527.00
             446.00,527.00 455.00,527.00 455.00,527.00
             455.00,527.00 455.00,531.00 455.00,531.00
             455.00,531.00 446.00,531.00 446.00,531.00
             446.00,531.00 446.00,537.00 446.00,537.00
             446.00,537.00 456.00,537.00 456.00,537.00
             456.00,537.00 456.00,541.00 456.00,541.00
             456.00,541.00 441.00,541.00 441.00,541.00
             441.00,541.00 441.00,519.00 441.00,519.00
             441.00,519.00 456.00,519.00 456.00,519.00 Z
           M 477.00,527.00
           C 470.25,526.48 470.20,523.42 467.09,523.91
             462.37,524.65 461.88,533.91 466.21,535.83
             469.44,537.26 469.91,533.58 477.00,533.00
             473.67,545.68 459.18,542.12 458.11,532.00
             456.61,517.91 472.93,513.53 477.00,527.00 Z
           M 484.00,519.00
           C 484.00,519.00 484.00,528.00 484.00,528.00
             484.00,528.00 493.00,528.00 493.00,528.00
             493.00,528.00 493.00,519.00 493.00,519.00
             493.00,519.00 498.00,519.00 498.00,519.00
             498.00,519.00 498.00,541.00 498.00,541.00
             498.00,541.00 493.00,541.00 493.00,541.00
             493.00,541.00 493.00,532.00 493.00,532.00
             493.00,532.00 484.00,532.00 484.00,532.00
             484.00,532.00 484.00,541.00 484.00,541.00
             484.00,541.00 479.00,541.00 479.00,541.00
             479.00,541.00 479.00,519.00 479.00,519.00
             479.00,519.00 484.00,519.00 484.00,519.00 Z
           M 515.00,532.00
           C 515.00,532.00 516.00,519.00 516.00,519.00
             516.00,519.00 521.00,519.00 521.00,519.00
             521.00,519.00 521.00,541.00 521.00,541.00
             513.25,540.37 510.90,534.50 508.00,528.00
             508.00,528.00 507.00,541.00 507.00,541.00
             507.00,541.00 502.00,541.00 502.00,541.00
             502.00,541.00 502.00,519.00 502.00,519.00
             503.48,519.05 505.24,518.94 506.62,519.57
             509.71,520.98 513.60,528.85 515.00,532.00 Z
           M 531.00,519.43
           C 535.02,518.87 538.46,518.93 541.30,522.34
             545.75,527.69 544.30,538.55 536.98,540.57
             523.55,544.28 518.42,524.51 531.00,519.43 Z
           M 564.00,519.00
           C 564.00,519.00 564.00,523.00 564.00,523.00
             564.00,523.00 557.00,523.00 557.00,523.00
             557.00,523.00 557.00,541.00 557.00,541.00
             557.00,541.00 552.00,541.00 552.00,541.00
             552.00,541.00 552.00,523.00 552.00,523.00
             552.00,523.00 545.00,523.00 545.00,523.00
             545.00,523.00 545.00,519.00 545.00,519.00
             545.00,519.00 564.00,519.00 564.00,519.00 Z
           M 579.97,531.00
           C 579.97,531.00 584.00,541.00 584.00,541.00
             575.42,540.29 579.21,536.81 572.00,533.00
             572.00,533.00 572.00,541.00 572.00,541.00
             572.00,541.00 567.00,541.00 567.00,541.00
             567.00,541.00 567.00,519.00 567.00,519.00
             570.26,519.00 577.27,518.56 579.97,520.02
             585.03,522.81 584.81,528.11 579.97,531.00 Z
           M 593.00,519.00
           C 593.00,519.00 593.00,541.00 593.00,541.00
             593.00,541.00 587.00,541.00 587.00,541.00
             587.00,541.00 587.00,519.00 587.00,519.00
             587.00,519.00 593.00,519.00 593.00,519.00 Z
           M 614.00,527.00
           C 608.24,526.05 607.75,523.48 605.02,523.91
             600.17,524.67 599.77,533.96 604.13,535.83
             607.21,537.15 608.08,533.98 614.00,533.00
             612.42,542.69 602.34,542.41 598.57,538.57
             596.04,536.00 595.91,532.39 596.02,529.00
             596.42,516.46 612.09,515.31 614.00,527.00 Z
           M 622.00,519.00
           C 622.00,519.00 622.00,528.00 622.00,528.00
             627.61,521.52 627.37,519.10 636.00,519.00
             636.00,519.00 629.60,528.58 629.60,528.58
             629.60,528.58 636.00,541.00 636.00,541.00
             629.00,540.75 628.35,538.94 625.00,533.00
             625.00,533.00 622.00,541.00 622.00,541.00
             622.00,541.00 617.00,541.00 617.00,541.00
             617.00,541.00 617.00,519.00 617.00,519.00
             617.00,519.00 622.00,519.00 622.00,519.00 Z
           M 654.00,526.00
           C 654.00,526.00 643.00,523.00 643.00,523.00
             645.54,530.66 653.71,527.57 653.71,534.99
             653.71,541.80 640.22,544.67 637.00,534.00
             644.54,534.55 645.49,539.14 649.00,533.00
             646.93,532.51 644.94,532.03 643.02,531.08
             627.55,523.45 651.49,510.87 654.00,526.00 Z
           M 678.93,530.00
           C 682.80,532.54 682.95,537.40 678.93,539.83
             676.05,541.49 668.46,541.00 665.00,541.00
             665.00,541.00 665.00,519.00 665.00,519.00
             669.86,519.00 684.87,517.57 680.95,527.00
             680.43,528.26 679.73,528.95 678.93,530.00 Z
           M 691.00,519.00
           C 691.00,519.00 691.00,537.00 691.00,537.00
             691.00,537.00 701.00,537.00 701.00,537.00
             701.00,537.00 701.00,541.00 701.00,541.00
             701.00,541.00 686.00,541.00 686.00,541.00
             686.00,541.00 686.00,519.00 686.00,519.00
             686.00,519.00 691.00,519.00 691.00,519.00 Z
           M 709.02,519.43
           C 712.58,518.92 715.76,518.74 718.61,521.43
             724.07,526.59 722.80,538.41 714.98,540.57
             701.69,544.24 696.75,524.51 709.02,519.43 Z
           M 743.00,526.00
           C 737.06,525.56 735.83,522.98 733.13,524.16
             729.53,525.75 729.31,531.97 731.60,534.69
             733.37,536.79 735.51,536.80 738.00,537.00
             738.00,537.00 738.00,533.00 738.00,533.00
             738.00,533.00 734.00,533.00 734.00,533.00
             734.00,533.00 734.00,529.00 734.00,529.00
             734.00,529.00 744.00,529.00 744.00,529.00
             744.00,531.87 744.43,536.24 742.40,538.49
             739.55,541.65 725.53,544.19 724.61,531.00
             724.37,527.50 725.28,522.96 728.23,520.74
             733.00,517.14 741.28,518.29 743.00,526.00 Z
           M 80.00,523.00
           C 80.00,523.00 80.00,529.00 80.00,529.00
             87.77,528.36 89.06,523.32 80.00,523.00 Z
           M 207.00,523.00
           C 207.00,523.00 207.00,529.00 207.00,529.00
             215.78,528.69 215.78,523.31 207.00,523.00 Z
           M 236.00,523.00
           C 236.00,523.00 236.00,529.00 236.00,529.00
             244.78,528.69 244.78,523.31 236.00,523.00 Z
           M 532.22,523.79
           C 526.27,527.90 529.30,538.05 534.87,536.29
             538.74,535.07 540.61,522.90 532.22,523.79 Z
           M 572.00,523.00
           C 572.00,523.00 572.00,529.00 572.00,529.00
             579.95,528.35 579.95,523.65 572.00,523.00 Z
           M 670.00,523.00
           C 670.00,523.00 670.00,528.00 670.00,528.00
             674.14,527.66 674.91,527.71 677.00,524.00
             677.00,524.00 670.00,523.00 670.00,523.00 Z
           M 710.22,524.08
           C 703.86,529.74 709.07,538.35 713.78,535.92
             718.30,533.59 718.26,522.39 710.22,524.08 Z
           M 62.00,526.00
           C 62.00,526.00 60.00,533.00 60.00,533.00
             60.00,533.00 65.00,533.00 65.00,533.00
             65.00,533.00 62.00,526.00 62.00,526.00 Z
           M 147.00,526.00
           C 147.00,526.00 145.00,533.00 145.00,533.00
             145.00,533.00 150.00,533.00 150.00,533.00
             150.00,533.00 147.00,526.00 147.00,526.00 Z
           M 189.00,526.00
           C 189.00,526.00 187.00,533.00 187.00,533.00
             187.00,533.00 192.00,533.00 192.00,533.00
             192.00,533.00 189.00,526.00 189.00,526.00 Z
           M 260.00,526.00
           C 260.00,526.00 258.00,533.00 258.00,533.00
             258.00,533.00 263.00,533.00 263.00,533.00
             263.00,533.00 260.00,526.00 260.00,526.00 Z
           M 373.00,526.00
           C 373.00,526.00 371.00,533.00 371.00,533.00
             371.00,533.00 376.00,533.00 376.00,533.00
             376.00,533.00 373.00,526.00 373.00,526.00 Z
           M 347.00,538.00
           C 347.00,538.00 349.00,538.00 349.00,538.00
             349.00,538.00 351.00,528.00 351.00,528.00
             345.52,529.82 345.62,532.97 347.00,538.00 Z
           M 670.00,532.00
           C 670.00,532.00 670.00,537.00 670.00,537.00
             674.79,536.83 676.12,537.03 677.00,532.00
             677.00,532.00 670.00,532.00 670.00,532.00 Z
           M 749.18,536.91
           C 752.51,537.79 750.94,539.87 749.82,540.09
             748.69,540.32 746.45,538.99 749.18,536.91 Z" />
</svg>
