<?xml version="1.0" encoding="UTF-8" standalone="no"?>
<!DOCTYPE svg PUBLIC "-//W3C//DTD SVG 20010904//EN"
              "http://www.w3.org/TR/2001/REC-SVG-20010904/DTD/svg10.dtd">

<svg xmlns="http://www.w3.org/2000/svg"
					style="background-color: #049C4A"
					viewBox="0 0 767 551">
  <path id="Selection"
        fill="white" stroke="none" stroke-width="0"
        d="M 121.00,42.00
           C 121.00,42.00 124.79,60.00 124.79,60.00
             125.22,61.99 125.72,65.74 127.54,66.92
             129.59,68.26 131.15,66.64 131.98,64.85
             133.28,62.06 134.73,54.21 135.00,51.00
             135.00,51.00 137.00,51.00 137.00,51.00
             137.28,54.30 139.00,65.08 141.56,66.98
             142.87,67.95 144.47,67.87 146.00,68.00
             146.00,68.00 151.00,42.00 151.00,42.00
             151.00,42.00 147.16,43.57 147.16,43.57
             147.16,43.57 143.00,61.00 143.00,61.00
             143.00,61.00 137.86,43.57 137.86,43.57
             137.86,43.57 134.00,42.00 134.00,42.00
             134.00,42.00 130.00,60.00 130.00,60.00
             127.41,54.53 126.28,48.04 126.00,42.00
             126.00,42.00 121.00,42.00 121.00,42.00 Z
           M 164.00,42.65
           C 148.81,45.80 152.08,68.50 166.00,67.36
             179.17,66.28 180.78,42.83 164.00,42.65 Z
           M 181.00,42.00
           C 181.00,42.00 181.00,68.00 181.00,68.00
             181.00,68.00 185.00,68.00 185.00,68.00
             185.00,68.00 185.00,58.00 185.00,58.00
             196.33,58.94 189.35,67.15 200.00,68.00
             200.00,68.00 195.00,56.00 195.00,56.00
             200.17,53.16 201.19,47.32 195.87,43.98
             192.33,41.77 185.13,42.00 181.00,42.00 Z
           M 205.00,42.00
           C 205.00,42.00 205.00,68.00 205.00,68.00
             205.00,68.00 209.00,68.00 209.00,68.00
             209.08,62.13 209.15,61.59 213.00,57.00
             215.98,63.11 217.72,67.41 225.00,68.00
             225.00,68.00 217.68,53.00 217.68,53.00
             217.68,53.00 225.00,42.00 225.00,42.00
             215.47,42.33 216.52,47.26 209.00,54.00
             209.00,54.00 209.00,42.00 209.00,42.00
             209.00,42.00 205.00,42.00 205.00,42.00 Z
           M 238.00,42.00
           C 238.00,42.00 238.00,68.00 238.00,68.00
             238.00,68.00 242.00,68.00 242.00,68.00
             242.00,68.00 242.00,57.00 242.00,57.00
             242.00,57.00 253.00,57.00 253.00,57.00
             253.00,57.00 253.00,53.00 253.00,53.00
             253.00,53.00 242.00,53.00 242.00,53.00
             242.00,53.00 242.00,46.00 242.00,46.00
             242.00,46.00 254.00,46.00 254.00,46.00
             254.00,46.00 254.00,42.00 254.00,42.00
             254.00,42.00 238.00,42.00 238.00,42.00 Z
           M 258.00,42.00
           C 258.00,42.00 258.00,68.00 258.00,68.00
             258.00,68.00 263.00,68.00 263.00,68.00
             263.00,68.00 263.00,58.00 263.00,58.00
             273.15,59.73 267.31,67.12 278.00,68.00
             276.72,65.58 273.12,60.02 273.58,57.42
             273.99,55.11 277.50,52.38 276.53,48.04
             274.96,41.07 263.43,42.00 258.00,42.00 Z
           M 291.00,42.65
           C 275.81,45.80 279.08,68.50 293.00,67.36
             306.17,66.28 307.78,42.83 291.00,42.65 Z
           M 308.00,42.00
           C 308.00,42.00 308.00,68.00 308.00,68.00
             308.00,68.00 312.00,68.00 312.00,68.00
             312.00,68.00 312.00,49.00 312.00,49.00
             312.00,49.00 319.81,66.41 319.81,66.41
             319.81,66.41 323.00,68.00 323.00,68.00
             323.00,68.00 330.00,49.00 330.00,49.00
             330.00,49.00 330.00,68.00 330.00,68.00
             330.00,68.00 335.00,68.00 335.00,68.00
             335.00,68.00 335.00,42.00 335.00,42.00
             335.00,42.00 328.00,42.00 328.00,42.00
             328.00,42.00 321.00,61.00 321.00,61.00
             321.00,61.00 313.49,43.02 313.49,43.02
             313.49,43.02 308.00,42.00 308.00,42.00 Z
           M 350.00,42.00
           C 350.00,42.00 350.00,68.00 350.00,68.00
             350.00,68.00 354.00,68.00 354.00,68.00
             354.00,68.00 354.00,56.00 354.00,56.00
             354.00,56.00 366.00,56.00 366.00,56.00
             366.00,56.00 366.00,68.00 366.00,68.00
             366.00,68.00 371.00,68.00 371.00,68.00
             371.00,68.00 371.00,42.00 371.00,42.00
             371.00,42.00 366.00,42.00 366.00,42.00
             366.00,42.00 366.00,52.00 366.00,52.00
             366.00,52.00 354.00,52.00 354.00,52.00
             354.00,52.00 354.00,42.00 354.00,42.00
             354.00,42.00 350.00,42.00 350.00,42.00 Z
           M 385.00,42.65
           C 369.81,45.80 373.08,68.50 387.00,67.36
             400.17,66.28 401.78,42.83 385.00,42.65 Z
           M 402.00,42.00
           C 402.00,42.00 402.00,68.00 402.00,68.00
             402.00,68.00 406.00,68.00 406.00,68.00
             406.00,68.00 406.00,49.00 406.00,49.00
             406.00,49.00 413.81,66.41 413.81,66.41
             413.81,66.41 417.00,68.00 417.00,68.00
             417.00,68.00 424.00,49.00 424.00,49.00
             424.00,49.00 424.00,68.00 424.00,68.00
             424.00,68.00 429.00,68.00 429.00,68.00
             429.00,68.00 429.00,42.00 429.00,42.00
             429.00,42.00 422.00,42.00 422.00,42.00
             422.00,42.00 415.00,61.00 415.00,61.00
             415.00,61.00 407.49,43.02 407.49,43.02
             407.49,43.02 402.00,42.00 402.00,42.00 Z
           M 435.00,42.00
           C 435.00,42.00 435.00,68.00 435.00,68.00
             435.00,68.00 451.00,68.00 451.00,68.00
             451.00,68.00 451.00,64.00 451.00,64.00
             451.00,64.00 439.00,64.00 439.00,64.00
             439.00,64.00 439.00,56.00 439.00,56.00
             439.00,56.00 450.00,56.00 450.00,56.00
             450.00,56.00 450.00,52.00 450.00,52.00
             450.00,52.00 439.00,52.00 439.00,52.00
             439.00,52.00 439.00,46.00 439.00,46.00
             439.00,46.00 451.00,46.00 451.00,46.00
             451.00,46.00 451.00,42.00 451.00,42.00
             451.00,42.00 435.00,42.00 435.00,42.00 Z
           M 465.00,42.00
           C 465.00,42.00 465.00,68.00 465.00,68.00
             465.00,68.00 469.00,68.00 469.00,68.00
             469.00,68.00 469.00,57.00 469.00,57.00
             469.00,57.00 480.00,57.00 480.00,57.00
             480.00,57.00 480.00,53.00 480.00,53.00
             480.00,53.00 469.00,53.00 469.00,53.00
             469.00,53.00 469.00,46.00 469.00,46.00
             469.00,46.00 481.00,46.00 481.00,46.00
             481.00,46.00 481.00,42.00 481.00,42.00
             481.00,42.00 465.00,42.00 465.00,42.00 Z
           M 494.00,42.57
           C 478.60,46.49 483.49,69.65 497.00,67.38
             509.46,65.29 510.15,42.27 494.00,42.57 Z
           M 511.00,42.00
           C 511.00,42.00 511.00,68.00 511.00,68.00
             511.00,68.00 516.00,68.00 516.00,68.00
             516.00,68.00 516.00,58.00 516.00,58.00
             526.15,59.73 520.31,67.12 531.00,68.00
             529.72,65.58 526.12,60.02 526.58,57.42
             526.99,55.11 530.50,52.38 529.53,48.04
             527.96,41.07 516.43,42.00 511.00,42.00 Z
           M 544.00,42.00
           C 544.00,42.00 544.00,68.00 544.00,68.00
             544.00,68.00 549.00,68.00 549.00,68.00
             549.00,68.00 549.00,57.00 549.00,57.00
             549.00,57.00 559.00,57.00 559.00,57.00
             559.00,57.00 559.00,53.00 559.00,53.00
             559.00,53.00 549.00,53.00 549.00,53.00
             549.00,53.00 549.00,46.00 549.00,46.00
             549.00,46.00 561.00,46.00 561.00,46.00
             561.00,46.00 561.00,42.00 561.00,42.00
             561.00,42.00 544.00,42.00 544.00,42.00 Z
           M 565.00,42.00
           C 565.00,42.00 565.00,68.00 565.00,68.00
             565.00,68.00 569.00,68.00 569.00,68.00
             569.00,68.00 569.00,58.00 569.00,58.00
             579.60,59.75 573.98,67.20 584.00,68.00
             584.00,68.00 579.00,56.00 579.00,56.00
             583.77,53.31 584.60,47.03 579.85,43.98
             576.42,41.78 569.05,42.00 565.00,42.00 Z
           M 589.00,42.00
           C 589.00,42.00 589.00,68.00 589.00,68.00
             589.00,68.00 605.00,68.00 605.00,68.00
             605.00,68.00 605.00,64.00 605.00,64.00
             605.00,64.00 593.00,64.00 593.00,64.00
             593.00,64.00 593.00,56.00 593.00,56.00
             593.00,56.00 604.00,56.00 604.00,56.00
             604.00,56.00 604.00,52.00 604.00,52.00
             604.00,52.00 593.00,52.00 593.00,52.00
             593.00,52.00 593.00,46.00 593.00,46.00
             593.00,46.00 605.00,46.00 605.00,46.00
             605.00,46.00 605.00,42.00 605.00,42.00
             605.00,42.00 589.00,42.00 589.00,42.00 Z
           M 610.00,42.00
           C 610.00,42.00 610.00,68.00 610.00,68.00
             610.00,68.00 626.00,68.00 626.00,68.00
             626.00,68.00 626.00,64.00 626.00,64.00
             626.00,64.00 614.00,64.00 614.00,64.00
             614.00,64.00 614.00,56.00 614.00,56.00
             614.00,56.00 625.00,56.00 625.00,56.00
             625.00,56.00 625.00,52.00 625.00,52.00
             625.00,52.00 614.00,52.00 614.00,52.00
             614.00,52.00 614.00,46.00 614.00,46.00
             614.00,46.00 626.00,46.00 626.00,46.00
             626.00,46.00 626.00,42.00 626.00,42.00
             626.00,42.00 610.00,42.00 610.00,42.00 Z
           M 164.04,46.54
           C 174.37,46.82 172.19,62.64 165.96,63.58
             158.19,64.75 155.59,49.85 164.04,46.54 Z
           M 185.00,54.00
           C 185.00,54.00 185.00,46.00 185.00,46.00
             187.16,46.01 190.87,45.79 192.68,47.02
             195.32,48.82 194.79,52.11 191.85,53.40
             190.21,54.12 186.85,53.99 185.00,54.00 Z
           M 263.00,54.00
           C 263.00,54.00 263.00,46.00 263.00,46.00
             265.00,46.03 267.97,45.87 269.69,47.02
             272.00,48.57 272.42,52.05 269.69,53.40
             268.21,54.13 264.71,53.99 263.00,54.00 Z
           M 291.04,46.54
           C 301.37,46.82 299.19,62.64 292.96,63.58
             285.19,64.75 282.59,49.85 291.04,46.54 Z
           M 385.04,46.54
           C 395.37,46.82 393.19,62.64 386.96,63.58
             379.19,64.75 376.59,49.85 385.04,46.54 Z
           M 494.10,46.49
           C 504.76,46.43 502.88,62.55 496.00,63.58
             488.60,64.68 485.65,50.19 494.10,46.49 Z
           M 516.00,54.00
           C 516.00,54.00 516.00,46.00 516.00,46.00
             518.00,46.03 520.97,45.87 522.69,47.02
             525.00,48.57 525.42,52.05 522.69,53.40
             521.21,54.13 517.71,53.99 516.00,54.00 Z
           M 569.00,54.00
           C 569.00,54.00 569.00,46.00 569.00,46.00
             571.13,46.01 574.79,45.78 576.57,47.02
             579.04,48.76 578.85,52.07 575.85,53.40
             574.23,54.12 570.84,53.99 569.00,54.00 Z
           M 631.00,63.00
           C 631.00,63.00 631.00,67.00 631.00,67.00
             631.00,67.00 636.00,66.00 636.00,66.00
             636.00,66.00 631.00,63.00 631.00,63.00 Z
           M 271.00,139.00
           C 271.00,139.00 245.00,139.00 245.00,139.00
             245.00,139.00 245.00,149.00 245.00,149.00
             245.00,149.00 258.00,149.00 258.00,149.00
             258.00,151.96 258.42,158.39 256.98,160.78
             252.74,167.81 239.99,164.96 235.21,159.89
             229.58,153.92 229.99,146.57 230.00,139.00
             230.01,132.78 230.59,125.91 235.22,121.21
             243.52,112.79 254.77,117.04 258.00,128.00
             258.00,128.00 271.00,128.00 271.00,128.00
             268.76,103.30 240.87,102.53 229.00,110.13
             218.54,116.84 215.55,131.35 216.04,143.00
             216.61,156.59 221.75,170.09 236.00,174.21
             244.50,176.67 265.15,175.60 269.98,166.90
             271.20,164.70 271.00,161.47 271.00,159.00
             271.00,159.00 271.00,139.00 271.00,139.00 Z
           M 654.00,154.00
           C 654.00,154.00 641.00,154.00 641.00,154.00
             641.74,169.08 655.98,176.79 670.00,175.68
             678.59,174.99 688.46,172.22 691.35,163.00
             695.96,148.28 684.08,140.01 672.00,135.69
             667.45,134.07 658.09,131.42 656.96,125.98
             655.96,121.12 661.90,117.51 666.00,117.11
             672.92,116.44 676.83,119.65 679.00,126.00
             679.00,126.00 692.00,126.00 692.00,126.00
             690.72,99.82 649.53,101.05 643.80,120.00
             639.31,134.83 653.50,141.97 665.00,146.00
             669.74,147.66 677.52,150.26 678.46,156.00
             679.38,161.58 673.71,164.55 669.00,164.90
             660.65,165.53 656.31,161.82 654.00,154.00 Z
           M 80.00,107.00
           C 80.00,107.00 80.00,175.00 80.00,175.00
             80.00,175.00 93.00,175.00 93.00,175.00
             93.00,175.00 93.00,153.00 93.00,153.00
             93.00,153.00 92.00,138.00 92.00,138.00
             92.00,138.00 92.00,124.00 92.00,124.00
             92.00,124.00 104.95,159.00 104.95,159.00
             104.95,159.00 110.81,173.40 110.81,173.40
             110.81,173.40 120.00,175.00 120.00,175.00
             120.00,175.00 125.95,158.00 125.95,158.00
             125.95,158.00 138.00,124.00 138.00,124.00
             138.00,124.00 138.00,138.00 138.00,138.00
             138.00,138.00 137.00,175.00 137.00,175.00
             137.00,175.00 151.00,175.00 151.00,175.00
             151.00,175.00 151.00,107.00 151.00,107.00
             151.00,107.00 133.51,108.02 133.51,108.02
             133.51,108.02 127.81,121.00 127.81,121.00
             127.81,121.00 115.00,156.00 115.00,156.00
             115.00,156.00 98.00,107.00 98.00,107.00
             98.00,107.00 80.00,107.00 80.00,107.00 Z
           M 164.00,107.00
           C 164.00,107.00 164.00,175.00 164.00,175.00
             164.00,175.00 209.00,175.00 209.00,175.00
             209.00,175.00 209.00,164.00 209.00,164.00
             209.00,164.00 177.00,164.00 177.00,164.00
             177.00,164.00 177.00,145.00 177.00,145.00
             177.00,145.00 204.00,145.00 204.00,145.00
             204.00,145.00 204.00,134.00 204.00,134.00
             204.00,134.00 177.00,134.00 177.00,134.00
             177.00,134.00 177.00,118.00 177.00,118.00
             177.00,118.00 209.00,118.00 209.00,118.00
             209.00,118.00 209.00,107.00 209.00,107.00
             209.00,107.00 164.00,107.00 164.00,107.00 Z
           M 278.00,175.00
           C 278.00,175.00 292.00,175.00 292.00,175.00
             292.67,172.05 294.60,164.59 296.70,162.60
             298.62,160.78 301.55,161.02 304.00,161.00
             307.80,160.98 318.72,160.15 321.30,162.60
             323.40,164.59 325.33,172.05 326.00,175.00
             326.00,175.00 340.00,175.00 340.00,175.00
             339.03,168.79 335.89,161.99 333.68,156.00
             333.68,156.00 320.32,120.00 320.32,120.00
             317.35,111.95 316.09,104.25 305.11,107.31
             300.45,108.61 297.86,119.66 296.31,124.00
             296.31,124.00 278.00,175.00 278.00,175.00 Z
           M 344.00,107.00
           C 344.00,107.00 344.00,118.00 344.00,118.00
             344.00,118.00 364.00,118.00 364.00,118.00
             364.00,118.00 364.00,175.00 364.00,175.00
             364.00,175.00 378.00,175.00 378.00,175.00
             378.00,175.00 378.00,118.00 378.00,118.00
             378.00,118.00 399.00,118.00 399.00,118.00
             399.00,118.00 399.00,107.00 399.00,107.00
             399.00,107.00 344.00,107.00 344.00,107.00 Z
           M 402.00,107.00
           C 402.00,107.00 418.25,140.00 418.25,140.00
             421.53,146.56 423.90,149.45 424.00,157.00
             424.00,157.00 424.00,175.00 424.00,175.00
             424.00,175.00 437.00,175.00 437.00,175.00
             437.00,175.00 437.64,150.00 437.64,150.00
             437.64,150.00 444.24,137.00 444.24,137.00
             444.24,137.00 459.00,107.00 459.00,107.00
             459.00,107.00 445.39,108.02 445.39,108.02
             445.39,108.02 439.58,118.00 439.58,118.00
             439.58,118.00 430.00,138.00 430.00,138.00
             430.00,138.00 420.31,116.00 420.31,116.00
             420.31,116.00 415.61,108.02 415.61,108.02
             415.61,108.02 402.00,107.00 402.00,107.00 Z
           M 467.00,107.00
           C 467.00,107.00 467.00,175.00 467.00,175.00
             467.00,175.00 480.00,175.00 480.00,175.00
             480.00,175.00 480.00,151.00 480.00,151.00
             489.49,151.00 501.78,151.47 509.97,146.03
             521.24,138.57 520.55,119.57 509.97,111.80
             500.56,104.90 478.78,107.00 467.00,107.00 Z
           M 529.00,107.00
           C 529.00,107.00 529.00,175.00 529.00,175.00
             529.00,175.00 573.00,175.00 573.00,175.00
             573.00,175.00 573.00,164.00 573.00,164.00
             573.00,164.00 542.00,164.00 542.00,164.00
             542.00,164.00 542.00,145.00 542.00,145.00
             542.00,145.00 569.00,145.00 569.00,145.00
             569.00,145.00 569.00,134.00 569.00,134.00
             569.00,134.00 542.00,134.00 542.00,134.00
             542.00,134.00 542.00,118.00 542.00,118.00
             542.00,118.00 573.00,118.00 573.00,118.00
             573.00,118.00 573.00,107.00 573.00,107.00
             573.00,107.00 529.00,107.00 529.00,107.00 Z
           M 583.00,107.00
           C 583.00,107.00 583.00,175.00 583.00,175.00
             583.00,175.00 596.00,175.00 596.00,175.00
             596.00,175.00 596.00,150.00 596.00,150.00
             596.00,150.00 606.79,151.02 606.79,151.02
             606.79,151.02 620.53,173.01 620.53,173.01
             620.53,173.01 634.00,174.00 634.00,174.00
             634.00,174.00 620.00,146.00 620.00,146.00
             622.67,144.78 624.64,143.93 626.79,141.79
             635.43,133.18 633.60,116.48 623.00,110.36
             614.46,105.44 593.40,107.00 583.00,107.00 Z
           M 480.00,140.00
           C 480.00,140.00 480.00,118.00 480.00,118.00
             483.84,118.00 495.01,117.58 498.00,118.74
             506.12,121.89 507.26,133.44 499.95,138.15
             495.76,140.84 485.19,140.00 480.00,140.00 Z
           M 596.00,139.00
           C 596.00,139.00 596.00,118.00 596.00,118.00
             600.21,118.00 610.61,117.37 613.95,119.17
             620.16,122.53 620.63,132.97 614.79,136.91
             610.57,139.76 601.16,139.00 596.00,139.00 Z
           M 309.00,124.00
           C 309.00,124.00 318.00,150.00 318.00,150.00
             318.00,150.00 300.00,150.00 300.00,150.00
             300.00,150.00 309.00,124.00 309.00,124.00 Z
           M 60.00,240.53
           C 32.21,248.75 34.12,289.48 48.18,302.67
             52.69,306.91 58.01,308.60 64.00,309.40
             67.69,309.89 71.40,309.40 75.00,308.49
             98.94,302.38 102.30,262.92 86.68,247.32
             79.49,240.15 69.58,238.96 60.00,240.53 Z
           M 730.00,273.00
           C 730.00,273.00 704.00,273.00 704.00,273.00
             704.00,273.00 704.00,283.00 704.00,283.00
             704.00,283.00 717.00,283.00 717.00,283.00
             717.00,285.91 717.43,292.32 715.98,294.66
             711.42,302.02 699.06,298.99 694.13,293.90
             689.29,288.89 689.01,283.52 689.00,277.00
             688.99,267.39 689.04,252.38 702.00,251.11
             706.35,250.69 710.60,251.91 713.59,255.21
             715.52,257.34 716.12,259.85 717.69,261.01
             719.72,262.49 727.26,262.00 730.00,262.00
             728.80,256.04 727.44,250.67 722.82,246.33
             714.03,238.07 695.31,237.99 686.01,245.39
             678.04,251.74 675.12,262.18 675.00,272.00
             674.84,285.72 676.96,300.33 691.00,307.03
             699.01,310.51 710.75,309.98 719.00,307.03
             722.28,306.16 727.21,303.92 728.98,300.82
             730.20,298.67 730.00,295.43 730.00,293.00
             730.00,293.00 730.00,273.00 730.00,273.00 Z
           M 107.00,241.00
           C 107.00,241.00 107.00,309.00 107.00,309.00
             107.00,309.00 120.00,309.00 120.00,309.00
             120.00,309.00 120.00,264.00 120.00,264.00
             120.00,264.00 139.58,295.00 139.58,295.00
             139.58,295.00 148.38,307.98 148.38,307.98
             148.38,307.98 161.00,309.00 161.00,309.00
             161.00,309.00 161.00,241.00 161.00,241.00
             161.00,241.00 148.00,241.00 148.00,241.00
             148.00,241.00 148.00,286.00 148.00,286.00
             148.00,286.00 127.81,253.00 127.81,253.00
             123.87,246.57 123.05,241.14 115.00,241.00
             115.00,241.00 107.00,241.00 107.00,241.00 Z
           M 175.00,241.00
           C 175.00,241.00 175.00,309.00 175.00,309.00
             175.00,309.00 218.00,309.00 218.00,309.00
             218.00,309.00 218.00,298.00 218.00,298.00
             218.00,298.00 188.00,298.00 188.00,298.00
             188.00,298.00 188.00,241.00 188.00,241.00
             188.00,241.00 175.00,241.00 175.00,241.00 Z
           M 228.00,241.00
           C 228.00,241.00 228.00,309.00 228.00,309.00
             228.00,309.00 241.00,309.00 241.00,309.00
             241.00,309.00 241.00,241.00 241.00,241.00
             241.00,241.00 228.00,241.00 228.00,241.00 Z
           M 255.00,241.00
           C 255.00,241.00 255.00,309.00 255.00,309.00
             255.00,309.00 268.00,309.00 268.00,309.00
             268.00,309.00 268.00,264.00 268.00,264.00
             268.00,264.00 287.20,295.00 287.20,295.00
             287.20,295.00 296.32,307.98 296.32,307.98
             296.32,307.98 309.00,309.00 309.00,309.00
             309.00,309.00 309.00,241.00 309.00,241.00
             309.00,241.00 296.00,241.00 296.00,241.00
             296.00,241.00 296.00,286.00 296.00,286.00
             296.00,286.00 276.80,255.00 276.80,255.00
             276.80,255.00 267.79,242.02 267.79,242.02
             267.79,242.02 255.00,241.00 255.00,241.00 Z
           M 323.00,241.00
           C 323.00,241.00 323.00,309.00 323.00,309.00
             323.00,309.00 367.00,309.00 367.00,309.00
             367.00,309.00 367.00,298.00 367.00,298.00
             367.00,298.00 336.00,298.00 336.00,298.00
             336.00,298.00 336.00,279.00 336.00,279.00
             336.00,279.00 363.00,279.00 363.00,279.00
             363.00,279.00 363.00,268.00 363.00,268.00
             363.00,268.00 336.00,268.00 336.00,268.00
             336.00,268.00 336.00,252.00 336.00,252.00
             336.00,252.00 367.00,252.00 367.00,252.00
             367.00,252.00 367.00,241.00 367.00,241.00
             367.00,241.00 323.00,241.00 323.00,241.00 Z
           M 396.00,241.00
           C 396.00,241.00 396.00,252.00 396.00,252.00
             396.00,252.00 417.00,252.00 417.00,252.00
             417.00,252.00 417.00,309.00 417.00,309.00
             417.00,309.00 430.00,309.00 430.00,309.00
             430.00,309.00 430.00,252.00 430.00,252.00
             430.00,252.00 451.00,252.00 451.00,252.00
             451.00,252.00 451.00,241.00 451.00,241.00
             451.00,241.00 396.00,241.00 396.00,241.00 Z
           M 454.00,241.00
           C 454.00,241.00 469.25,271.00 469.25,271.00
             472.68,277.87 475.89,282.13 476.00,290.00
             476.00,290.00 476.00,309.00 476.00,309.00
             476.00,309.00 490.00,309.00 490.00,309.00
             490.00,309.00 490.64,283.00 490.64,283.00
             490.64,283.00 511.00,241.00 511.00,241.00
             511.00,241.00 497.63,241.99 497.63,241.99
             497.63,241.99 492.00,252.00 492.00,252.00
             492.00,252.00 483.00,272.00 483.00,272.00
             483.00,272.00 473.26,251.00 473.26,251.00
             473.26,251.00 468.35,241.99 468.35,241.99
             468.35,241.99 454.00,241.00 454.00,241.00 Z
           M 519.00,241.00
           C 519.00,241.00 519.00,309.00 519.00,309.00
             519.00,309.00 532.00,309.00 532.00,309.00
             532.00,309.00 532.00,285.00 532.00,285.00
             540.66,285.00 553.42,285.33 561.00,280.78
             573.19,273.45 573.14,253.81 561.98,245.64
             552.58,238.74 530.76,241.00 519.00,241.00 Z
           M 582.00,241.00
           C 582.00,241.00 582.00,309.00 582.00,309.00
             582.00,309.00 595.00,309.00 595.00,309.00
             595.00,309.00 595.00,241.00 595.00,241.00
             595.00,241.00 582.00,241.00 582.00,241.00 Z
           M 609.00,241.00
           C 609.00,241.00 609.00,309.00 609.00,309.00
             609.00,309.00 622.00,309.00 622.00,309.00
             622.00,309.00 622.00,264.00 622.00,264.00
             626.16,268.08 639.10,290.51 643.00,297.00
             646.88,303.47 647.85,308.86 656.00,309.00
             656.00,309.00 664.00,309.00 664.00,309.00
             664.00,309.00 664.00,241.00 664.00,241.00
             664.00,241.00 651.00,241.00 651.00,241.00
             651.00,241.00 651.00,285.00 651.00,285.00
             645.07,279.96 634.81,260.69 630.20,253.00
             626.33,246.55 625.16,241.14 617.00,241.00
             617.00,241.00 609.00,241.00 609.00,241.00 Z
           M 63.00,251.39
           C 78.11,249.34 81.98,258.78 82.00,272.00
             82.02,282.10 82.70,295.53 70.00,298.47
             62.58,300.18 56.42,295.83 53.81,289.00
             52.40,285.31 52.05,281.90 52.00,278.00
             51.88,267.85 51.28,255.21 63.00,251.39 Z
           M 532.00,274.00
           C 532.00,274.00 532.00,252.00 532.00,252.00
             536.08,252.00 547.80,251.50 550.96,252.85
             558.02,255.88 559.17,267.61 552.79,271.91
             548.45,274.84 537.43,274.00 532.00,274.00 Z
           M 372.00,374.53
           C 344.21,382.75 346.12,423.48 360.18,436.67
             364.69,440.91 370.01,442.60 376.00,443.40
             379.69,443.89 383.40,443.40 387.00,442.49
             410.94,436.38 414.30,396.92 398.68,381.32
             391.49,374.15 381.58,372.96 372.00,374.53 Z
           M 326.00,375.00
           C 326.00,375.00 326.00,419.00 326.00,419.00
             325.98,423.32 326.08,426.47 322.77,429.77
             316.49,436.05 309.03,431.87 308.00,423.00
             308.00,423.00 295.00,423.00 295.00,423.00
             295.04,427.48 295.05,431.09 297.70,434.98
             306.82,448.36 338.70,447.49 339.00,423.00
             339.00,423.00 339.00,375.00 339.00,375.00
             339.00,375.00 326.00,375.00 326.00,375.00 Z
           M 419.00,375.00
           C 419.00,375.00 419.00,443.00 419.00,443.00
             429.85,443.00 452.04,444.35 460.96,438.78
             470.33,432.92 473.21,414.95 458.00,408.00
             460.94,405.57 463.78,403.50 465.55,400.00
             469.80,391.59 465.39,381.02 457.00,377.48
             447.98,373.67 429.34,375.00 419.00,375.00 Z
           M 375.00,385.39
           C 390.11,383.34 393.98,392.78 394.00,406.00
             394.02,416.10 394.70,429.53 382.00,432.47
             374.58,434.18 368.42,429.83 365.81,423.00
             364.40,419.31 364.05,415.90 364.00,412.00
             363.88,401.85 363.28,389.21 375.00,385.39 Z
           M 432.00,403.00
           C 432.00,403.00 432.00,386.00 432.00,386.00
             435.58,386.00 446.19,385.60 448.95,386.74
             455.10,389.27 455.26,398.72 449.87,401.83
             446.75,403.62 436.04,403.00 432.00,403.00 Z
           M 432.00,432.00
           C 432.00,432.00 432.00,413.00 432.00,413.00
             436.21,413.00 447.66,412.36 450.89,414.17
             456.46,417.31 456.45,427.42 450.89,430.55
             447.07,432.70 436.71,432.00 432.00,432.00 Z
           M 484.11,430.74
           C 475.37,436.27 482.95,445.99 489.94,442.65
             496.23,439.64 495.37,428.20 484.11,430.74 Z
           M 73.00,482.00
           C 73.00,482.00 73.00,500.00 73.00,500.00
             73.00,500.00 76.00,500.00 76.00,500.00
             76.00,500.00 76.00,495.00 76.00,495.00
             76.00,495.00 84.00,500.00 84.00,500.00
             79.70,492.27 79.34,493.63 83.00,487.00
             83.00,487.00 76.00,492.00 76.00,492.00
             76.00,492.00 76.00,482.00 76.00,482.00
             76.00,482.00 73.00,482.00 73.00,482.00 Z
           M 214.00,482.00
           C 214.00,482.00 214.00,500.00 214.00,500.00
             214.00,500.00 217.00,500.00 217.00,500.00
             217.00,500.00 217.00,482.00 217.00,482.00
             217.00,482.00 214.00,482.00 214.00,482.00 Z
           M 281.00,482.00
           C 281.00,482.00 280.00,485.00 280.00,485.00
             280.00,485.00 283.00,485.00 283.00,485.00
             283.00,485.00 281.00,482.00 281.00,482.00 Z
           M 295.00,482.00
           C 295.00,482.00 295.00,500.00 295.00,500.00
             295.00,500.00 297.00,500.00 297.00,500.00
             297.00,494.52 296.04,492.18 301.00,489.00
             301.00,489.00 302.00,500.00 302.00,500.00
             302.00,500.00 305.00,500.00 305.00,500.00
             305.00,493.68 306.31,485.20 297.00,489.00
             297.00,489.00 297.00,482.00 297.00,482.00
             297.00,482.00 295.00,482.00 295.00,482.00 Z
           M 655.00,482.00
           C 655.00,482.00 654.00,485.00 654.00,485.00
             654.00,485.00 657.00,485.00 657.00,485.00
             657.00,485.00 655.00,482.00 655.00,482.00 Z
           M 40.00,483.00
           C 40.00,483.00 40.00,500.00 40.00,500.00
             40.00,500.00 42.00,500.00 42.00,500.00
             42.00,500.00 42.00,488.00 42.00,488.00
             42.00,488.00 47.00,500.00 47.00,500.00
             51.18,497.39 51.95,492.60 53.00,488.00
             53.00,488.00 54.00,500.00 54.00,500.00
             54.00,500.00 57.00,500.00 57.00,500.00
             57.00,500.00 57.00,483.00 57.00,483.00
             50.75,484.07 51.11,488.92 48.00,495.00
             48.00,495.00 44.00,483.00 44.00,483.00
             44.00,483.00 40.00,483.00 40.00,483.00 Z
           M 105.00,483.00
           C 105.00,483.00 105.00,500.00 105.00,500.00
             105.00,500.00 108.00,500.00 108.00,500.00
             108.00,500.00 108.00,488.00 108.00,488.00
             108.00,488.00 113.00,500.00 113.00,500.00
             113.00,500.00 115.00,500.00 115.00,500.00
             115.00,500.00 119.00,488.00 119.00,488.00
             119.00,488.00 120.00,500.00 120.00,500.00
             120.00,500.00 123.00,500.00 123.00,500.00
             123.00,500.00 123.00,483.00 123.00,483.00
             116.63,484.11 116.59,489.43 114.00,495.00
             111.41,489.43 111.37,484.11 105.00,483.00 Z
           M 190.01,483.90
           C 180.13,486.83 183.67,500.41 191.96,499.09
             198.74,498.01 200.81,484.66 190.01,483.90 Z
           M 258.00,483.00
           C 258.00,483.00 262.00,500.00 262.00,500.00
             262.00,500.00 265.00,500.00 265.00,500.00
             265.00,500.00 267.00,489.00 267.00,489.00
             267.00,489.00 269.00,489.00 269.00,489.00
             269.00,489.00 271.00,500.00 271.00,500.00
             271.00,500.00 274.00,500.00 274.00,500.00
             274.00,500.00 278.00,483.00 278.00,483.00
             273.30,484.83 273.37,490.49 273.00,495.00
             273.00,495.00 269.00,483.00 269.00,483.00
             269.00,483.00 267.00,483.00 267.00,483.00
             267.00,483.00 264.00,495.00 264.00,495.00
             264.00,495.00 261.00,483.00 261.00,483.00
             261.00,483.00 258.00,483.00 258.00,483.00 Z
           M 314.00,483.00
           C 314.00,483.00 314.00,500.00 314.00,500.00
             314.00,500.00 317.00,500.00 317.00,500.00
             317.00,500.00 317.00,489.00 317.00,489.00
             317.00,489.00 327.00,500.00 327.00,500.00
             327.00,500.00 327.00,483.00 327.00,483.00
             327.00,483.00 325.00,483.00 325.00,483.00
             325.00,483.00 325.00,494.00 325.00,494.00
             319.77,488.87 320.65,485.07 314.00,483.00 Z
           M 351.00,483.00
           C 351.00,483.00 351.00,500.00 351.00,500.00
             351.00,500.00 354.00,500.00 354.00,500.00
             354.00,500.00 354.00,483.00 354.00,483.00
             354.00,483.00 351.00,483.00 351.00,483.00 Z
           M 491.00,500.00
           C 491.00,500.00 490.00,492.00 490.00,492.00
             490.00,492.00 488.00,495.00 488.00,495.00
             488.00,495.00 484.00,490.00 484.00,490.00
             489.47,486.29 484.24,482.71 481.31,484.28
             478.88,485.59 477.50,496.18 479.60,498.13
             481.38,499.78 488.28,499.70 491.00,500.00 Z
           M 499.00,483.00
           C 499.00,483.00 499.00,485.00 499.00,485.00
             499.00,485.00 507.00,485.00 507.00,485.00
             507.00,485.00 499.00,500.00 499.00,500.00
             499.00,500.00 511.00,500.00 511.00,500.00
             511.00,500.00 511.00,498.00 511.00,498.00
             511.00,498.00 503.00,498.00 503.00,498.00
             503.00,498.00 511.00,483.00 511.00,483.00
             511.00,483.00 499.00,483.00 499.00,483.00 Z
           M 556.00,483.00
           C 556.00,483.00 556.00,500.00 556.00,500.00
             556.00,500.00 558.00,500.00 558.00,500.00
             558.34,495.86 558.29,495.09 562.00,493.00
             563.27,497.25 563.65,498.57 568.00,500.00
             566.70,496.82 565.83,495.55 566.09,492.00
             566.44,489.82 567.41,487.58 566.09,485.51
             564.09,482.78 558.95,483.03 556.00,483.00 Z
           M 693.00,483.00
           C 693.00,483.00 693.00,500.00 693.00,500.00
             693.00,500.00 696.00,500.00 696.00,500.00
             696.00,500.00 696.00,493.00 696.00,493.00
             696.00,493.00 703.00,493.00 703.00,493.00
             703.00,493.00 703.00,491.00 703.00,491.00
             694.86,490.33 694.85,485.32 704.00,485.00
             704.00,485.00 704.00,483.00 704.00,483.00
             704.00,483.00 693.00,483.00 693.00,483.00 Z
           M 287.00,484.00
           C 286.33,489.01 285.31,498.57 292.00,499.00
             290.24,494.82 289.14,492.91 292.00,489.00
             292.00,489.00 292.00,487.00 292.00,487.00
             292.00,487.00 290.00,484.00 290.00,484.00
             290.00,484.00 287.00,484.00 287.00,484.00 Z
           M 409.00,484.00
           C 409.00,484.00 407.00,487.00 407.00,487.00
             407.00,487.00 407.00,489.00 407.00,489.00
             411.00,494.43 406.85,498.56 414.00,499.00
             412.24,494.82 411.14,492.91 414.00,489.00
             414.00,489.00 414.00,487.00 414.00,487.00
             414.00,487.00 412.00,484.00 412.00,484.00
             412.00,484.00 409.00,484.00 409.00,484.00 Z
           M 464.00,484.00
           C 463.33,489.01 462.31,498.57 469.00,499.00
             467.24,494.82 466.14,492.91 469.00,489.00
             469.00,489.00 469.00,487.00 469.00,487.00
             469.00,487.00 467.00,484.00 467.00,484.00
             467.00,484.00 464.00,484.00 464.00,484.00 Z
           M 484.00,485.00
           C 484.00,485.00 485.00,489.00 485.00,489.00
             485.00,489.00 482.00,490.00 482.00,490.00
             482.00,490.00 482.00,485.00 482.00,485.00
             482.00,485.00 484.00,485.00 484.00,485.00 Z
           M 558.00,490.93
           C 558.10,489.79 558.02,488.45 558.60,487.33
             561.01,482.63 568.30,489.60 560.94,490.93
             560.94,490.93 558.00,490.93 558.00,490.93 Z
           M 617.00,484.00
           C 617.00,484.00 615.00,487.00 615.00,487.00
             615.00,487.00 615.00,489.00 615.00,489.00
             619.00,494.43 614.85,498.56 622.00,499.00
             618.06,493.06 619.30,492.87 622.00,487.00
             622.00,487.00 617.00,484.00 617.00,484.00 Z
           M 647.00,484.00
           C 647.00,484.00 645.00,487.00 645.00,487.00
             645.00,487.00 645.00,489.00 645.00,489.00
             649.29,494.82 644.25,497.29 651.00,500.00
             649.58,495.44 647.92,493.21 651.00,489.00
             651.00,489.00 651.00,487.00 651.00,487.00
             651.00,487.00 647.00,484.00 647.00,484.00 Z
           M 189.31,486.66
           C 196.78,486.08 195.80,494.96 191.87,496.34
             186.90,498.09 185.12,490.03 189.31,486.66 Z
           M 60.00,491.00
           C 63.47,490.53 64.04,489.96 67.00,492.00
             64.18,492.48 56.72,495.30 62.32,498.75
             63.78,499.65 68.10,499.80 70.00,500.00
             70.00,495.75 70.46,483.34 62.22,488.76
             61.09,489.52 60.80,490.14 60.00,491.00 Z
           M 96.00,498.00
           C 96.00,498.00 88.00,494.00 88.00,494.00
             88.00,494.00 96.00,494.00 96.00,494.00
             95.90,492.76 95.95,491.44 95.40,490.28
             94.85,489.12 94.10,488.44 92.86,488.08
             85.13,485.83 83.21,499.44 92.00,499.12
             93.57,499.06 94.60,498.51 96.00,498.00 Z
           M 131.00,487.91
           C 122.64,490.41 126.25,499.86 131.96,499.21
             137.37,498.59 139.67,488.93 131.00,487.91 Z
           M 140.00,487.00
           C 140.00,487.00 140.00,500.00 140.00,500.00
             140.00,500.00 142.00,500.00 142.00,500.00
             142.00,494.52 141.04,492.18 146.00,489.00
             146.00,489.00 147.00,500.00 147.00,500.00
             147.00,500.00 150.00,500.00 150.00,500.00
             150.00,496.78 150.72,490.14 147.57,488.27
             145.56,487.08 144.56,488.46 140.00,487.00 Z
           M 163.00,498.00
           C 163.00,498.00 155.00,494.00 155.00,494.00
             155.00,494.00 163.00,494.00 163.00,494.00
             162.90,492.76 162.95,491.44 162.40,490.28
             161.85,489.12 161.10,488.44 159.86,488.08
             152.13,485.83 150.21,499.44 159.00,499.12
             160.57,499.06 161.60,498.51 163.00,498.00 Z
           M 165.00,487.00
           C 167.09,494.76 170.62,497.05 166.00,504.00
             166.00,504.00 169.49,503.17 169.49,503.17
             169.49,503.17 176.00,487.00 176.00,487.00
             171.97,488.57 171.92,491.01 171.00,495.00
             171.00,495.00 168.00,487.00 168.00,487.00
             168.00,487.00 165.00,487.00 165.00,487.00 Z
           M 201.00,487.00
           C 201.00,487.00 201.00,500.00 201.00,500.00
             201.00,500.00 203.00,500.00 203.00,500.00
             203.00,494.52 202.04,492.18 207.00,489.00
             207.00,489.00 208.00,500.00 208.00,500.00
             208.00,500.00 211.00,500.00 211.00,500.00
             211.00,496.78 211.72,490.14 208.57,488.27
             206.56,487.08 205.56,488.46 201.00,487.00 Z
           M 221.00,487.00
           C 221.00,487.00 221.00,500.00 221.00,500.00
             221.00,500.00 223.00,500.00 223.00,500.00
             223.00,500.00 223.00,487.00 223.00,487.00
             223.00,487.00 221.00,487.00 221.00,487.00 Z
           M 227.00,487.00
           C 227.00,487.00 227.00,500.00 227.00,500.00
             227.00,500.00 229.00,500.00 229.00,500.00
             229.02,494.44 228.51,492.83 233.00,489.00
             233.00,489.00 234.00,500.00 234.00,500.00
             234.00,500.00 237.00,500.00 237.00,500.00
             237.00,496.86 237.84,490.06 234.69,488.36
             234.69,488.36 227.00,487.00 227.00,487.00 Z
           M 250.00,498.00
           C 250.00,498.00 242.00,494.00 242.00,494.00
             242.00,494.00 250.00,494.00 250.00,494.00
             249.90,492.76 249.95,491.44 249.40,490.28
             248.85,489.12 248.10,488.44 246.86,488.08
             239.13,485.83 237.21,499.44 246.00,499.12
             247.57,499.06 248.60,498.51 250.00,498.00 Z
           M 280.00,487.00
           C 280.00,487.00 280.00,500.00 280.00,500.00
             280.00,500.00 283.00,500.00 283.00,500.00
             283.00,500.00 283.00,487.00 283.00,487.00
             283.00,487.00 280.00,487.00 280.00,487.00 Z
           M 335.05,487.96
           C 327.08,491.96 332.03,500.11 336.96,499.04
             342.58,497.82 343.67,488.29 335.05,487.96 Z
           M 358.00,487.00
           C 358.00,487.00 358.00,500.00 358.00,500.00
             358.00,500.00 360.00,500.00 360.00,500.00
             360.00,494.52 359.04,492.18 364.00,489.00
             364.00,489.00 365.00,500.00 365.00,500.00
             365.00,500.00 368.00,500.00 368.00,500.00
             368.00,496.78 368.72,490.14 365.57,488.27
             363.56,487.08 362.56,488.46 358.00,487.00 Z
           M 370.00,487.00
           C 371.08,491.71 372.00,498.21 377.00,500.00
             377.00,500.00 381.00,487.00 381.00,487.00
             376.49,488.62 376.62,491.63 376.00,496.00
             376.00,496.00 373.00,487.00 373.00,487.00
             373.00,487.00 370.00,487.00 370.00,487.00 Z
           M 393.00,498.00
           C 393.00,498.00 385.00,494.00 385.00,494.00
             385.00,494.00 393.00,494.00 393.00,494.00
             392.90,492.76 392.95,491.44 392.40,490.28
             391.85,489.12 391.10,488.44 389.86,488.08
             382.13,485.83 380.21,499.44 389.00,499.12
             390.57,499.06 391.60,498.51 393.00,498.00 Z
           M 403.00,495.00
           C 403.00,495.00 403.00,497.00 403.00,497.00
             403.00,497.00 396.00,496.00 396.00,496.00
             399.95,502.26 405.53,498.21 404.51,495.25
             404.01,493.79 399.46,491.09 398.00,490.00
             398.00,490.00 405.00,491.00 405.00,491.00
             400.65,483.84 393.23,490.13 399.15,493.70
             400.35,494.43 401.68,494.65 403.00,495.00 Z
           M 417.00,487.00
           C 417.00,487.00 417.00,500.00 417.00,500.00
             417.00,500.00 419.00,500.00 419.00,500.00
             419.00,494.52 418.04,492.18 423.00,489.00
             423.00,489.00 424.00,500.00 424.00,500.00
             424.00,500.00 427.00,500.00 427.00,500.00
             427.00,500.00 428.00,489.00 428.00,489.00
             428.00,489.00 430.00,489.00 430.00,489.00
             430.00,489.00 432.00,500.00 432.00,500.00
             432.00,500.00 434.00,500.00 434.00,500.00
             434.00,500.00 432.98,489.47 432.98,489.47
             432.98,489.47 417.00,487.00 417.00,487.00 Z
           M 447.00,498.00
           C 447.00,498.00 440.00,494.00 440.00,494.00
             440.00,494.00 448.00,494.00 448.00,494.00
             447.70,492.64 447.63,491.51 446.83,490.28
             446.10,489.16 445.19,488.44 443.90,488.08
             436.07,485.90 434.66,499.51 443.02,499.24
             444.65,499.19 445.58,498.59 447.00,498.00 Z
           M 450.00,487.00
           C 450.00,487.00 450.00,500.00 450.00,500.00
             450.00,500.00 453.00,500.00 453.00,500.00
             453.00,494.52 452.04,492.18 457.00,489.00
             457.00,489.00 458.00,500.00 458.00,500.00
             458.00,500.00 460.00,500.00 460.00,500.00
             460.00,495.65 461.71,484.58 454.00,489.00
             454.00,489.00 450.00,487.00 450.00,487.00 Z
           M 524.00,498.00
           C 524.00,498.00 516.00,494.00 516.00,494.00
             516.00,494.00 524.00,494.00 524.00,494.00
             523.90,492.76 523.95,491.44 523.40,490.28
             522.85,489.12 522.10,488.44 520.86,488.08
             513.13,485.83 511.21,499.44 520.00,499.12
             521.57,499.06 522.60,498.51 524.00,498.00 Z
           M 527.00,487.00
           C 527.00,487.00 527.00,500.00 527.00,500.00
             527.00,500.00 530.00,500.00 530.00,500.00
             530.00,500.00 530.00,490.00 530.00,490.00
             532.87,489.45 532.87,489.71 534.00,487.00
             534.00,487.00 531.00,489.00 531.00,489.00
             531.00,489.00 527.00,487.00 527.00,487.00 Z
           M 540.05,487.96
           C 532.08,491.96 537.03,500.11 541.96,499.04
             547.58,497.82 548.67,488.29 540.05,487.96 Z
           M 580.00,497.00
           C 575.91,497.07 575.75,497.04 573.00,494.00
             573.00,494.00 581.00,494.00 581.00,494.00
             579.42,484.51 571.26,486.98 570.50,493.00
             569.85,498.15 576.15,501.88 580.00,497.00 Z
           M 591.00,499.00
           C 588.85,502.61 588.03,502.21 584.00,502.00
             585.90,503.55 587.27,504.66 589.95,503.92
             595.63,502.37 594.00,491.67 594.00,487.00
             591.06,487.32 586.79,487.08 584.74,489.44
             582.26,492.30 582.09,500.15 591.00,499.00 Z
           M 598.00,487.00
           C 598.00,487.00 598.00,500.00 598.00,500.00
             598.00,500.00 600.00,500.00 600.00,500.00
             600.00,500.00 600.00,487.00 600.00,487.00
             600.00,487.00 598.00,487.00 598.00,487.00 Z
           M 611.00,497.00
           C 611.00,497.00 603.00,496.00 603.00,496.00
             604.72,497.87 606.07,499.54 608.95,499.21
             612.18,498.83 613.68,495.61 609.85,493.30
             608.65,492.57 607.32,492.35 606.00,492.00
             606.00,492.00 606.00,490.00 606.00,490.00
             606.00,490.00 613.00,491.00 613.00,491.00
             609.10,484.82 603.84,488.66 604.74,491.75
             605.22,493.38 609.50,495.87 611.00,497.00 Z
           M 624.00,487.00
           C 624.00,487.00 624.00,500.00 624.00,500.00
             624.00,500.00 627.00,500.00 627.00,500.00
             627.00,500.00 627.00,490.00 627.00,490.00
             629.87,489.45 629.87,489.71 631.00,487.00
             631.00,487.00 628.00,489.00 628.00,489.00
             628.00,489.00 624.00,487.00 624.00,487.00 Z
           M 633.00,491.00
           C 636.65,490.15 637.02,489.59 640.00,492.00
             634.58,492.91 633.47,493.41 633.00,499.00
             633.00,499.00 643.00,500.00 643.00,500.00
             643.00,500.00 641.40,490.23 641.40,490.23
             639.39,485.83 635.06,487.74 633.00,491.00 Z
           M 654.00,487.00
           C 654.00,487.00 654.00,500.00 654.00,500.00
             654.00,500.00 657.00,500.00 657.00,500.00
             657.00,500.00 657.00,487.00 657.00,487.00
             657.00,487.00 654.00,487.00 654.00,487.00 Z
           M 665.00,487.91
           C 656.64,490.41 660.25,499.86 665.96,499.21
             671.37,498.59 673.67,488.93 665.00,487.91 Z
           M 674.00,487.00
           C 674.00,487.00 674.00,500.00 674.00,500.00
             674.00,500.00 676.00,500.00 676.00,500.00
             676.02,494.44 675.51,492.83 680.00,489.00
             680.00,489.00 681.00,500.00 681.00,500.00
             681.00,500.00 684.00,500.00 684.00,500.00
             684.00,496.86 684.84,490.06 681.69,488.36
             681.69,488.36 674.00,487.00 674.00,487.00 Z
           M 716.00,498.00
           C 716.00,498.00 709.00,494.00 709.00,494.00
             709.00,494.00 717.00,494.00 717.00,494.00
             716.70,492.64 716.63,491.51 715.83,490.28
             715.10,489.16 714.19,488.44 712.90,488.08
             705.07,485.90 703.66,499.51 712.02,499.24
             713.65,499.19 714.58,498.59 716.00,498.00 Z
           M 729.00,498.00
           C 729.00,498.00 722.00,494.00 722.00,494.00
             722.00,494.00 730.00,494.00 730.00,494.00
             729.70,492.64 729.63,491.51 728.83,490.28
             728.10,489.16 727.19,488.44 725.90,488.08
             718.07,485.90 716.66,499.51 725.02,499.24
             726.65,499.19 727.58,498.59 729.00,498.00 Z
           M 94.00,492.00
           C 94.00,492.00 89.00,492.00 89.00,492.00
             89.00,492.00 90.00,489.00 90.00,489.00
             90.00,489.00 94.00,492.00 94.00,492.00 Z
           M 130.00,498.00
           C 128.11,493.69 128.11,493.31 130.00,489.00
             135.35,491.15 135.35,495.85 130.00,498.00 Z
           M 161.00,492.00
           C 161.00,492.00 156.00,492.00 156.00,492.00
             156.00,492.00 157.00,489.00 157.00,489.00
             157.00,489.00 161.00,492.00 161.00,492.00 Z
           M 248.00,492.00
           C 248.00,492.00 243.00,492.00 243.00,492.00
             243.00,492.00 244.00,489.00 244.00,489.00
             244.00,489.00 248.00,492.00 248.00,492.00 Z
           M 336.00,490.20
           C 340.64,492.29 338.17,496.80 336.00,496.80
             333.83,496.80 331.36,492.29 336.00,490.20 Z
           M 391.00,492.00
           C 391.00,492.00 386.00,492.00 386.00,492.00
             386.00,492.00 387.00,489.00 387.00,489.00
             387.00,489.00 391.00,492.00 391.00,492.00 Z
           M 445.00,492.00
           C 445.00,492.00 440.00,492.00 440.00,492.00
             442.00,489.21 443.02,489.22 445.00,492.00 Z
           M 522.00,492.00
           C 522.00,492.00 517.00,492.00 517.00,492.00
             517.00,492.00 518.00,489.00 518.00,489.00
             518.00,489.00 522.00,492.00 522.00,492.00 Z
           M 541.00,490.20
           C 545.64,492.29 543.17,496.80 541.00,496.80
             538.83,496.80 536.36,492.29 541.00,490.20 Z
           M 578.00,492.00
           C 578.00,492.00 573.00,492.00 573.00,492.00
             575.00,489.21 576.02,489.22 578.00,492.00 Z
           M 590.00,489.00
           C 590.00,489.00 590.00,498.00 590.00,498.00
             585.09,495.23 585.09,491.77 590.00,489.00 Z
           M 664.00,498.00
           C 662.11,493.69 662.11,493.31 664.00,489.00
             669.35,491.15 669.35,495.85 664.00,498.00 Z
           M 714.00,492.00
           C 714.00,492.00 709.00,492.00 709.00,492.00
             711.00,489.21 712.02,489.22 714.00,492.00 Z
           M 727.00,492.00
           C 727.00,492.00 722.00,492.00 722.00,492.00
             724.00,489.21 725.02,489.22 727.00,492.00 Z
           M 485.00,498.00
           C 481.10,497.31 480.46,497.04 481.00,493.00
             481.00,493.00 485.00,498.00 485.00,498.00 Z
           M 67.00,494.00
           C 65.93,497.07 66.07,496.93 63.00,498.00
             63.00,498.00 63.00,494.00 63.00,494.00
             63.00,494.00 67.00,494.00 67.00,494.00 Z
           M 640.00,494.00
           C 638.92,497.01 638.96,496.81 636.00,498.00
             636.00,498.00 635.00,497.00 635.00,497.00
             635.00,497.00 635.00,495.00 635.00,495.00
             635.00,495.00 640.00,494.00 640.00,494.00 Z
           M 733.00,497.00
           C 733.00,497.00 735.00,500.00 735.00,500.00
             735.00,500.00 736.00,499.00 736.00,499.00
             736.00,499.00 735.00,497.00 735.00,497.00
             735.00,497.00 733.00,497.00 733.00,497.00 Z
           M 246.00,515.00
           C 246.00,515.00 246.00,533.00 246.00,533.00
             246.00,533.00 249.00,533.00 249.00,533.00
             249.00,533.00 249.00,528.00 249.00,528.00
             249.00,528.00 257.00,533.00 257.00,533.00
             252.70,525.27 252.34,526.63 256.00,520.00
             256.00,520.00 249.00,525.00 249.00,525.00
             249.00,525.00 249.00,515.00 249.00,515.00
             249.00,515.00 246.00,515.00 246.00,515.00 Z
           M 336.00,515.00
           C 336.00,515.00 336.00,533.00 336.00,533.00
             336.00,533.00 339.00,533.00 339.00,533.00
             339.00,533.00 339.00,515.00 339.00,515.00
             339.00,515.00 336.00,515.00 336.00,515.00 Z
           M 386.00,515.00
           C 386.00,515.00 386.00,533.00 386.00,533.00
             386.00,533.00 389.00,533.00 389.00,533.00
             389.00,533.00 389.00,515.00 389.00,515.00
             389.00,515.00 386.00,515.00 386.00,515.00 Z
           M 393.00,515.00
           C 393.00,515.00 393.00,533.00 393.00,533.00
             393.00,533.00 395.00,533.00 395.00,533.00
             395.00,533.00 395.00,515.00 395.00,515.00
             395.00,515.00 393.00,515.00 393.00,515.00 Z
           M 439.00,515.00
           C 439.00,515.00 439.00,533.00 439.00,533.00
             439.00,533.00 442.00,533.00 442.00,533.00
             442.00,533.00 443.00,522.00 443.00,522.00
             447.49,525.83 446.98,527.44 447.00,533.00
             447.00,533.00 449.00,533.00 449.00,533.00
             449.00,527.17 450.69,518.94 442.00,522.00
             442.00,522.00 442.00,515.00 442.00,515.00
             442.00,515.00 439.00,515.00 439.00,515.00 Z
           M 504.00,515.00
           C 504.00,515.00 503.00,518.00 503.00,518.00
             503.00,518.00 506.00,518.00 506.00,518.00
             506.00,518.00 504.00,515.00 504.00,515.00 Z
           M 522.00,515.00
           C 522.00,515.00 522.00,533.00 522.00,533.00
             522.00,533.00 525.00,533.00 525.00,533.00
             525.00,533.00 525.00,528.00 525.00,528.00
             525.00,528.00 532.00,533.00 532.00,533.00
             529.09,525.02 527.75,526.92 532.00,520.00
             528.13,521.17 527.85,521.40 526.00,525.00
             526.00,525.00 525.00,515.00 525.00,515.00
             525.00,515.00 522.00,515.00 522.00,515.00 Z
           M 569.00,515.00
           C 569.00,515.00 569.00,533.00 569.00,533.00
             569.00,533.00 571.00,533.00 571.00,533.00
             571.00,533.00 571.00,515.00 571.00,515.00
             571.00,515.00 569.00,515.00 569.00,515.00 Z
           M 170.00,516.00
           C 170.00,516.00 170.00,533.00 170.00,533.00
             170.00,533.00 173.00,533.00 173.00,533.00
             173.00,533.00 174.00,526.00 174.00,526.00
             174.00,526.00 176.00,526.00 176.00,526.00
             177.66,530.42 178.17,532.18 183.00,533.00
             183.00,533.00 178.51,523.00 178.51,523.00
             178.51,523.00 182.00,516.00 182.00,516.00
             177.30,517.50 175.99,519.61 174.00,524.00
             174.00,524.00 173.00,516.00 173.00,516.00
             173.00,516.00 170.00,516.00 170.00,516.00 Z
           M 287.00,516.00
           C 287.00,516.00 287.00,533.00 287.00,533.00
             287.00,533.00 290.00,533.00 290.00,533.00
             290.00,533.00 290.00,527.00 290.00,527.00
             293.46,526.67 299.06,525.86 298.54,521.04
             298.40,519.70 297.72,518.68 296.69,517.85
             294.22,515.88 290.00,516.03 287.00,516.00 Z
           M 361.00,537.00
           C 357.66,535.66 354.10,536.09 351.74,532.85
             347.76,527.42 351.59,518.29 358.00,518.29
             363.26,518.29 369.39,526.37 361.00,531.00
             361.00,528.96 361.51,523.47 359.43,522.40
             355.14,520.19 349.96,531.00 357.02,532.07
             357.02,532.07 361.27,532.07 361.27,532.07
             367.20,531.71 368.01,525.46 365.69,521.06
             363.04,516.04 356.49,515.32 352.18,518.70
             347.31,522.59 346.43,532.42 352.18,536.06
             354.98,537.89 357.88,537.41 361.00,537.00 Z
           M 375.00,516.00
           C 375.00,516.00 369.00,533.00 369.00,533.00
             369.00,533.00 376.06,529.62 376.06,529.62
             376.06,529.62 384.00,533.00 384.00,533.00
             384.00,533.00 378.00,516.00 378.00,516.00
             378.00,516.00 375.00,516.00 375.00,516.00 Z
           M 398.00,516.00
           C 398.00,516.00 398.00,518.00 398.00,518.00
             398.00,518.00 403.00,518.00 403.00,518.00
             403.00,518.00 403.00,533.00 403.00,533.00
             403.00,533.00 406.00,533.00 406.00,533.00
             406.00,533.00 406.00,518.00 406.00,518.00
             406.00,518.00 411.00,518.00 411.00,518.00
             411.00,518.00 411.00,516.00 411.00,516.00
             411.00,516.00 398.00,516.00 398.00,516.00 Z
           M 479.00,516.00
           C 479.00,516.00 479.00,518.00 479.00,518.00
             479.00,518.00 484.00,518.00 484.00,518.00
             484.00,518.00 484.00,533.00 484.00,533.00
             484.00,533.00 487.00,533.00 487.00,533.00
             487.00,533.00 487.00,518.00 487.00,518.00
             487.00,518.00 492.00,518.00 492.00,518.00
             492.00,518.00 492.00,516.00 492.00,516.00
             492.00,516.00 479.00,516.00 479.00,516.00 Z
           M 553.00,516.00
           C 553.00,516.00 553.00,533.00 553.00,533.00
             555.90,532.99 561.19,533.27 563.40,531.15
             565.21,529.40 564.55,527.20 564.44,525.00
             563.99,516.00 561.93,516.08 553.00,516.00 Z
           M 296.00,519.00
           C 295.60,523.99 294.95,524.41 290.00,525.00
             290.00,525.00 290.00,518.00 290.00,518.00
             290.00,518.00 296.00,519.00 296.00,519.00 Z
           M 316.00,517.00
           C 316.00,517.00 314.00,520.00 314.00,520.00
             314.00,520.00 314.00,522.00 314.00,522.00
             318.29,527.82 313.25,530.29 320.00,533.00
             318.58,528.44 316.92,526.21 320.00,522.00
             320.00,522.00 320.00,520.00 320.00,520.00
             320.00,520.00 316.00,517.00 316.00,517.00 Z
           M 562.00,519.00
           C 562.00,519.00 562.00,523.00 562.00,523.00
             562.00,523.00 556.00,523.00 556.00,523.00
             556.00,523.00 557.00,518.00 557.00,518.00
             557.00,518.00 562.00,519.00 562.00,519.00 Z
           M 377.00,520.00
           C 377.00,520.00 379.00,527.00 379.00,527.00
             379.00,527.00 374.00,527.00 374.00,527.00
             374.00,527.00 377.00,520.00 377.00,520.00 Z
           M 185.00,524.00
           C 188.65,523.15 189.02,522.59 192.00,525.00
             186.58,525.91 185.47,526.41 185.00,532.00
             185.00,532.00 195.00,533.00 195.00,533.00
             195.00,533.00 193.40,523.23 193.40,523.23
             191.39,518.83 187.06,520.74 185.00,524.00 Z
           M 198.00,520.00
           C 198.00,520.00 198.00,533.00 198.00,533.00
             198.00,533.00 200.00,533.00 200.00,533.00
             200.04,522.10 201.50,527.01 204.00,520.00
             204.00,520.00 198.00,520.00 198.00,520.00 Z
           M 206.00,520.00
           C 206.00,532.65 206.09,531.93 216.00,533.00
             216.00,533.00 216.00,520.00 216.00,520.00
             216.00,520.00 214.00,520.00 214.00,520.00
             214.00,525.48 214.96,527.82 210.00,531.00
             210.00,531.00 209.00,520.00 209.00,520.00
             209.00,520.00 206.00,520.00 206.00,520.00 Z
           M 220.00,520.00
           C 220.00,520.00 220.00,533.00 220.00,533.00
             220.00,533.00 222.00,533.00 222.00,533.00
             222.02,527.44 221.51,525.83 226.00,522.00
             226.00,522.00 227.00,533.00 227.00,533.00
             227.00,533.00 230.00,533.00 230.00,533.00
             230.00,529.86 230.84,523.06 227.69,521.36
             227.69,521.36 220.00,520.00 220.00,520.00 Z
           M 233.00,524.00
           C 236.47,523.53 237.04,522.96 240.00,525.00
             237.18,525.48 229.72,528.30 235.32,531.75
             236.78,532.65 241.10,532.80 243.00,533.00
             243.00,528.75 243.46,516.34 235.22,521.76
             234.09,522.52 233.80,523.14 233.00,524.00 Z
           M 259.00,524.05
           C 262.62,523.29 263.05,522.47 266.00,525.00
             263.22,525.47 255.70,528.30 261.32,531.70
             262.81,532.59 267.13,532.82 269.00,533.00
             269.00,530.77 269.20,526.02 268.40,524.05
             266.37,519.23 261.55,519.96 259.00,524.05 Z
           M 272.00,520.00
           C 272.00,520.00 272.00,533.00 272.00,533.00
             272.00,533.00 275.00,533.00 275.00,533.00
             275.01,521.78 275.66,527.12 278.00,520.00
             278.00,520.00 272.00,520.00 272.00,520.00 Z
           M 302.00,524.05
           C 305.62,523.29 306.05,522.47 309.00,525.00
             306.22,525.47 298.70,528.30 304.32,531.70
             305.81,532.59 310.13,532.82 312.00,533.00
             312.00,530.77 312.20,526.02 311.40,524.05
             309.37,519.23 304.55,519.96 302.00,524.05 Z
           M 333.00,531.00
           C 333.00,531.00 325.00,527.00 325.00,527.00
             325.00,527.00 333.00,527.00 333.00,527.00
             332.90,525.76 332.95,524.44 332.40,523.28
             331.85,522.12 331.10,521.44 329.86,521.08
             322.13,518.83 320.21,532.44 329.00,532.12
             330.57,532.06 331.60,531.51 333.00,531.00 Z
           M 423.00,530.00
           C 418.91,530.07 418.75,530.04 416.00,527.00
             416.00,527.00 424.00,527.00 424.00,527.00
             422.42,517.51 414.26,519.98 413.50,526.00
             412.85,531.15 419.15,534.88 423.00,530.00 Z
           M 436.00,529.00
           C 434.39,529.32 432.09,530.08 430.82,529.00
             428.85,527.74 429.10,524.48 430.82,523.75
             432.32,522.85 434.65,523.68 436.00,523.75
             432.76,518.91 427.51,520.54 426.47,525.05
             425.17,530.71 431.81,535.58 436.00,529.00 Z
           M 452.00,520.00
           C 452.00,520.00 452.00,533.00 452.00,533.00
             452.00,533.00 455.00,533.00 455.00,533.00
             455.00,527.52 454.04,525.18 459.00,522.00
             459.00,522.00 460.00,533.00 460.00,533.00
             460.00,533.00 462.00,533.00 462.00,533.00
             462.00,528.65 463.71,517.58 456.00,522.00
             456.00,522.00 452.00,520.00 452.00,520.00 Z
           M 470.05,520.96
           C 462.08,524.96 467.03,533.11 471.96,532.04
             477.58,530.82 478.67,521.29 470.05,520.96 Z
           M 494.00,520.00
           C 494.00,520.00 494.00,533.00 494.00,533.00
             494.00,533.00 497.00,533.00 497.00,533.00
             497.04,522.10 498.50,527.01 501.00,520.00
             501.00,520.00 498.00,522.00 498.00,522.00
             498.00,522.00 494.00,520.00 494.00,520.00 Z
           M 503.00,520.00
           C 503.00,520.00 503.00,533.00 503.00,533.00
             503.00,533.00 506.00,533.00 506.00,533.00
             506.00,533.00 506.00,520.00 506.00,520.00
             506.00,520.00 503.00,520.00 503.00,520.00 Z
           M 519.00,529.00
           C 519.00,529.00 513.00,531.00 513.00,531.00
             511.70,526.53 511.62,526.44 513.00,522.00
             513.00,522.00 519.00,524.00 519.00,524.00
             515.71,518.78 510.38,520.32 509.33,525.04
             508.04,530.86 514.72,535.78 519.00,529.00 Z
           M 542.00,528.00
           C 542.00,528.00 542.00,530.00 542.00,530.00
             542.00,530.00 534.00,529.00 534.00,529.00
             535.92,530.99 537.78,532.80 540.86,531.92
             543.54,531.15 544.89,528.07 540.86,526.13
             539.64,525.54 538.30,525.31 537.00,525.00
             537.00,525.00 537.00,523.00 537.00,523.00
             537.00,523.00 544.00,524.00 544.00,524.00
             539.30,516.56 531.68,523.75 538.13,526.87
             539.36,527.46 540.70,527.69 542.00,528.00 Z
           M 579.05,520.96
           C 571.08,524.96 576.03,533.11 580.96,532.04
             586.58,530.82 587.67,521.29 579.05,520.96 Z
           M 596.00,532.00
           C 593.83,535.52 592.98,535.26 589.00,535.00
             590.87,536.66 592.15,537.86 594.90,537.00
             600.49,535.26 599.00,524.70 599.00,520.00
             599.00,520.00 596.00,522.00 596.00,522.00
             586.66,518.74 586.95,528.73 590.31,531.17
             592.09,532.47 593.99,532.13 596.00,532.00 Z
           M 331.00,525.00
           C 331.00,525.00 326.00,525.00 326.00,525.00
             326.00,525.00 327.00,522.00 327.00,522.00
             327.00,522.00 331.00,525.00 331.00,525.00 Z
           M 421.00,525.00
           C 421.00,525.00 416.00,525.00 416.00,525.00
             418.00,522.21 419.02,522.22 421.00,525.00 Z
           M 471.00,523.20
           C 475.64,525.29 473.17,529.80 471.00,529.80
             468.83,529.80 466.36,525.29 471.00,523.20 Z
           M 580.00,523.20
           C 584.64,525.29 582.17,529.80 580.00,529.80
             577.83,529.80 575.36,525.29 580.00,523.20 Z
           M 595.00,522.00
           C 595.00,522.00 595.00,531.00 595.00,531.00
             589.65,528.85 589.65,524.15 595.00,522.00 Z
           M 360.00,523.00
           C 360.00,523.00 359.00,531.00 359.00,531.00
             353.35,529.02 354.22,524.00 360.00,523.00 Z
           M 563.00,529.00
           C 563.00,529.00 556.00,531.00 556.00,531.00
             556.00,531.00 556.00,525.00 556.00,525.00
             560.14,525.34 560.91,525.29 563.00,529.00 Z
           M 192.00,527.00
           C 190.92,530.01 190.96,529.81 188.00,531.00
             188.00,531.00 187.00,530.00 187.00,530.00
             187.00,530.00 187.00,528.00 187.00,528.00
             187.00,528.00 192.00,527.00 192.00,527.00 Z
           M 240.00,527.00
           C 238.93,530.07 239.07,529.93 236.00,531.00
             236.00,531.00 236.00,527.00 236.00,527.00
             236.00,527.00 240.00,527.00 240.00,527.00 Z
           M 266.00,527.00
           C 264.80,530.39 264.54,530.47 261.00,530.00
             261.00,530.00 261.00,528.00 261.00,528.00
             261.00,528.00 266.00,527.00 266.00,527.00 Z
           M 309.00,527.00
           C 307.80,530.39 307.54,530.47 304.00,530.00
             304.00,530.00 304.00,528.00 304.00,528.00
             304.00,528.00 309.00,527.00 309.00,527.00 Z
           M 602.00,532.00
           C 602.00,532.00 603.00,533.00 603.00,533.00
             603.00,533.00 605.00,530.00 605.00,530.00
             605.00,530.00 602.00,532.00 602.00,532.00 Z" />
</svg>
