<?xml version="1.0" encoding="UTF-8" standalone="no"?>
<!DOCTYPE svg PUBLIC "-//W3C//DTD SVG 20010904//EN"
              "http://www.w3.org/TR/2001/REC-SVG-20010904/DTD/svg10.dtd">

<svg xmlns="http://www.w3.org/2000/svg"
					style="background-color: #00539C;"
     viewBox="0 0 767 551">
  <path id="Selection"
        fill="white" stroke="none" stroke-width="0"
        d="M 176.00,50.00
           C 176.00,50.00 179.98,68.41 179.98,68.41
             179.98,68.41 183.00,70.00 183.00,70.00
             183.00,70.00 187.00,57.00 187.00,57.00
             187.00,57.00 190.00,70.00 190.00,70.00
             190.00,70.00 194.00,70.00 194.00,70.00
             194.00,70.00 198.00,50.00 198.00,50.00
             192.68,51.92 193.23,59.13 192.00,64.00
             190.26,59.27 190.29,51.90 185.00,50.00
             185.00,50.00 182.00,64.00 182.00,64.00
             182.00,64.00 179.00,50.00 179.00,50.00
             179.00,50.00 176.00,50.00 176.00,50.00 Z
           M 208.00,50.72
           C 196.31,53.74 200.02,70.87 210.00,69.25
             218.77,67.82 220.23,51.23 208.00,50.72 Z
           M 220.00,50.00
           C 220.00,50.00 220.00,70.00 220.00,70.00
             220.00,70.00 224.00,70.00 224.00,70.00
             224.00,70.00 224.00,63.00 224.00,63.00
             224.00,63.00 235.00,70.00 235.00,70.00
             235.00,70.00 230.93,61.00 230.93,61.00
             234.78,58.47 234.99,53.69 230.93,51.31
             228.11,49.73 223.15,50.00 220.00,50.00 Z
           M 238.00,50.00
           C 238.00,50.00 238.00,70.00 238.00,70.00
             238.00,70.00 241.00,70.00 241.00,70.00
             241.36,65.50 241.54,64.96 245.00,62.00
             246.80,66.70 247.80,69.13 253.00,70.00
             253.00,70.00 248.07,59.00 248.07,59.00
             248.07,59.00 253.00,50.00 253.00,50.00
             246.27,51.11 246.28,54.60 241.00,59.00
             241.00,59.00 241.00,50.00 241.00,50.00
             241.00,50.00 238.00,50.00 238.00,50.00 Z
           M 263.00,50.00
           C 263.00,50.00 263.00,70.00 263.00,70.00
             263.00,70.00 266.00,70.00 266.00,70.00
             266.00,70.00 266.00,62.00 266.00,62.00
             266.00,62.00 274.00,62.00 274.00,62.00
             274.00,62.00 274.00,59.00 274.00,59.00
             274.00,59.00 266.00,59.00 266.00,59.00
             266.00,59.00 266.00,53.00 266.00,53.00
             266.00,53.00 275.00,53.00 275.00,53.00
             275.00,53.00 275.00,50.00 275.00,50.00
             275.00,50.00 263.00,50.00 263.00,50.00 Z
           M 278.00,50.00
           C 278.00,50.00 278.00,70.00 278.00,70.00
             278.00,70.00 282.00,70.00 282.00,70.00
             282.00,70.00 282.00,63.00 282.00,63.00
             282.00,63.00 293.00,70.00 293.00,70.00
             293.00,70.00 288.93,61.00 288.93,61.00
             292.78,58.47 292.99,53.69 288.93,51.31
             286.11,49.73 281.15,50.00 278.00,50.00 Z
           M 303.00,50.72
           C 291.31,53.74 295.02,70.87 305.00,69.25
             313.77,67.82 315.23,51.23 303.00,50.72 Z
           M 316.00,50.00
           C 316.00,50.00 316.00,70.00 316.00,70.00
             316.00,70.00 319.00,70.00 319.00,70.00
             319.00,70.00 319.00,55.00 319.00,55.00
             319.00,55.00 325.00,70.00 325.00,70.00
             325.00,70.00 327.00,70.00 327.00,70.00
             327.00,70.00 332.00,55.00 332.00,55.00
             332.00,55.00 333.00,70.00 333.00,70.00
             333.00,70.00 336.00,70.00 336.00,70.00
             336.00,70.00 336.00,50.00 336.00,50.00
             336.00,50.00 331.70,50.99 331.70,50.99
             331.70,50.99 326.00,65.00 326.00,65.00
             326.00,65.00 319.49,51.02 319.49,51.02
             319.49,51.02 316.00,50.00 316.00,50.00 Z
           M 347.00,50.00
           C 347.00,50.00 347.00,70.00 347.00,70.00
             347.00,70.00 350.00,70.00 350.00,70.00
             350.00,70.00 350.00,61.00 350.00,61.00
             350.00,61.00 359.00,61.00 359.00,61.00
             359.00,61.00 359.00,70.00 359.00,70.00
             359.00,70.00 363.00,70.00 363.00,70.00
             363.00,70.00 363.00,50.00 363.00,50.00
             363.00,50.00 359.00,50.00 359.00,50.00
             359.00,50.00 359.00,58.00 359.00,58.00
             359.00,58.00 350.00,58.00 350.00,58.00
             350.00,58.00 350.00,50.00 350.00,50.00
             350.00,50.00 347.00,50.00 347.00,50.00 Z
           M 373.00,50.74
           C 362.86,54.19 365.23,67.75 373.00,69.34
             383.69,71.51 386.91,50.51 373.00,50.74 Z
           M 386.00,50.00
           C 386.00,50.00 386.00,70.00 386.00,70.00
             386.00,70.00 389.00,70.00 389.00,70.00
             389.00,70.00 389.00,55.00 389.00,55.00
             389.00,55.00 395.00,70.00 395.00,70.00
             395.00,70.00 397.00,70.00 397.00,70.00
             397.00,70.00 402.00,55.00 402.00,55.00
             402.00,55.00 403.00,70.00 403.00,70.00
             403.00,70.00 406.00,70.00 406.00,70.00
             406.00,70.00 406.00,50.00 406.00,50.00
             406.00,50.00 402.51,51.02 402.51,51.02
             402.51,51.02 396.00,65.00 396.00,65.00
             396.00,65.00 390.30,50.99 390.30,50.99
             390.30,50.99 386.00,50.00 386.00,50.00 Z
           M 411.00,50.00
           C 411.00,50.00 411.00,70.00 411.00,70.00
             411.00,70.00 423.00,70.00 423.00,70.00
             423.00,70.00 423.00,67.00 423.00,67.00
             423.00,67.00 414.00,67.00 414.00,67.00
             414.00,67.00 414.00,61.00 414.00,61.00
             414.00,61.00 422.00,61.00 422.00,61.00
             422.00,61.00 422.00,58.00 422.00,58.00
             422.00,58.00 414.00,58.00 414.00,58.00
             414.00,58.00 414.00,53.00 414.00,53.00
             414.00,53.00 423.00,53.00 423.00,53.00
             423.00,53.00 423.00,50.00 423.00,50.00
             423.00,50.00 411.00,50.00 411.00,50.00 Z
           M 433.00,50.00
           C 433.00,50.00 433.00,70.00 433.00,70.00
             433.00,70.00 437.00,70.00 437.00,70.00
             437.00,70.00 437.00,62.00 437.00,62.00
             437.00,62.00 445.00,62.00 445.00,62.00
             445.00,62.00 445.00,59.00 445.00,59.00
             445.00,59.00 437.00,59.00 437.00,59.00
             437.00,59.00 437.00,53.00 437.00,53.00
             437.00,53.00 446.00,53.00 446.00,53.00
             446.00,53.00 446.00,50.00 446.00,50.00
             446.00,50.00 433.00,50.00 433.00,50.00 Z
           M 455.00,50.75
           C 443.33,54.64 447.72,70.28 456.99,69.28
             466.10,68.30 467.76,50.80 455.00,50.75 Z
           M 468.00,50.09
           C 468.00,50.09 468.00,70.00 468.00,70.00
             468.00,70.00 471.00,70.00 471.00,70.00
             471.00,70.00 471.00,63.00 471.00,63.00
             479.39,64.44 474.93,68.65 483.00,70.00
             481.96,68.00 480.23,65.25 480.19,63.00
             480.13,59.85 486.06,51.55 474.00,50.09
             474.00,50.09 468.00,50.09 468.00,50.09 Z
           M 493.00,50.00
           C 493.00,50.00 493.00,70.00 493.00,70.00
             493.00,70.00 496.00,70.00 496.00,70.00
             496.00,70.00 496.00,62.00 496.00,62.00
             496.00,62.00 504.00,62.00 504.00,62.00
             504.00,62.00 504.00,59.00 504.00,59.00
             504.00,59.00 496.00,59.00 496.00,59.00
             496.00,59.00 496.00,53.00 496.00,53.00
             496.00,53.00 505.00,53.00 505.00,53.00
             505.00,53.00 505.00,50.00 505.00,50.00
             505.00,50.00 493.00,50.00 493.00,50.00 Z
           M 508.00,50.09
           C 508.00,50.09 508.00,70.00 508.00,70.00
             508.00,70.00 511.00,70.00 511.00,70.00
             511.00,70.00 511.00,63.00 511.00,63.00
             519.39,64.44 514.93,68.65 523.00,70.00
             521.96,68.00 520.23,65.25 520.19,63.00
             520.13,59.85 526.06,51.55 514.00,50.09
             514.00,50.09 508.00,50.09 508.00,50.09 Z
           M 526.00,50.00
           C 526.00,50.00 526.00,70.00 526.00,70.00
             526.00,70.00 539.00,70.00 539.00,70.00
             539.00,70.00 539.00,67.00 539.00,67.00
             539.00,67.00 529.00,67.00 529.00,67.00
             529.00,67.00 529.00,61.00 529.00,61.00
             529.00,61.00 537.00,61.00 537.00,61.00
             537.00,61.00 537.00,58.00 537.00,58.00
             537.00,58.00 529.00,58.00 529.00,58.00
             529.00,58.00 529.00,53.00 529.00,53.00
             529.00,53.00 539.00,53.00 539.00,53.00
             539.00,53.00 539.00,50.00 539.00,50.00
             539.00,50.00 526.00,50.00 526.00,50.00 Z
           M 542.00,50.00
           C 542.00,50.00 542.00,70.00 542.00,70.00
             542.00,70.00 554.00,70.00 554.00,70.00
             554.00,70.00 554.00,67.00 554.00,67.00
             554.00,67.00 545.00,67.00 545.00,67.00
             545.00,67.00 545.00,61.00 545.00,61.00
             545.00,61.00 553.00,61.00 553.00,61.00
             553.00,61.00 553.00,58.00 553.00,58.00
             553.00,58.00 545.00,58.00 545.00,58.00
             545.00,58.00 545.00,53.00 545.00,53.00
             545.00,53.00 554.00,53.00 554.00,53.00
             554.00,53.00 554.00,50.00 554.00,50.00
             554.00,50.00 542.00,50.00 542.00,50.00 Z
           M 207.22,53.66
           C 215.59,53.03 213.75,65.00 209.87,66.34
             204.19,68.31 201.34,57.72 207.22,53.66 Z
           M 224.00,60.00
           C 224.00,60.00 224.00,53.00 224.00,53.00
             233.14,53.32 233.14,59.68 224.00,60.00 Z
           M 282.00,60.00
           C 282.00,60.00 282.00,53.00 282.00,53.00
             291.14,53.32 291.14,59.68 282.00,60.00 Z
           M 302.22,53.66
           C 310.59,53.03 308.75,65.00 304.87,66.34
             299.19,68.31 296.34,57.72 302.22,53.66 Z
           M 373.13,53.66
           C 381.46,53.04 379.68,64.97 375.78,66.34
             369.99,68.39 367.33,57.54 373.13,53.66 Z
           M 455.12,53.71
           C 463.16,53.39 461.81,64.72 457.78,66.21
             452.26,68.24 447.89,58.12 455.12,53.71 Z
           M 471.00,60.00
           C 471.00,60.00 471.00,53.00 471.00,53.00
             480.79,53.34 480.79,59.66 471.00,60.00 Z
           M 511.00,60.00
           C 511.00,60.00 511.00,53.00 511.00,53.00
             520.79,53.34 520.79,59.66 511.00,60.00 Z
           M 559.00,66.00
           C 559.00,66.00 559.00,70.00 559.00,70.00
             559.00,70.00 559.00,66.00 559.00,66.00 Z
           M 173.00,181.00
           C 173.00,181.00 173.00,179.00 173.00,179.00
             180.39,175.16 182.90,165.81 182.84,158.00
             182.84,158.00 182.84,144.00 182.84,144.00
             180.87,133.27 172.83,124.90 162.00,123.30
             144.77,120.76 133.20,133.41 133.00,150.00
             132.91,157.99 132.41,164.69 136.41,172.00
             139.71,178.02 145.31,182.26 152.00,183.71
             152.00,183.71 163.00,185.34 163.00,185.34
             166.21,186.64 170.19,191.09 173.00,192.43
             177.71,194.68 181.46,190.01 180.66,187.09
             179.86,184.14 175.55,182.09 173.00,181.00 Z
           M 194.00,123.00
           C 194.00,123.00 194.00,184.00 194.00,184.00
             194.00,184.00 232.00,184.00 232.00,184.00
             232.00,184.00 232.00,174.00 232.00,174.00
             232.00,174.00 205.00,174.00 205.00,174.00
             205.00,174.00 205.00,123.00 205.00,123.00
             205.00,123.00 194.00,123.00 194.00,123.00 Z
           M 426.00,152.00
           C 426.00,152.00 403.00,152.00 403.00,152.00
             403.00,152.00 403.00,161.00 403.00,161.00
             403.00,161.00 415.00,161.00 415.00,161.00
             415.00,163.75 415.33,168.52 413.98,170.87
             410.52,176.89 399.67,175.67 395.21,171.61
             386.11,163.33 386.65,134.37 402.00,133.12
             411.05,132.38 412.70,139.18 415.47,140.98
             417.67,142.41 423.28,142.00 426.00,142.00
             422.66,120.68 398.89,119.79 388.00,127.64
             380.96,132.71 378.11,140.59 378.00,149.00
             377.86,161.02 377.16,173.52 389.00,180.79
             397.21,185.82 419.67,186.47 424.98,176.90
             426.20,174.70 426.00,171.47 426.00,169.00
             426.00,169.00 426.00,152.00 426.00,152.00 Z
           M 510.00,123.72
           C 505.06,124.85 500.94,126.35 497.33,130.18
             486.03,142.16 483.86,182.22 514.00,184.48
             546.76,186.95 549.89,131.48 522.00,123.72
             517.78,122.78 514.27,122.84 510.00,123.72 Z
           M 241.00,124.00
           C 241.00,124.00 241.00,184.00 241.00,184.00
             241.00,184.00 252.00,184.00 252.00,184.00
             252.00,184.00 252.00,124.00 252.00,124.00
             252.00,124.00 241.00,124.00 241.00,124.00 Z
           M 265.00,124.00
           C 265.00,124.00 265.00,184.00 265.00,184.00
             265.00,184.00 276.00,184.00 276.00,184.00
             276.00,184.00 276.00,144.00 276.00,144.00
             276.00,144.00 293.95,172.00 293.95,172.00
             293.95,172.00 301.53,183.01 301.53,183.01
             301.53,183.01 313.00,184.00 313.00,184.00
             313.00,184.00 313.00,124.00 313.00,124.00
             313.00,124.00 301.00,124.00 301.00,124.00
             301.00,124.00 301.00,163.00 301.00,163.00
             301.00,163.00 284.20,136.00 284.20,136.00
             284.20,136.00 276.62,125.02 276.62,125.02
             276.62,125.02 265.00,124.00 265.00,124.00 Z
           M 325.00,124.00
           C 325.00,124.00 325.00,184.00 325.00,184.00
             325.00,184.00 336.00,184.00 336.00,184.00
             336.00,184.00 337.17,167.00 337.17,167.00
             337.17,167.00 344.00,159.00 344.00,159.00
             344.00,159.00 354.69,177.00 354.69,177.00
             354.69,177.00 360.32,183.43 360.32,183.43
             360.32,183.43 373.00,184.00 373.00,184.00
             370.02,177.88 355.55,155.22 351.00,151.00
             351.00,151.00 372.00,124.00 372.00,124.00
             372.00,124.00 358.30,124.57 358.30,124.57
             358.30,124.57 351.21,132.00 351.21,132.00
             351.21,132.00 337.00,151.00 337.00,151.00
             337.00,151.00 336.00,124.00 336.00,124.00
             336.00,124.00 325.00,124.00 325.00,124.00 Z
           M 437.00,124.00
           C 437.00,124.00 437.00,184.00 437.00,184.00
             437.00,184.00 449.00,184.00 449.00,184.00
             449.00,184.00 449.00,162.00 449.00,162.00
             449.00,162.00 458.61,163.02 458.61,163.02
             458.61,163.02 470.63,182.01 470.63,182.01
             470.63,182.01 483.00,183.00 483.00,183.00
             483.00,183.00 475.31,168.00 475.31,168.00
             474.31,166.15 472.05,162.14 472.23,160.09
             472.50,157.15 475.82,155.59 478.35,151.99
             480.83,148.46 481.14,145.18 480.96,141.00
             480.04,119.89 451.59,124.00 437.00,124.00 Z
           M 550.00,124.00
           C 550.00,124.00 550.00,161.00 550.00,161.00
             550.01,167.65 550.37,172.72 555.21,177.90
             563.75,187.03 583.59,186.99 591.44,176.96
             595.04,172.36 595.93,165.68 596.00,160.00
             596.00,160.00 596.00,124.00 596.00,124.00
             596.00,124.00 584.00,124.00 584.00,124.00
             584.00,124.00 584.00,161.00 584.00,161.00
             583.88,169.78 577.78,178.86 568.02,173.83
             562.93,171.20 562.07,167.19 562.00,162.00
             562.00,162.00 562.00,124.00 562.00,124.00
             562.00,124.00 550.00,124.00 550.00,124.00 Z
           M 607.00,124.00
           C 607.00,124.00 607.00,184.00 607.00,184.00
             607.00,184.00 618.00,184.00 618.00,184.00
             618.00,184.00 618.00,163.00 618.00,163.00
             625.49,163.00 637.46,163.27 643.99,159.47
             654.78,153.19 654.79,135.83 644.98,128.64
             636.19,122.19 617.88,124.00 607.00,124.00 Z
           M 154.00,133.43
           C 170.94,130.86 173.47,146.94 171.41,160.00
             170.41,166.34 169.10,172.40 162.00,174.43
             141.45,180.31 142.62,146.64 147.09,139.02
             149.01,135.73 150.62,134.77 154.00,133.43 Z
           M 511.00,133.43
           C 527.86,130.87 530.62,146.96 528.56,160.00
             527.57,166.26 525.86,172.47 519.00,174.43
             507.41,177.75 502.12,168.01 502.00,158.00
             501.89,148.78 500.70,137.59 511.00,133.43 Z
           M 449.00,152.00
           C 449.00,152.00 449.00,134.00 449.00,134.00
             452.41,134.00 461.22,133.64 463.98,134.74
             470.58,137.37 471.10,146.48 465.86,150.26
             462.37,152.78 453.41,152.00 449.00,152.00 Z
           M 618.00,134.14
           C 618.00,134.14 627.00,134.14 627.00,134.14
             628.94,134.00 632.18,133.92 633.98,134.14
             640.31,136.21 642.72,144.82 638.49,149.77
             637.50,150.94 636.40,151.70 634.98,152.26
             632.28,153.34 620.90,153.78 619.02,151.40
             617.85,149.92 618.01,146.82 618.00,145.00
             618.00,145.00 618.00,134.14 618.00,134.14 Z
           M 109.00,242.28
           C 103.34,243.81 99.21,245.60 95.21,250.04
             84.02,262.49 83.12,301.31 112.00,303.48
             129.44,304.80 138.81,290.94 139.00,275.00
             139.19,258.53 134.17,243.27 115.00,242.28
             112.63,241.95 111.30,242.15 109.00,242.28 Z
           M 209.00,242.00
           C 209.00,242.00 209.00,303.00 209.00,303.00
             209.00,303.00 247.00,303.00 247.00,303.00
             247.00,303.00 247.00,293.00 247.00,293.00
             247.00,293.00 221.00,293.00 221.00,293.00
             221.00,293.00 221.00,242.00 221.00,242.00
             221.00,242.00 209.00,242.00 209.00,242.00 Z
           M 341.00,242.00
           C 341.00,242.00 341.00,303.00 341.00,303.00
             341.00,303.00 380.00,303.00 380.00,303.00
             380.00,303.00 380.00,293.00 380.00,293.00
             380.00,293.00 352.00,293.00 352.00,293.00
             352.00,289.84 351.47,280.64 353.02,278.31
             354.60,275.95 357.48,276.05 360.00,276.00
             360.00,276.00 376.00,276.00 376.00,276.00
             376.00,276.00 376.00,267.00 376.00,267.00
             376.00,267.00 352.00,267.00 352.00,267.00
             352.00,267.00 352.00,252.00 352.00,252.00
             352.00,252.00 380.00,252.00 380.00,252.00
             380.00,252.00 380.00,242.00 380.00,242.00
             380.00,242.00 341.00,242.00 341.00,242.00 Z
           M 406.00,242.00
           C 406.00,242.00 406.00,252.00 406.00,252.00
             406.00,252.00 424.00,252.00 424.00,252.00
             424.00,252.00 424.00,302.00 424.00,302.00
             424.00,302.00 436.00,302.00 436.00,302.00
             436.00,302.00 436.00,252.00 436.00,252.00
             436.00,252.00 455.00,252.00 455.00,252.00
             455.00,252.00 455.00,242.00 455.00,242.00
             455.00,242.00 406.00,242.00 406.00,242.00 Z
           M 458.00,242.00
           C 458.00,242.00 476.83,281.00 476.83,281.00
             476.83,281.00 476.83,287.00 476.83,287.00
             476.83,287.00 476.83,303.00 476.83,303.00
             476.83,303.00 489.00,303.00 489.00,303.00
             489.00,303.00 489.63,281.00 489.63,281.00
             489.63,281.00 509.00,242.00 509.00,242.00
             509.00,242.00 496.49,243.02 496.49,243.02
             496.49,243.02 492.24,250.00 492.24,250.00
             492.24,250.00 484.00,269.00 484.00,269.00
             484.00,269.00 482.00,269.00 482.00,269.00
             482.00,269.00 474.42,251.00 474.42,251.00
             474.42,251.00 469.61,243.02 469.61,243.02
             469.61,243.02 458.00,242.00 458.00,242.00 Z
           M 702.00,271.00
           C 702.00,271.00 679.00,271.00 679.00,271.00
             679.00,271.00 679.00,280.00 679.00,280.00
             679.00,280.00 691.00,280.00 691.00,280.00
             691.00,282.79 691.33,287.50 689.98,289.89
             686.57,295.95 675.75,294.76 671.33,290.61
             662.82,282.62 662.94,253.58 678.00,252.11
             687.69,251.17 688.58,257.92 691.63,260.01
             693.70,261.42 699.39,261.00 702.00,261.00
             700.37,243.05 679.76,237.69 666.00,245.53
             657.15,250.57 654.12,260.38 654.00,270.00
             653.86,282.04 654.78,294.48 667.00,300.62
             675.15,304.72 695.93,305.00 700.98,295.90
             702.20,293.70 702.00,290.47 702.00,288.00
             702.00,288.00 702.00,271.00 702.00,271.00 Z
           M 149.00,243.00
           C 149.00,243.00 149.00,303.00 149.00,303.00
             149.00,303.00 160.00,303.00 160.00,303.00
             160.00,303.00 161.00,263.00 161.00,263.00
             161.00,263.00 177.58,290.00 177.58,290.00
             177.58,290.00 185.61,302.01 185.61,302.01
             185.61,302.01 197.00,303.00 197.00,303.00
             197.00,303.00 197.00,243.00 197.00,243.00
             197.00,243.00 186.00,243.00 186.00,243.00
             186.00,243.00 186.00,282.00 186.00,282.00
             186.00,282.00 168.42,255.00 168.42,255.00
             168.42,255.00 160.67,244.02 160.67,244.02
             160.67,244.02 149.00,243.00 149.00,243.00 Z
           M 256.00,243.00
           C 256.00,243.00 256.00,303.00 256.00,303.00
             256.00,303.00 268.00,303.00 268.00,303.00
             268.00,303.00 268.00,243.00 268.00,243.00
             268.00,243.00 256.00,243.00 256.00,243.00 Z
           M 280.00,243.00
           C 280.00,243.00 280.00,303.00 280.00,303.00
             280.00,303.00 292.00,303.00 292.00,303.00
             292.00,303.00 292.00,263.00 292.00,263.00
             292.00,263.00 309.00,290.00 309.00,290.00
             309.00,290.00 317.38,301.98 317.38,301.98
             317.38,301.98 329.00,303.00 329.00,303.00
             329.00,303.00 329.00,243.00 329.00,243.00
             329.00,243.00 317.00,243.00 317.00,243.00
             317.00,243.00 317.00,282.00 317.00,282.00
             317.00,282.00 300.60,256.00 300.60,256.00
             300.60,256.00 292.47,243.99 292.47,243.99
             292.47,243.99 280.00,243.00 280.00,243.00 Z
           M 515.00,243.00
           C 515.00,243.00 515.00,303.00 515.00,303.00
             515.00,303.00 527.00,303.00 527.00,303.00
             527.00,303.00 527.00,282.00 527.00,282.00
             534.90,282.00 546.12,282.37 552.99,278.01
             563.53,271.30 563.36,254.99 553.91,247.80
             545.12,241.11 525.99,243.00 515.00,243.00 Z
           M 571.00,243.00
           C 571.00,243.00 571.00,303.00 571.00,303.00
             571.00,303.00 583.00,303.00 583.00,303.00
             583.00,303.00 583.00,243.00 583.00,243.00
             583.00,243.00 571.00,243.00 571.00,243.00 Z
           M 595.00,243.00
           C 595.00,243.00 595.00,303.00 595.00,303.00
             595.00,303.00 607.00,303.00 607.00,303.00
             607.00,303.00 607.00,263.00 607.00,263.00
             607.00,263.00 624.00,290.00 624.00,290.00
             624.00,290.00 632.38,301.98 632.38,301.98
             632.38,301.98 644.00,303.00 644.00,303.00
             644.00,303.00 644.00,243.00 644.00,243.00
             644.00,243.00 632.00,243.00 632.00,243.00
             632.00,243.00 632.00,282.00 632.00,282.00
             632.00,282.00 615.60,256.00 615.60,256.00
             615.60,256.00 607.47,243.99 607.47,243.99
             607.47,243.99 595.00,243.00 595.00,243.00 Z
           M 110.01,252.39
           C 123.93,250.49 126.94,258.83 127.00,271.00
             127.04,279.27 127.32,291.26 117.00,293.61
             96.59,298.25 96.90,263.94 104.79,255.39
             106.60,253.43 107.62,253.20 110.01,252.39 Z
           M 527.00,272.00
           C 527.00,272.00 527.00,253.00 527.00,253.00
             530.84,253.00 540.96,252.42 543.96,254.02
             550.07,257.28 550.83,267.49 544.89,270.83
             541.70,272.62 531.10,272.00 527.00,272.00 Z
           M 382.00,361.72
           C 377.06,362.85 372.94,364.35 369.33,368.18
             358.03,380.16 355.86,420.22 386.00,422.48
             418.76,424.95 421.89,369.48 394.00,361.72
             389.78,360.78 386.27,360.84 382.00,361.72 Z
           M 423.00,361.00
           C 423.00,361.00 423.00,422.00 423.00,422.00
             432.84,422.00 451.93,423.34 459.98,418.03
             469.63,411.68 469.90,394.75 457.00,392.00
             461.55,387.24 464.57,386.42 464.96,379.00
             466.10,357.12 437.64,361.00 423.00,361.00 Z
           M 340.00,362.00
           C 340.00,362.00 340.00,401.00 340.00,401.00
             339.95,404.37 339.90,407.14 337.57,409.85
             333.14,415.00 325.14,413.78 324.00,404.00
             324.00,404.00 312.00,404.00 312.00,404.00
             312.23,408.73 313.06,413.15 316.39,416.79
             324.18,425.30 341.63,424.32 348.35,414.98
             351.88,410.08 351.99,405.73 352.00,400.00
             352.00,400.00 352.00,362.00 352.00,362.00
             352.00,362.00 340.00,362.00 340.00,362.00 Z
           M 383.00,371.43
           C 399.86,368.87 402.62,384.96 400.56,398.00
             399.57,404.26 397.86,410.47 391.00,412.43
             379.41,415.75 374.12,406.01 374.00,396.00
             373.89,386.78 372.70,375.59 383.00,371.43 Z
           M 434.00,387.00
           C 434.00,387.00 434.00,371.00 434.00,371.00
             437.79,371.00 446.86,370.44 449.87,372.17
             454.82,375.02 455.48,383.61 448.96,386.26
             446.26,387.36 437.36,387.00 434.00,387.00 Z
           M 434.00,412.00
           C 434.00,412.00 434.00,396.00 434.00,396.00
             437.93,396.00 448.80,395.36 451.77,397.17
             455.94,399.72 456.37,407.85 450.94,410.83
             447.73,412.58 438.03,412.00 434.00,412.00 Z
           M 480.23,410.88
           C 473.21,415.80 479.69,423.83 485.85,420.65
             489.68,418.67 489.69,413.00 486.69,410.88
             484.61,409.65 482.41,410.19 480.23,410.88 Z
           M 67.00,472.00
           C 67.00,472.00 67.00,490.00 67.00,490.00
             67.00,490.00 70.00,490.00 70.00,490.00
             70.00,490.00 70.00,485.00 70.00,485.00
             70.00,485.00 78.00,490.00 78.00,490.00
             74.68,483.00 74.35,484.23 77.00,477.00
             77.00,477.00 70.00,482.00 70.00,482.00
             70.00,482.00 70.00,472.00 70.00,472.00
             70.00,472.00 67.00,472.00 67.00,472.00 Z
           M 209.00,472.00
           C 209.00,472.00 209.00,490.00 209.00,490.00
             209.00,490.00 211.00,490.00 211.00,490.00
             211.00,490.00 211.00,472.00 211.00,472.00
             211.00,472.00 209.00,472.00 209.00,472.00 Z
           M 216.00,472.00
           C 216.00,472.00 215.00,475.00 215.00,475.00
             215.00,475.00 218.00,473.00 218.00,473.00
             218.00,473.00 216.00,472.00 216.00,472.00 Z
           M 289.00,472.00
           C 289.00,472.00 289.00,490.00 289.00,490.00
             289.00,490.00 291.00,490.00 291.00,490.00
             291.02,484.44 290.51,482.83 295.00,479.00
             295.00,479.00 296.00,490.00 296.00,490.00
             296.00,490.00 299.00,490.00 299.00,490.00
             299.00,482.96 300.70,475.92 291.00,479.00
             291.00,479.00 291.00,472.00 291.00,472.00
             291.00,472.00 289.00,472.00 289.00,472.00 Z
           M 593.00,472.00
           C 593.00,472.00 592.00,475.00 592.00,475.00
             592.00,475.00 595.00,473.00 595.00,473.00
             595.00,473.00 593.00,472.00 593.00,472.00 Z
           M 649.00,472.00
           C 649.00,472.00 648.00,475.00 648.00,475.00
             648.00,475.00 651.00,475.00 651.00,475.00
             651.00,475.00 649.00,472.00 649.00,472.00 Z
           M 34.00,473.00
           C 34.00,473.00 34.00,490.00 34.00,490.00
             34.00,490.00 37.00,490.00 37.00,490.00
             37.00,490.00 36.00,478.00 36.00,478.00
             36.00,478.00 42.00,490.00 42.00,490.00
             42.00,490.00 49.00,478.00 49.00,478.00
             49.00,478.00 48.00,490.00 48.00,490.00
             48.00,490.00 51.00,490.00 51.00,490.00
             51.00,490.00 51.00,473.00 51.00,473.00
             44.98,474.04 44.75,479.76 43.00,485.00
             38.02,476.93 40.45,474.11 34.00,473.00 Z
           M 99.00,473.00
           C 99.00,473.00 99.00,490.00 99.00,490.00
             99.00,490.00 102.00,490.00 102.00,490.00
             102.00,490.00 102.00,478.00 102.00,478.00
             102.00,478.00 107.00,490.00 107.00,490.00
             107.00,490.00 109.00,490.00 109.00,490.00
             109.00,490.00 113.00,478.00 113.00,478.00
             113.00,478.00 114.00,490.00 114.00,490.00
             114.00,490.00 117.00,490.00 117.00,490.00
             117.00,490.00 117.00,473.00 117.00,473.00
             110.63,474.11 110.59,479.43 108.00,485.00
             105.41,479.43 105.37,474.11 99.00,473.00 Z
           M 184.01,473.90
           C 174.13,476.83 177.67,490.41 185.96,489.09
             192.74,488.01 194.81,474.66 184.01,473.90 Z
           M 253.00,473.00
           C 253.00,473.00 256.00,490.00 256.00,490.00
             260.84,488.26 260.67,483.58 262.00,479.00
             262.00,479.00 265.00,490.00 265.00,490.00
             265.00,490.00 267.87,488.43 267.87,488.43
             267.87,488.43 272.00,473.00 272.00,473.00
             267.55,474.80 267.58,480.72 267.00,485.00
             265.11,480.54 265.07,475.64 261.00,473.00
             261.00,473.00 259.00,485.00 259.00,485.00
             259.00,485.00 257.00,485.00 257.00,485.00
             257.00,485.00 255.00,473.00 255.00,473.00
             255.00,473.00 253.00,473.00 253.00,473.00 Z
           M 308.00,473.00
           C 308.00,473.00 308.00,490.00 308.00,490.00
             308.00,490.00 311.00,490.00 311.00,490.00
             311.00,490.00 311.00,479.00 311.00,479.00
             311.00,479.00 321.00,490.00 321.00,490.00
             321.00,490.00 321.00,473.00 321.00,473.00
             321.00,473.00 319.00,473.00 319.00,473.00
             319.00,473.00 319.00,484.00 319.00,484.00
             313.77,478.87 314.65,475.07 308.00,473.00 Z
           M 345.00,473.00
           C 345.00,473.00 345.00,490.00 345.00,490.00
             345.00,490.00 348.00,490.00 348.00,490.00
             348.00,490.00 348.00,473.00 348.00,473.00
             348.00,473.00 345.00,473.00 345.00,473.00 Z
           M 485.00,490.00
           C 485.00,490.00 484.00,482.00 484.00,482.00
             484.00,482.00 482.00,485.00 482.00,485.00
             482.00,485.00 478.00,480.00 478.00,480.00
             483.47,476.29 478.24,472.71 475.31,474.28
             472.88,475.59 471.50,486.18 473.60,488.13
             475.38,489.78 482.28,489.70 485.00,490.00 Z
           M 493.00,473.00
           C 493.00,473.00 493.00,475.00 493.00,475.00
             493.00,475.00 501.00,475.00 501.00,475.00
             501.00,475.00 493.00,490.00 493.00,490.00
             493.00,490.00 505.00,490.00 505.00,490.00
             505.00,490.00 505.00,488.00 505.00,488.00
             505.00,488.00 497.00,488.00 497.00,488.00
             497.00,488.00 505.00,473.00 505.00,473.00
             505.00,473.00 493.00,473.00 493.00,473.00 Z
           M 550.00,473.00
           C 550.00,473.00 550.00,490.00 550.00,490.00
             550.00,490.00 553.00,490.00 553.00,490.00
             553.00,490.00 553.00,483.00 553.00,483.00
             553.00,483.00 562.00,490.00 562.00,490.00
             561.42,488.33 560.27,485.68 560.22,484.00
             560.16,481.28 562.23,479.02 560.77,476.28
             558.92,472.79 553.35,473.03 550.00,473.00 Z
           M 688.00,473.00
           C 688.00,473.00 688.00,490.00 688.00,490.00
             688.00,490.00 690.00,490.00 690.00,490.00
             690.00,490.00 690.00,483.00 690.00,483.00
             690.00,483.00 697.00,483.00 697.00,483.00
             697.00,483.00 697.00,481.00 697.00,481.00
             688.86,480.33 688.85,475.32 698.00,475.00
             698.00,475.00 698.00,473.00 698.00,473.00
             698.00,473.00 688.00,473.00 688.00,473.00 Z
           M 281.00,474.00
           C 280.33,479.01 279.31,488.57 286.00,489.00
             284.24,484.82 283.14,482.91 286.00,479.00
             286.00,479.00 286.00,477.00 286.00,477.00
             286.00,477.00 284.00,474.00 284.00,474.00
             284.00,474.00 281.00,474.00 281.00,474.00 Z
           M 403.00,474.00
           C 402.33,479.01 401.31,488.57 408.00,489.00
             406.24,484.82 405.14,482.91 408.00,479.00
             408.00,479.00 408.00,477.00 408.00,477.00
             408.00,477.00 406.00,474.00 406.00,474.00
             406.00,474.00 403.00,474.00 403.00,474.00 Z
           M 459.00,474.00
           C 459.00,474.00 457.00,477.00 457.00,477.00
             457.00,477.00 457.00,479.00 457.00,479.00
             461.29,484.82 456.25,487.29 463.00,490.00
             461.58,485.44 459.92,483.21 463.00,479.00
             463.00,479.00 463.00,477.00 463.00,477.00
             463.00,477.00 459.00,474.00 459.00,474.00 Z
           M 478.00,475.00
           C 478.00,475.00 479.00,479.00 479.00,479.00
             479.00,479.00 476.00,480.00 476.00,480.00
             476.00,480.00 476.00,475.00 476.00,475.00
             476.00,475.00 478.00,475.00 478.00,475.00 Z
           M 553.00,481.00
           C 553.00,481.00 553.00,475.00 553.00,475.00
             559.55,476.44 560.48,480.38 553.00,481.00 Z
           M 611.00,474.00
           C 611.00,474.00 609.00,477.00 609.00,477.00
             609.00,477.00 609.00,479.00 609.00,479.00
             613.00,484.43 608.85,488.56 616.00,489.00
             612.06,483.06 613.30,482.87 616.00,477.00
             616.00,477.00 611.00,474.00 611.00,474.00 Z
           M 641.00,474.00
           C 641.00,474.00 639.00,477.00 639.00,477.00
             639.00,477.00 639.00,479.00 639.00,479.00
             643.29,484.82 638.25,487.29 645.00,490.00
             643.58,485.44 641.92,483.21 645.00,479.00
             645.00,479.00 645.00,477.00 645.00,477.00
             645.00,477.00 641.00,474.00 641.00,474.00 Z
           M 183.31,476.66
           C 190.78,476.08 189.80,484.96 185.87,486.34
             180.90,488.09 179.12,480.03 183.31,476.66 Z
           M 55.00,481.00
           C 58.70,480.13 58.91,479.64 62.00,482.00
             59.50,482.23 54.86,482.50 54.86,486.01
             54.86,487.20 55.47,488.12 56.45,488.75
             57.85,489.66 62.15,489.80 64.00,490.00
             64.00,487.80 64.23,482.05 63.40,480.28
             61.43,476.08 57.05,477.78 55.00,481.00 Z
           M 90.00,488.00
           C 90.00,488.00 83.00,484.00 83.00,484.00
             83.00,484.00 91.00,484.00 91.00,484.00
             90.70,482.64 90.63,481.51 89.83,480.28
             89.10,479.16 88.19,478.44 86.90,478.08
             79.07,475.90 77.66,489.51 86.02,489.24
             87.65,489.19 88.58,488.59 90.00,488.00 Z
           M 125.00,477.91
           C 116.64,480.41 120.25,489.86 125.96,489.21
             131.37,488.59 133.67,478.93 125.00,477.91 Z
           M 134.00,477.00
           C 134.00,477.00 134.00,490.00 134.00,490.00
             134.00,490.00 136.00,490.00 136.00,490.00
             136.02,484.44 135.51,482.83 140.00,479.00
             140.00,479.00 141.00,490.00 141.00,490.00
             141.00,490.00 144.00,490.00 144.00,490.00
             144.00,486.86 144.84,480.06 141.69,478.36
             141.69,478.36 134.00,477.00 134.00,477.00 Z
           M 157.00,488.00
           C 157.00,488.00 149.00,484.00 149.00,484.00
             149.00,484.00 157.00,484.00 157.00,484.00
             156.90,482.76 156.95,481.44 156.40,480.28
             155.85,479.12 155.10,478.44 153.86,478.08
             146.13,475.83 144.21,489.44 153.00,489.12
             154.57,489.06 155.60,488.51 157.00,488.00 Z
           M 159.00,477.00
           C 161.09,484.76 164.62,487.05 160.00,494.00
             160.00,494.00 163.49,493.17 163.49,493.17
             163.49,493.17 170.00,477.00 170.00,477.00
             165.97,478.57 165.92,481.01 165.00,485.00
             165.00,485.00 162.00,477.00 162.00,477.00
             162.00,477.00 159.00,477.00 159.00,477.00 Z
           M 195.00,477.00
           C 195.00,477.00 195.00,490.00 195.00,490.00
             195.00,490.00 197.00,490.00 197.00,490.00
             197.02,484.44 196.51,482.83 201.00,479.00
             201.00,479.00 202.00,490.00 202.00,490.00
             202.00,490.00 205.00,490.00 205.00,490.00
             205.00,486.86 205.84,480.06 202.69,478.36
             202.69,478.36 195.00,477.00 195.00,477.00 Z
           M 215.00,477.00
           C 215.00,477.00 215.00,490.00 215.00,490.00
             215.00,490.00 217.00,490.00 217.00,490.00
             217.00,490.00 217.00,477.00 217.00,477.00
             217.00,477.00 215.00,477.00 215.00,477.00 Z
           M 221.00,477.00
           C 221.00,477.00 221.00,490.00 221.00,490.00
             221.00,490.00 223.00,490.00 223.00,490.00
             223.02,484.44 222.51,482.83 227.00,479.00
             227.00,479.00 228.00,490.00 228.00,490.00
             228.00,490.00 231.00,490.00 231.00,490.00
             231.00,486.86 231.84,480.06 228.69,478.36
             228.69,478.36 221.00,477.00 221.00,477.00 Z
           M 244.00,488.00
           C 244.00,488.00 237.00,484.00 237.00,484.00
             237.00,484.00 245.00,484.00 245.00,484.00
             244.70,482.64 244.63,481.51 243.83,480.28
             243.10,479.16 242.19,478.44 240.90,478.08
             233.07,475.90 231.66,489.51 240.02,489.24
             241.65,489.19 242.58,488.59 244.00,488.00 Z
           M 275.00,477.00
           C 275.00,477.00 275.00,490.00 275.00,490.00
             275.00,490.00 277.00,490.00 277.00,490.00
             277.00,490.00 277.00,477.00 277.00,477.00
             277.00,477.00 275.00,477.00 275.00,477.00 Z
           M 330.00,477.91
           C 321.64,480.41 325.25,489.86 330.96,489.21
             336.37,488.59 338.67,478.93 330.00,477.91 Z
           M 352.00,477.00
           C 352.00,477.00 352.00,490.00 352.00,490.00
             352.00,490.00 354.00,490.00 354.00,490.00
             354.00,484.52 353.04,482.18 358.00,479.00
             358.00,479.00 359.00,490.00 359.00,490.00
             359.00,490.00 362.00,490.00 362.00,490.00
             362.00,486.78 362.72,480.14 359.57,478.27
             357.56,477.08 356.56,478.46 352.00,477.00 Z
           M 364.00,477.00
           C 364.00,477.00 368.00,490.00 368.00,490.00
             373.00,488.21 373.92,481.71 375.00,477.00
             370.77,478.65 370.84,481.85 370.00,486.00
             370.00,486.00 367.00,477.00 367.00,477.00
             367.00,477.00 364.00,477.00 364.00,477.00 Z
           M 387.00,488.00
           C 387.00,488.00 380.00,484.00 380.00,484.00
             380.00,484.00 388.00,484.00 388.00,484.00
             387.70,482.64 387.63,481.51 386.83,480.28
             386.10,479.16 385.19,478.44 383.90,478.08
             376.07,475.90 374.66,489.51 383.02,489.24
             384.65,489.19 385.58,488.59 387.00,488.00 Z
           M 397.00,488.00
           C 397.00,488.00 390.00,486.01 390.00,486.01
             393.73,491.91 399.33,488.89 398.97,486.01
             398.64,483.36 395.62,483.44 393.00,479.00
             393.00,479.00 400.00,480.99 400.00,480.99
             394.59,475.12 390.72,478.52 391.03,480.99
             391.36,483.64 394.38,483.56 397.00,488.00 Z
           M 411.00,477.00
           C 411.00,477.00 411.00,490.00 411.00,490.00
             411.00,490.00 413.00,490.00 413.00,490.00
             413.00,484.52 412.04,482.18 417.00,479.00
             417.00,479.00 418.00,490.00 418.00,490.00
             418.00,490.00 421.00,490.00 421.00,490.00
             421.00,490.00 422.00,479.00 422.00,479.00
             422.00,479.00 424.00,479.00 424.00,479.00
             424.00,479.00 426.00,490.00 426.00,490.00
             426.00,490.00 428.00,490.00 428.00,490.00
             428.00,490.00 426.98,479.47 426.98,479.47
             426.98,479.47 411.00,477.00 411.00,477.00 Z
           M 441.00,488.00
           C 441.00,488.00 434.00,484.00 434.00,484.00
             434.00,484.00 442.00,484.00 442.00,484.00
             441.70,482.64 441.63,481.51 440.83,480.28
             440.10,479.16 439.19,478.44 437.90,478.08
             430.07,475.90 428.66,489.51 437.02,489.24
             438.65,489.19 439.58,488.59 441.00,488.00 Z
           M 444.00,477.00
           C 444.00,477.00 444.00,490.00 444.00,490.00
             444.00,490.00 447.00,490.00 447.00,490.00
             447.00,484.52 446.04,482.18 451.00,479.00
             451.00,479.00 452.00,490.00 452.00,490.00
             452.00,490.00 454.00,490.00 454.00,490.00
             454.00,485.65 455.71,474.58 448.00,479.00
             448.00,479.00 444.00,477.00 444.00,477.00 Z
           M 518.00,488.00
           C 518.00,488.00 511.00,484.00 511.00,484.00
             511.00,484.00 519.00,484.00 519.00,484.00
             518.70,482.64 518.63,481.51 517.83,480.28
             517.10,479.16 516.19,478.44 514.90,478.08
             507.07,475.90 505.66,489.51 514.02,489.24
             515.65,489.19 516.58,488.59 518.00,488.00 Z
           M 521.00,477.00
           C 521.00,477.00 521.00,490.00 521.00,490.00
             521.00,490.00 524.00,490.00 524.00,490.00
             524.00,490.00 524.00,480.00 524.00,480.00
             526.87,479.45 526.87,479.71 528.00,477.00
             528.00,477.00 525.00,479.00 525.00,479.00
             525.00,479.00 521.00,477.00 521.00,477.00 Z
           M 534.05,477.96
           C 526.08,481.96 531.03,490.11 535.96,489.04
             541.58,487.82 542.67,478.29 534.05,477.96 Z
           M 575.00,488.00
           C 575.00,488.00 567.00,484.00 567.00,484.00
             567.00,484.00 575.00,484.00 575.00,484.00
             574.77,482.60 574.79,481.52 573.98,480.23
             567.86,470.53 559.32,489.94 571.00,489.24
             572.47,489.15 573.67,488.52 575.00,488.00 Z
           M 586.00,488.87
           C 583.25,492.04 583.09,492.07 579.00,492.00
             581.60,495.22 585.75,494.74 587.40,490.87
             588.31,488.72 588.00,479.84 588.00,477.00
             588.00,477.00 586.00,479.00 586.00,479.00
             584.10,478.23 582.38,477.21 580.36,478.28
             576.83,480.06 577.08,486.83 580.36,488.87
             582.12,489.71 584.18,489.22 586.00,488.87 Z
           M 592.00,477.00
           C 592.00,477.00 592.00,490.00 592.00,490.00
             592.00,490.00 594.00,490.00 594.00,490.00
             594.00,490.00 594.00,477.00 594.00,477.00
             594.00,477.00 592.00,477.00 592.00,477.00 Z
           M 605.00,485.00
           C 605.00,485.00 605.00,487.00 605.00,487.00
             605.00,487.00 597.00,486.00 597.00,486.00
             598.92,487.99 600.78,489.80 603.86,488.92
             606.54,488.15 607.89,485.07 603.86,483.13
             602.64,482.54 601.30,482.31 600.00,482.00
             600.00,482.00 600.00,480.00 600.00,480.00
             600.00,480.00 607.00,481.00 607.00,481.00
             602.30,473.56 594.68,480.75 601.13,483.87
             602.36,484.46 603.70,484.69 605.00,485.00 Z
           M 618.00,477.00
           C 618.00,477.00 618.00,490.00 618.00,490.00
             618.00,490.00 621.00,490.00 621.00,490.00
             621.04,479.10 622.50,484.01 625.00,477.00
             625.00,477.00 622.00,479.00 622.00,479.00
             622.00,479.00 618.00,477.00 618.00,477.00 Z
           M 627.00,481.05
           C 630.62,480.29 631.05,479.47 634.00,482.00
             631.22,482.47 623.70,485.30 629.32,488.70
             630.81,489.59 635.13,489.82 637.00,490.00
             637.00,487.77 637.20,483.02 636.40,481.05
             634.37,476.23 629.55,476.96 627.00,481.05 Z
           M 648.00,477.00
           C 648.00,477.00 648.00,490.00 648.00,490.00
             648.00,490.00 651.00,490.00 651.00,490.00
             651.00,490.00 651.00,477.00 651.00,477.00
             651.00,477.00 648.00,477.00 648.00,477.00 Z
           M 659.04,477.91
           C 651.74,480.15 653.85,487.75 658.11,488.92
             664.98,490.82 668.78,479.05 659.04,477.91 Z
           M 668.00,477.00
           C 668.00,477.00 668.00,490.00 668.00,490.00
             668.00,490.00 671.00,490.00 671.00,490.00
             671.00,490.00 672.00,479.00 672.00,479.00
             676.49,482.83 675.98,484.44 676.00,490.00
             676.00,490.00 678.00,490.00 678.00,490.00
             678.00,485.78 679.38,475.35 672.00,479.00
             672.00,479.00 668.00,477.00 668.00,477.00 Z
           M 710.00,487.00
           C 705.91,487.07 705.75,487.04 703.00,484.00
             703.00,484.00 711.00,484.00 711.00,484.00
             709.42,474.51 701.26,476.98 700.50,483.00
             699.85,488.15 706.15,491.88 710.00,487.00 Z
           M 723.00,487.00
           C 718.91,487.07 718.75,487.04 716.00,484.00
             716.00,484.00 724.00,484.00 724.00,484.00
             722.42,474.51 714.26,476.98 713.50,483.00
             712.85,488.15 719.15,491.88 723.00,487.00 Z
           M 88.00,482.00
           C 88.00,482.00 83.00,482.00 83.00,482.00
             85.00,479.21 86.02,479.22 88.00,482.00 Z
           M 124.00,488.00
           C 122.11,483.69 122.11,483.31 124.00,479.00
             129.35,481.15 129.35,485.85 124.00,488.00 Z
           M 155.00,482.00
           C 155.00,482.00 150.00,482.00 150.00,482.00
             150.00,482.00 151.00,479.00 151.00,479.00
             151.00,479.00 155.00,482.00 155.00,482.00 Z
           M 242.00,482.00
           C 242.00,482.00 237.00,482.00 237.00,482.00
             239.00,479.21 240.02,479.22 242.00,482.00 Z
           M 329.00,488.00
           C 327.11,483.69 327.11,483.31 329.00,479.00
             334.35,481.15 334.35,485.85 329.00,488.00 Z
           M 385.00,482.00
           C 385.00,482.00 380.00,482.00 380.00,482.00
             382.00,479.21 383.02,479.22 385.00,482.00 Z
           M 439.00,482.00
           C 439.00,482.00 434.00,482.00 434.00,482.00
             436.00,479.21 437.02,479.22 439.00,482.00 Z
           M 516.00,482.00
           C 516.00,482.00 511.00,482.00 511.00,482.00
             513.00,479.21 514.02,479.22 516.00,482.00 Z
           M 535.00,480.20
           C 539.64,482.29 537.17,486.80 535.00,486.80
             532.83,486.80 530.36,482.29 535.00,480.20 Z
           M 573.00,482.00
           C 573.00,482.00 567.00,482.00 567.00,482.00
             569.82,479.50 570.18,479.50 573.00,482.00 Z
           M 583.00,480.20
           C 587.64,482.29 585.17,486.80 583.00,486.80
             580.83,486.80 578.36,482.29 583.00,480.20 Z
           M 659.86,480.17
           C 664.76,483.00 661.24,488.04 658.46,486.60
             656.52,485.60 655.50,481.12 659.86,480.17 Z
           M 708.00,482.00
           C 708.00,482.00 703.00,482.00 703.00,482.00
             705.00,479.21 706.02,479.22 708.00,482.00 Z
           M 721.00,482.00
           C 721.00,482.00 716.00,482.00 716.00,482.00
             718.00,479.21 719.02,479.22 721.00,482.00 Z
           M 479.00,488.00
           C 475.10,487.31 474.46,487.04 475.00,483.00
             475.00,483.00 479.00,488.00 479.00,488.00 Z
           M 62.00,484.00
           C 62.00,484.00 58.00,488.00 58.00,488.00
             58.00,488.00 57.00,484.00 57.00,484.00
             57.00,484.00 62.00,484.00 62.00,484.00 Z
           M 634.00,484.00
           C 632.80,487.39 632.54,487.47 629.00,487.00
             629.00,487.00 629.00,485.00 629.00,485.00
             629.00,485.00 634.00,484.00 634.00,484.00 Z
           M 727.00,487.00
           C 727.00,487.00 728.00,490.00 728.00,490.00
             728.00,490.00 730.00,487.00 730.00,487.00
             730.00,487.00 727.00,487.00 727.00,487.00 Z
           M 240.00,505.00
           C 240.00,505.00 240.00,523.00 240.00,523.00
             240.00,523.00 243.00,523.00 243.00,523.00
             243.00,523.00 243.00,518.00 243.00,518.00
             243.00,518.00 251.00,523.00 251.00,523.00
             247.68,516.00 247.35,517.23 250.00,510.00
             250.00,510.00 243.00,515.00 243.00,515.00
             243.00,515.00 243.00,505.00 243.00,505.00
             243.00,505.00 240.00,505.00 240.00,505.00 Z
           M 330.00,505.00
           C 330.00,505.00 330.00,523.00 330.00,523.00
             330.00,523.00 333.00,523.00 333.00,523.00
             333.00,523.00 333.00,505.00 333.00,505.00
             333.00,505.00 330.00,505.00 330.00,505.00 Z
           M 380.00,505.00
           C 380.00,505.00 380.00,523.00 380.00,523.00
             380.00,523.00 383.00,523.00 383.00,523.00
             383.00,523.00 383.00,505.00 383.00,505.00
             383.00,505.00 380.00,505.00 380.00,505.00 Z
           M 387.00,505.00
           C 387.00,505.00 387.00,523.00 387.00,523.00
             387.00,523.00 389.00,523.00 389.00,523.00
             389.00,523.00 389.00,505.00 389.00,505.00
             389.00,505.00 387.00,505.00 387.00,505.00 Z
           M 433.00,505.00
           C 433.00,505.00 433.00,523.00 433.00,523.00
             433.00,523.00 436.00,523.00 436.00,523.00
             436.00,521.01 435.43,513.46 438.58,513.42
             441.57,513.39 441.00,521.12 441.00,523.00
             441.00,523.00 443.00,523.00 443.00,523.00
             443.00,516.07 444.91,508.35 436.00,512.00
             436.00,512.00 436.00,505.00 436.00,505.00
             436.00,505.00 433.00,505.00 433.00,505.00 Z
           M 516.00,505.00
           C 516.00,505.00 516.00,523.00 516.00,523.00
             516.00,523.00 519.00,523.00 519.00,523.00
             519.00,523.00 519.00,518.00 519.00,518.00
             519.00,518.00 527.00,523.00 527.00,523.00
             522.70,515.27 522.34,516.63 526.00,510.00
             526.00,510.00 519.00,515.00 519.00,515.00
             519.00,515.00 519.00,505.00 519.00,505.00
             519.00,505.00 516.00,505.00 516.00,505.00 Z
           M 563.00,505.00
           C 563.00,505.00 563.00,523.00 563.00,523.00
             563.00,523.00 565.00,523.00 565.00,523.00
             565.00,523.00 565.00,505.00 565.00,505.00
             565.00,505.00 563.00,505.00 563.00,505.00 Z
           M 164.00,506.00
           C 164.00,506.00 164.00,523.00 164.00,523.00
             164.00,523.00 167.00,523.00 167.00,523.00
             167.00,523.00 168.00,516.00 168.00,516.00
             168.00,516.00 170.00,516.00 170.00,516.00
             171.73,520.36 172.44,521.59 177.00,523.00
             177.00,523.00 172.52,513.42 172.52,513.42
             172.52,513.42 177.00,506.00 177.00,506.00
             171.68,506.88 170.42,509.44 168.00,514.00
             168.00,514.00 167.00,506.00 167.00,506.00
             167.00,506.00 164.00,506.00 164.00,506.00 Z
           M 281.00,506.00
           C 281.00,506.00 281.00,523.00 281.00,523.00
             281.00,523.00 284.00,523.00 284.00,523.00
             284.00,523.00 284.00,517.00 284.00,517.00
             287.32,516.81 292.75,516.48 292.72,511.91
             292.71,510.26 291.97,508.87 290.69,507.85
             288.20,505.88 284.02,506.03 281.00,506.00 Z
           M 355.00,527.00
           C 351.30,525.48 347.42,525.92 345.18,521.89
             342.28,516.69 346.05,507.60 352.98,508.28
             358.71,508.85 363.56,518.16 355.00,521.00
             355.00,521.00 356.00,512.00 356.00,512.00
             353.61,511.85 351.44,511.49 349.60,513.47
             347.83,515.38 346.74,521.38 351.05,522.07
             351.05,522.07 355.27,522.07 355.27,522.07
             365.70,521.45 360.64,502.70 349.04,507.16
             342.51,509.67 340.06,520.50 345.43,525.30
             348.32,527.89 351.51,527.68 355.00,527.00 Z
           M 369.00,506.00
           C 369.00,506.00 363.00,523.00 363.00,523.00
             363.00,523.00 370.91,519.62 370.91,519.62
             370.91,519.62 378.00,523.00 378.00,523.00
             378.00,523.00 372.00,506.00 372.00,506.00
             372.00,506.00 369.00,506.00 369.00,506.00 Z
           M 392.00,506.00
           C 392.00,506.00 392.00,508.00 392.00,508.00
             392.00,508.00 397.00,508.00 397.00,508.00
             397.00,508.00 397.00,523.00 397.00,523.00
             397.00,523.00 400.00,523.00 400.00,523.00
             400.00,523.00 400.00,508.00 400.00,508.00
             400.00,508.00 405.00,508.00 405.00,508.00
             405.00,508.00 405.00,506.00 405.00,506.00
             405.00,506.00 392.00,506.00 392.00,506.00 Z
           M 473.00,506.00
           C 473.00,506.00 473.00,508.00 473.00,508.00
             473.00,508.00 478.00,508.00 478.00,508.00
             478.00,508.00 478.00,523.00 478.00,523.00
             478.00,523.00 481.00,523.00 481.00,523.00
             481.00,523.00 481.00,508.00 481.00,508.00
             481.00,508.00 486.00,508.00 486.00,508.00
             486.00,508.00 486.00,506.00 486.00,506.00
             486.00,506.00 473.00,506.00 473.00,506.00 Z
           M 548.00,506.00
           C 548.00,506.00 548.00,523.00 548.00,523.00
             551.46,522.97 557.68,523.35 558.63,518.92
             559.08,516.84 558.33,516.20 557.00,515.00
             557.00,515.00 557.00,513.00 557.00,513.00
             563.45,507.12 551.36,506.03 548.00,506.00 Z
           M 284.00,515.00
           C 284.00,515.00 284.00,508.00 284.00,508.00
             292.35,508.98 292.35,514.02 284.00,515.00 Z
           M 310.00,507.00
           C 310.00,507.00 308.00,510.00 308.00,510.00
             308.00,510.00 308.00,512.00 308.00,512.00
             312.00,517.43 307.85,521.56 315.00,522.00
             311.06,516.06 312.30,515.87 315.00,510.00
             315.00,510.00 310.00,507.00 310.00,507.00 Z
           M 556.00,513.00
           C 556.00,513.00 550.00,513.00 550.00,513.00
             551.06,506.99 555.00,507.22 556.00,513.00 Z
           M 371.00,510.00
           C 371.00,510.00 373.00,517.00 373.00,517.00
             373.00,517.00 368.00,517.00 368.00,517.00
             368.00,517.00 371.00,510.00 371.00,510.00 Z
           M 179.00,514.05
           C 182.62,513.29 183.05,512.47 186.00,515.00
             183.22,515.47 175.70,518.30 181.32,521.70
             182.81,522.59 187.13,522.82 189.00,523.00
             189.00,520.77 189.20,516.02 188.40,514.05
             186.37,509.23 181.55,509.96 179.00,514.05 Z
           M 192.00,510.00
           C 192.00,510.00 192.00,523.00 192.00,523.00
             192.00,523.00 195.00,523.00 195.00,523.00
             195.01,511.78 195.66,517.12 198.00,510.00
             198.00,510.00 192.00,510.00 192.00,510.00 Z
           M 201.00,510.00
           C 201.00,521.97 200.37,521.98 211.00,523.00
             211.00,523.00 211.00,510.00 211.00,510.00
             211.00,510.00 208.00,510.00 208.00,510.00
             208.00,510.00 207.00,521.00 207.00,521.00
             202.04,517.82 203.00,515.48 203.00,510.00
             203.00,510.00 201.00,510.00 201.00,510.00 Z
           M 214.00,510.00
           C 214.00,510.00 214.00,523.00 214.00,523.00
             214.00,523.00 217.00,523.00 217.00,523.00
             217.00,523.00 218.00,512.00 218.00,512.00
             222.49,515.83 221.98,517.44 222.00,523.00
             222.00,523.00 224.00,523.00 224.00,523.00
             224.00,518.78 225.38,508.35 218.00,512.00
             218.00,512.00 214.00,510.00 214.00,510.00 Z
           M 228.00,514.00
           C 231.70,513.13 231.91,512.64 235.00,515.00
             232.50,515.23 227.86,515.50 227.86,519.01
             227.86,520.20 228.47,521.12 229.45,521.75
             230.85,522.66 235.15,522.80 237.00,523.00
             237.00,520.80 237.23,515.05 236.40,513.28
             234.43,509.08 230.05,510.78 228.00,514.00 Z
           M 253.00,514.05
           C 256.62,513.29 257.05,512.47 260.00,515.00
             257.22,515.47 249.70,518.30 255.32,521.70
             256.81,522.59 261.13,522.82 263.00,523.00
             263.00,520.77 263.20,516.02 262.40,514.05
             260.37,509.23 255.55,509.96 253.00,514.05 Z
           M 266.00,510.00
           C 266.00,510.00 266.00,523.00 266.00,523.00
             266.00,523.00 269.00,523.00 269.00,523.00
             269.00,523.00 269.00,513.00 269.00,513.00
             271.87,512.45 271.87,512.71 273.00,510.00
             273.00,510.00 270.00,512.00 270.00,512.00
             270.00,512.00 266.00,510.00 266.00,510.00 Z
           M 296.00,514.00
           C 299.47,513.53 300.04,512.96 303.00,515.00
             300.18,515.48 292.72,518.30 298.32,521.75
             299.78,522.65 304.10,522.80 306.00,523.00
             306.00,518.75 306.46,506.34 298.22,511.76
             297.09,512.52 296.80,513.14 296.00,514.00 Z
           M 327.00,521.00
           C 327.00,521.00 320.00,517.00 320.00,517.00
             320.00,517.00 328.00,517.00 328.00,517.00
             327.70,515.64 327.63,514.51 326.83,513.28
             326.10,512.16 325.19,511.44 323.90,511.08
             316.07,508.90 314.66,522.51 323.02,522.24
             324.65,522.19 325.58,521.59 327.00,521.00 Z
           M 418.00,521.00
           C 418.00,521.00 410.00,517.00 410.00,517.00
             410.00,517.00 418.00,517.00 418.00,517.00
             417.77,515.60 417.79,514.52 416.98,513.23
             410.86,503.53 402.32,522.94 414.00,522.24
             415.47,522.15 416.67,521.52 418.00,521.00 Z
           M 430.00,519.00
           C 428.39,519.32 426.09,520.08 424.82,519.00
             422.85,517.74 423.10,514.48 424.82,513.75
             426.32,512.85 428.65,513.68 430.00,513.75
             426.76,508.91 421.51,510.54 420.47,515.05
             419.17,520.71 425.81,525.58 430.00,519.00 Z
           M 447.00,510.00
           C 447.00,510.00 447.00,523.00 447.00,523.00
             447.00,523.00 449.00,523.00 449.00,523.00
             449.00,517.52 448.04,515.18 453.00,512.00
             453.00,512.00 454.00,523.00 454.00,523.00
             454.00,523.00 457.00,523.00 457.00,523.00
             457.00,519.78 457.72,513.14 454.57,511.27
             452.56,510.08 451.56,511.46 447.00,510.00 Z
           M 465.00,510.91
           C 456.64,513.41 460.25,522.86 465.96,522.21
             471.37,521.59 473.67,511.93 465.00,510.91 Z
           M 489.00,510.00
           C 489.00,510.00 489.00,523.00 489.00,523.00
             489.00,523.00 491.00,523.00 491.00,523.00
             491.04,512.10 492.50,517.01 495.00,510.00
             495.00,510.00 489.00,510.00 489.00,510.00 Z
           M 498.00,510.00
           C 498.00,510.00 498.00,523.00 498.00,523.00
             498.00,523.00 500.00,523.00 500.00,523.00
             500.00,523.00 500.00,510.00 500.00,510.00
             500.00,510.00 498.00,510.00 498.00,510.00 Z
           M 513.00,519.00
           C 511.39,519.32 509.09,520.08 507.82,519.00
             505.85,517.74 506.10,514.48 507.82,513.75
             509.32,512.85 511.65,513.68 513.00,513.75
             509.76,508.91 504.51,510.54 503.47,515.05
             502.17,520.71 508.81,525.58 513.00,519.00 Z
           M 536.00,518.00
           C 536.00,518.00 536.00,520.00 536.00,520.00
             536.00,520.00 529.00,519.00 529.00,519.00
             532.95,525.26 538.53,521.21 537.51,518.25
             537.01,516.79 532.46,514.09 531.00,513.00
             531.00,513.00 538.00,514.00 538.00,514.00
             533.65,506.84 526.23,513.13 532.15,516.70
             533.35,517.43 534.68,517.65 536.00,518.00 Z
           M 573.05,510.96
           C 565.08,514.96 570.03,523.11 574.96,522.04
             580.58,520.82 581.67,511.29 573.05,510.96 Z
           M 590.00,522.00
           C 587.85,525.61 587.03,525.21 583.00,525.00
             584.90,526.55 586.27,527.66 588.95,526.92
             594.63,525.37 593.00,514.67 593.00,510.00
             590.06,510.32 585.79,510.08 583.74,512.44
             581.26,515.30 581.09,523.15 590.00,522.00 Z
           M 325.00,515.00
           C 325.00,515.00 320.00,515.00 320.00,515.00
             322.00,512.21 323.02,512.22 325.00,515.00 Z
           M 416.00,515.00
           C 416.00,515.00 410.00,515.00 410.00,515.00
             412.66,512.64 413.34,512.64 416.00,515.00 Z
           M 464.00,521.00
           C 462.11,516.69 462.11,516.31 464.00,512.00
             469.35,514.15 469.35,518.85 464.00,521.00 Z
           M 574.00,513.20
           C 578.64,515.29 576.17,519.80 574.00,519.80
             571.83,519.80 569.36,515.29 574.00,513.20 Z
           M 589.00,512.00
           C 589.00,512.00 589.00,521.00 589.00,521.00
             584.09,518.23 584.09,514.77 589.00,512.00 Z
           M 354.00,513.00
           C 354.00,513.00 353.00,521.00 353.00,521.00
             347.17,518.95 349.04,514.65 354.00,513.00 Z
           M 550.16,515.07
           C 550.16,515.07 552.94,515.07 552.94,515.07
             560.67,516.47 552.28,524.38 550.16,517.85
             550.16,517.85 550.16,515.07 550.16,515.07 Z
           M 186.00,517.00
           C 184.80,520.39 184.54,520.47 181.00,520.00
             181.00,520.00 181.00,518.00 181.00,518.00
             181.00,518.00 186.00,517.00 186.00,517.00 Z
           M 235.00,517.00
           C 235.00,517.00 231.00,521.00 231.00,521.00
             231.00,521.00 230.00,517.00 230.00,517.00
             230.00,517.00 235.00,517.00 235.00,517.00 Z
           M 260.00,517.00
           C 258.80,520.39 258.54,520.47 255.00,520.00
             255.00,520.00 255.00,518.00 255.00,518.00
             255.00,518.00 260.00,517.00 260.00,517.00 Z
           M 303.00,517.00
           C 301.93,520.07 302.07,519.93 299.00,521.00
             299.00,521.00 299.00,517.00 299.00,517.00
             299.00,517.00 303.00,517.00 303.00,517.00 Z
           M 597.00,520.00
           C 597.00,520.00 599.00,523.00 599.00,523.00
             599.00,523.00 600.00,522.00 600.00,522.00
             600.00,522.00 599.00,520.00 599.00,520.00
             599.00,520.00 597.00,520.00 597.00,520.00 Z" />
</svg>
