<?xml version="1.0" encoding="UTF-8" standalone="no"?>
<!DOCTYPE svg PUBLIC "-//W3C//DTD SVG 20010904//EN"
              "http://www.w3.org/TR/2001/REC-SVG-20010904/DTD/svg10.dtd">

<svg xmlns="http://www.w3.org/2000/svg"
    style="background-color: white;"
     viewBox="0 0 5428 160">
  <path id="Selection"
        fill="red" stroke="white" stroke-width="0"
        d="M 4.00,160.00
           C 4.00,160.00 131.00,160.00 131.00,160.00
             141.97,159.98 143.45,155.55 151.00,148.00
             151.00,148.00 177.00,122.00 177.00,122.00
             177.00,122.00 257.00,42.00 257.00,42.00
             257.00,42.00 298.00,0.00 298.00,0.00
             298.00,0.00 171.00,0.00 171.00,0.00
             160.03,0.02 158.55,4.45 151.00,12.00
             151.00,12.00 125.00,38.00 125.00,38.00
             125.00,38.00 45.00,118.00 45.00,118.00
             45.00,118.00 4.00,160.00 4.00,160.00 Z
           M 274.00,160.00
           C 274.00,160.00 401.00,160.00 401.00,160.00
             411.97,159.98 413.45,155.55 421.00,148.00
             421.00,148.00 447.00,122.00 447.00,122.00
             447.00,122.00 527.00,42.00 527.00,42.00
             527.00,42.00 568.00,0.00 568.00,0.00
             568.00,0.00 441.00,0.00 441.00,0.00
             430.03,0.02 428.55,4.45 421.00,12.00
             421.00,12.00 395.00,38.00 395.00,38.00
             395.00,38.00 315.00,118.00 315.00,118.00
             315.00,118.00 274.00,160.00 274.00,160.00 Z
           M 544.00,160.00
           C 544.00,160.00 671.00,160.00 671.00,160.00
             681.97,159.98 683.45,155.55 691.00,148.00
             691.00,148.00 717.00,122.00 717.00,122.00
             717.00,122.00 797.00,42.00 797.00,42.00
             797.00,42.00 838.00,0.00 838.00,0.00
             838.00,0.00 711.00,0.00 711.00,0.00
             700.03,0.02 698.55,4.45 691.00,12.00
             691.00,12.00 665.00,38.00 665.00,38.00
             665.00,38.00 585.00,118.00 585.00,118.00
             585.00,118.00 544.00,160.00 544.00,160.00 Z
           M 814.00,160.00
           C 814.00,160.00 941.00,160.00 941.00,160.00
             951.97,159.98 953.45,155.55 961.00,148.00
             961.00,148.00 987.00,122.00 987.00,122.00
             987.00,122.00 1067.00,42.00 1067.00,42.00
             1067.00,42.00 1108.00,0.00 1108.00,0.00
             1108.00,0.00 981.00,0.00 981.00,0.00
             970.03,0.02 968.55,4.45 961.00,12.00
             961.00,12.00 935.00,38.00 935.00,38.00
             935.00,38.00 855.00,118.00 855.00,118.00
             855.00,118.00 814.00,160.00 814.00,160.00 Z
           M 1084.00,160.00
           C 1084.00,160.00 1211.00,160.00 1211.00,160.00
             1221.97,159.98 1223.45,155.55 1231.00,148.00
             1231.00,148.00 1257.00,122.00 1257.00,122.00
             1257.00,122.00 1337.00,42.00 1337.00,42.00
             1337.00,42.00 1378.00,0.00 1378.00,0.00
             1378.00,0.00 1251.00,0.00 1251.00,0.00
             1240.03,0.02 1238.55,4.45 1231.00,12.00
             1231.00,12.00 1205.00,38.00 1205.00,38.00
             1205.00,38.00 1125.00,118.00 1125.00,118.00
             1125.00,118.00 1084.00,160.00 1084.00,160.00 Z
           M 1354.00,160.00
           C 1354.00,160.00 1481.00,160.00 1481.00,160.00
             1491.97,159.98 1493.45,155.55 1501.00,148.00
             1501.00,148.00 1527.00,122.00 1527.00,122.00
             1527.00,122.00 1607.00,42.00 1607.00,42.00
             1607.00,42.00 1648.00,0.00 1648.00,0.00
             1648.00,0.00 1521.00,0.00 1521.00,0.00
             1510.03,0.02 1508.55,4.45 1501.00,12.00
             1501.00,12.00 1475.00,38.00 1475.00,38.00
             1475.00,38.00 1395.00,118.00 1395.00,118.00
             1395.00,118.00 1354.00,160.00 1354.00,160.00 Z
           M 1624.00,160.00
           C 1624.00,160.00 1751.00,160.00 1751.00,160.00
             1761.97,159.98 1763.45,155.55 1771.00,148.00
             1771.00,148.00 1797.00,122.00 1797.00,122.00
             1797.00,122.00 1877.00,42.00 1877.00,42.00
             1877.00,42.00 1918.00,0.00 1918.00,0.00
             1918.00,0.00 1791.00,0.00 1791.00,0.00
             1780.03,0.02 1778.55,4.45 1771.00,12.00
             1771.00,12.00 1745.00,38.00 1745.00,38.00
             1745.00,38.00 1665.00,118.00 1665.00,118.00
             1665.00,118.00 1624.00,160.00 1624.00,160.00 Z
           M 1894.00,160.00
           C 1894.00,160.00 2021.00,160.00 2021.00,160.00
             2031.97,159.98 2033.45,155.55 2041.00,148.00
             2041.00,148.00 2067.00,122.00 2067.00,122.00
             2067.00,122.00 2147.00,42.00 2147.00,42.00
             2147.00,42.00 2188.00,0.00 2188.00,0.00
             2188.00,0.00 2061.00,0.00 2061.00,0.00
             2050.03,0.02 2048.55,4.45 2041.00,12.00
             2041.00,12.00 2015.00,38.00 2015.00,38.00
             2015.00,38.00 1935.00,118.00 1935.00,118.00
             1935.00,118.00 1894.00,160.00 1894.00,160.00 Z
           M 2164.00,160.00
           C 2164.00,160.00 2291.00,160.00 2291.00,160.00
             2301.97,159.98 2303.45,155.55 2311.00,148.00
             2311.00,148.00 2337.00,122.00 2337.00,122.00
             2337.00,122.00 2417.00,42.00 2417.00,42.00
             2417.00,42.00 2458.00,0.00 2458.00,0.00
             2458.00,0.00 2331.00,0.00 2331.00,0.00
             2320.03,0.02 2318.55,4.45 2311.00,12.00
             2311.00,12.00 2285.00,38.00 2285.00,38.00
             2285.00,38.00 2205.00,118.00 2205.00,118.00
             2205.00,118.00 2164.00,160.00 2164.00,160.00 Z
           M 2434.00,160.00
           C 2434.00,160.00 2561.00,160.00 2561.00,160.00
             2571.97,159.98 2573.45,155.55 2581.00,148.00
             2581.00,148.00 2607.00,122.00 2607.00,122.00
             2607.00,122.00 2687.00,42.00 2687.00,42.00
             2687.00,42.00 2728.00,0.00 2728.00,0.00
             2728.00,0.00 2601.00,0.00 2601.00,0.00
             2590.03,0.02 2588.55,4.45 2581.00,12.00
             2581.00,12.00 2555.00,38.00 2555.00,38.00
             2555.00,38.00 2475.00,118.00 2475.00,118.00
             2475.00,118.00 2434.00,160.00 2434.00,160.00 Z
           M 2704.00,160.00
           C 2704.00,160.00 2831.00,160.00 2831.00,160.00
             2841.97,159.98 2843.45,155.55 2851.00,148.00
             2851.00,148.00 2877.00,122.00 2877.00,122.00
             2877.00,122.00 2957.00,42.00 2957.00,42.00
             2957.00,42.00 2998.00,0.00 2998.00,0.00
             2998.00,0.00 2871.00,0.00 2871.00,0.00
             2860.03,0.02 2858.55,4.45 2851.00,12.00
             2851.00,12.00 2825.00,38.00 2825.00,38.00
             2825.00,38.00 2745.00,118.00 2745.00,118.00
             2745.00,118.00 2704.00,160.00 2704.00,160.00 Z
           M 2974.00,160.00
           C 2974.00,160.00 3101.00,160.00 3101.00,160.00
             3111.97,159.98 3113.45,155.55 3121.00,148.00
             3121.00,148.00 3147.00,122.00 3147.00,122.00
             3147.00,122.00 3227.00,42.00 3227.00,42.00
             3227.00,42.00 3268.00,0.00 3268.00,0.00
             3268.00,0.00 3141.00,0.00 3141.00,0.00
             3130.03,0.02 3128.55,4.45 3121.00,12.00
             3121.00,12.00 3095.00,38.00 3095.00,38.00
             3095.00,38.00 3015.00,118.00 3015.00,118.00
             3015.00,118.00 2974.00,160.00 2974.00,160.00 Z
           M 3244.00,160.00
           C 3244.00,160.00 3371.00,160.00 3371.00,160.00
             3381.97,159.98 3383.45,155.55 3391.00,148.00
             3391.00,148.00 3417.00,122.00 3417.00,122.00
             3417.00,122.00 3497.00,42.00 3497.00,42.00
             3497.00,42.00 3538.00,0.00 3538.00,0.00
             3538.00,0.00 3411.00,0.00 3411.00,0.00
             3400.03,0.02 3398.55,4.45 3391.00,12.00
             3391.00,12.00 3365.00,38.00 3365.00,38.00
             3365.00,38.00 3285.00,118.00 3285.00,118.00
             3285.00,118.00 3244.00,160.00 3244.00,160.00 Z
           M 3514.00,160.00
           C 3514.00,160.00 3641.00,160.00 3641.00,160.00
             3651.97,159.98 3653.45,155.55 3661.00,148.00
             3661.00,148.00 3687.00,122.00 3687.00,122.00
             3687.00,122.00 3767.00,42.00 3767.00,42.00
             3767.00,42.00 3808.00,0.00 3808.00,0.00
             3808.00,0.00 3681.00,0.00 3681.00,0.00
             3670.03,0.02 3668.55,4.45 3661.00,12.00
             3661.00,12.00 3635.00,38.00 3635.00,38.00
             3635.00,38.00 3555.00,118.00 3555.00,118.00
             3555.00,118.00 3514.00,160.00 3514.00,160.00 Z
           M 3784.00,160.00
           C 3784.00,160.00 3911.00,160.00 3911.00,160.00
             3921.97,159.98 3923.45,155.55 3931.00,148.00
             3931.00,148.00 3957.00,122.00 3957.00,122.00
             3957.00,122.00 4037.00,42.00 4037.00,42.00
             4037.00,42.00 4078.00,0.00 4078.00,0.00
             4078.00,0.00 3951.00,0.00 3951.00,0.00
             3940.03,0.02 3938.55,4.45 3931.00,12.00
             3931.00,12.00 3905.00,38.00 3905.00,38.00
             3905.00,38.00 3825.00,118.00 3825.00,118.00
             3825.00,118.00 3784.00,160.00 3784.00,160.00 Z
           M 4054.00,160.00
           C 4054.00,160.00 4181.00,160.00 4181.00,160.00
             4191.97,159.98 4193.45,155.55 4201.00,148.00
             4201.00,148.00 4227.00,122.00 4227.00,122.00
             4227.00,122.00 4307.00,42.00 4307.00,42.00
             4307.00,42.00 4348.00,0.00 4348.00,0.00
             4348.00,0.00 4221.00,0.00 4221.00,0.00
             4210.03,0.02 4208.55,4.45 4201.00,12.00
             4201.00,12.00 4175.00,38.00 4175.00,38.00
             4175.00,38.00 4095.00,118.00 4095.00,118.00
             4095.00,118.00 4054.00,160.00 4054.00,160.00 Z
           M 4324.00,160.00
           C 4324.00,160.00 4451.00,160.00 4451.00,160.00
             4461.97,159.98 4463.45,155.55 4471.00,148.00
             4471.00,148.00 4497.00,122.00 4497.00,122.00
             4497.00,122.00 4577.00,42.00 4577.00,42.00
             4577.00,42.00 4618.00,0.00 4618.00,0.00
             4618.00,0.00 4491.00,0.00 4491.00,0.00
             4480.03,0.02 4478.55,4.45 4471.00,12.00
             4471.00,12.00 4445.00,38.00 4445.00,38.00
             4445.00,38.00 4365.00,118.00 4365.00,118.00
             4365.00,118.00 4324.00,160.00 4324.00,160.00 Z
           M 4594.00,160.00
           C 4594.00,160.00 4721.00,160.00 4721.00,160.00
             4731.97,159.98 4733.45,155.55 4741.00,148.00
             4741.00,148.00 4767.00,122.00 4767.00,122.00
             4767.00,122.00 4847.00,42.00 4847.00,42.00
             4847.00,42.00 4888.00,0.00 4888.00,0.00
             4888.00,0.00 4761.00,0.00 4761.00,0.00
             4750.03,0.02 4748.55,4.45 4741.00,12.00
             4741.00,12.00 4715.00,38.00 4715.00,38.00
             4715.00,38.00 4635.00,118.00 4635.00,118.00
             4635.00,118.00 4594.00,160.00 4594.00,160.00 Z
           M 4864.00,160.00
           C 4864.00,160.00 4991.00,160.00 4991.00,160.00
             5001.97,159.98 5003.45,155.55 5011.00,148.00
             5011.00,148.00 5037.00,122.00 5037.00,122.00
             5037.00,122.00 5117.00,42.00 5117.00,42.00
             5117.00,42.00 5158.00,0.00 5158.00,0.00
             5158.00,0.00 5031.00,0.00 5031.00,0.00
             5020.03,0.02 5018.55,4.45 5011.00,12.00
             5011.00,12.00 4985.00,38.00 4985.00,38.00
             4985.00,38.00 4905.00,118.00 4905.00,118.00
             4905.00,118.00 4864.00,160.00 4864.00,160.00 Z
           M 5134.00,160.00
           C 5134.00,160.00 5261.00,160.00 5261.00,160.00
             5271.97,159.98 5273.45,155.55 5281.00,148.00
             5281.00,148.00 5307.00,122.00 5307.00,122.00
             5307.00,122.00 5387.00,42.00 5387.00,42.00
             5387.00,42.00 5428.00,0.00 5428.00,0.00
             5428.00,0.00 5301.00,0.00 5301.00,0.00
             5290.03,0.02 5288.55,4.45 5281.00,12.00
             5281.00,12.00 5255.00,38.00 5255.00,38.00
             5255.00,38.00 5175.00,118.00 5175.00,118.00
             5175.00,118.00 5134.00,160.00 5134.00,160.00 Z" />
</svg>
